{"glyphs":{"0":{"ha":468,"x_min":0,"x_max":0,"o":"m 453 533 b 415 324 454 461 439 392 b 349 181 397 274 376 225 b 267 72 325 140 299 104 b 189 24 244 51 219 32 b 25 97 132 6 57 24 b 7 171 14 121 8 144 b 25 365 0 236 8 301 b 138 617 47 456 85 540 b 211 696 158 647 182 675 b 285 728 233 713 257 725 b 318 726 297 729 307 728 b 344 721 326 725 336 722 b 404 686 368 715 388 704 b 411 678 407 683 410 681 b 433 639 418 664 426 653 b 453 563 446 615 451 589 b 453 533 454 553 453 543 z m 339 618 b 314 600 329 613 322 607 b 224 474 276 563 247 519 b 135 167 175 376 140 275 b 142 103 135 144 136 124 b 153 99 143 93 146 93 b 193 135 168 108 181 121 b 254 228 217 164 238 194 b 333 449 290 297 317 371 b 346 569 340 488 347 529 b 339 618 346 586 344 601 z "},"1":{"ha":338,"x_min":0,"x_max":0,"o":"m 65 14 b 18 29 49 14 32 18 b 4 65 6 38 0 50 b 13 94 7 75 10 85 b 86 322 36 169 60 247 b 151 513 107 385 129 449 b 153 515 153 513 153 514 b 149 526 156 522 156 524 b 119 553 136 532 126 540 b 122 585 113 565 113 574 b 196 672 147 614 172 643 b 225 713 207 685 217 699 b 272 726 235 729 247 736 b 321 676 296 718 313 700 b 322 653 324 668 324 661 b 300 574 317 626 308 600 b 168 192 257 446 215 318 b 128 81 154 154 142 117 b 114 43 124 68 118 56 b 71 14 106 24 90 15 b 65 14 69 14 67 14 z "},"2":{"ha":551,"x_min":0,"x_max":0,"o":"m 117 85 b 169 83 135 85 153 83 b 290 79 210 82 250 82 b 399 78 326 78 363 78 b 444 61 415 78 431 72 b 453 50 447 58 450 54 b 440 19 461 36 457 24 b 414 15 432 17 422 15 b 294 11 374 13 335 11 b 121 8 236 10 178 8 b 60 18 100 8 79 11 b 18 44 44 25 29 33 b 1 85 7 56 0 69 b 13 113 3 94 7 104 b 35 140 19 122 28 132 b 153 271 74 185 113 229 b 260 385 190 308 226 346 b 386 544 304 436 347 489 b 424 617 400 567 414 590 b 414 629 428 629 428 631 b 338 617 388 629 363 624 b 157 531 272 599 213 569 b 110 488 139 518 124 504 b 104 481 107 486 106 483 b 81 469 99 471 92 468 b 64 476 75 471 69 474 b 31 557 32 497 24 522 b 69 615 36 581 51 599 b 140 664 92 635 115 649 b 282 724 185 689 232 710 b 388 738 317 732 351 738 b 526 639 463 735 510 686 b 532 556 538 613 536 585 b 503 483 526 531 517 507 b 417 368 479 442 449 404 b 294 246 378 325 336 285 b 161 129 251 206 207 167 b 124 96 147 119 135 108 b 117 85 121 93 118 90 z "},"3":{"ha":597,"x_min":0,"x_max":0,"o":"m 436 610 b 417 607 429 610 422 608 b 264 553 364 593 313 576 b 158 479 225 535 189 510 b 151 471 156 476 154 474 b 126 460 144 460 138 457 b 88 490 108 464 97 475 b 83 550 74 508 72 529 b 128 608 93 574 110 592 b 281 706 172 649 224 682 b 392 733 317 719 354 728 b 450 738 411 736 431 738 b 539 703 483 736 514 728 b 582 604 565 676 583 644 b 561 544 582 582 572 563 b 503 481 544 521 524 500 b 399 396 469 450 435 422 b 394 393 399 396 397 394 b 406 388 399 390 401 389 b 513 272 461 368 497 331 b 499 179 519 240 513 208 b 401 78 476 135 443 103 b 308 42 372 60 342 50 b 135 11 251 29 193 18 b 69 11 113 8 92 7 b 17 39 49 14 32 24 b 3 64 10 46 6 54 b 21 90 0 78 7 89 b 39 89 28 92 33 90 b 56 88 44 86 50 86 b 250 138 122 99 188 114 b 353 196 288 151 322 169 b 404 254 372 213 392 231 b 417 289 411 265 415 276 b 411 299 418 297 418 297 b 397 301 407 300 401 301 b 338 304 376 303 357 304 b 247 289 307 303 276 297 b 217 292 238 286 226 288 b 163 350 190 303 171 322 b 175 386 158 365 163 376 b 239 435 196 401 218 418 b 361 536 282 467 322 501 b 429 601 385 557 408 579 b 436 610 432 603 435 606 z "},"4":{"ha":579,"x_min":0,"x_max":0,"o":"m 464 340 b 486 349 474 342 481 346 b 550 343 507 363 535 356 b 554 338 551 342 553 339 b 550 306 565 325 564 314 b 482 271 529 290 506 279 b 442 258 468 267 454 261 b 425 243 432 256 428 251 b 376 122 408 203 393 163 b 329 26 364 89 346 57 b 301 0 324 15 315 4 b 249 11 283 -6 265 -1 b 240 32 242 15 239 22 b 286 204 250 90 265 149 b 289 217 288 208 292 214 b 275 215 285 221 279 217 b 171 196 240 210 206 201 b 90 196 143 190 117 190 b 33 222 69 201 50 210 b 3 304 8 244 0 272 b 29 401 7 339 17 369 b 128 589 56 467 90 528 b 225 729 157 638 192 683 b 271 746 238 746 253 750 b 338 693 301 738 324 719 b 339 649 344 678 344 664 b 321 614 335 636 328 625 b 213 440 288 556 250 499 b 143 326 189 403 164 365 b 125 281 136 311 129 297 b 132 272 121 271 121 271 b 250 288 171 274 211 281 b 304 297 268 290 286 294 b 319 311 313 299 317 303 b 400 540 343 389 371 465 b 417 579 406 554 411 567 b 458 600 425 597 436 604 b 517 563 483 596 503 583 b 525 524 525 551 528 538 b 521 508 524 518 522 514 b 471 360 507 458 490 408 b 464 340 468 354 467 347 z "},"5":{"ha":493,"x_min":0,"x_max":0,"o":"m 190 407 b 194 407 192 406 193 407 b 292 425 226 417 258 425 b 450 350 357 426 413 406 b 450 218 479 307 479 263 b 367 135 428 185 400 157 b 271 72 333 114 303 93 b 168 7 236 50 203 28 b 136 -7 158 0 147 -6 b 82 8 115 -11 97 -6 b 83 44 69 19 68 33 b 200 136 122 76 161 106 b 283 208 229 160 257 182 b 326 246 297 221 311 233 b 358 308 344 263 354 283 b 360 329 360 315 360 322 b 350 339 360 336 358 339 b 313 336 338 340 325 339 b 172 286 263 326 217 308 b 121 263 156 278 138 269 b 22 276 85 246 51 253 b 6 326 7 289 0 306 b 18 367 8 340 14 353 b 100 558 43 432 71 496 b 151 653 115 590 135 621 b 164 678 156 661 160 669 b 178 700 168 685 174 693 b 207 714 185 710 196 713 b 399 718 271 717 335 718 b 418 717 406 718 411 717 b 468 668 447 715 464 692 b 469 660 469 665 469 663 b 446 625 471 642 464 629 b 400 619 431 621 415 621 b 300 611 367 617 333 614 b 285 600 292 611 288 607 b 233 486 268 563 253 524 b 194 415 221 463 208 439 b 190 407 192 413 189 411 z "},"6":{"ha":521,"x_min":0,"x_max":0,"o":"m 128 156 b 154 204 138 171 146 188 b 246 343 182 253 213 299 b 358 411 274 382 311 404 b 472 381 401 417 440 410 b 503 299 497 358 507 331 b 469 218 499 268 485 243 b 396 124 449 183 425 151 b 260 25 356 85 311 50 b 153 0 225 8 190 -1 b 49 42 113 3 78 14 b 10 111 28 61 15 85 b 8 224 0 149 3 186 b 53 367 15 274 32 321 b 131 513 74 418 100 467 b 239 650 161 563 199 607 b 303 708 260 671 281 692 b 371 742 324 724 346 736 b 463 708 407 751 442 739 b 474 678 469 699 474 689 b 461 658 472 669 469 663 b 432 639 450 654 442 647 b 317 513 388 603 350 560 b 204 342 278 457 239 400 b 139 200 176 296 154 250 b 128 156 133 185 131 171 z m 408 321 b 407 321 408 321 407 321 b 399 317 404 319 401 318 b 322 253 371 299 346 278 b 274 196 306 235 289 215 b 208 92 249 163 226 128 b 204 81 206 89 203 86 b 240 101 218 88 229 93 b 372 235 293 136 338 182 b 408 310 388 257 400 282 b 408 321 408 313 410 317 z "},"7":{"ha":474,"x_min":0,"x_max":0,"o":"m 325 635 b 304 632 317 635 311 633 b 135 586 246 622 190 606 b 97 574 122 582 110 578 b 46 583 78 567 60 571 b 17 636 29 597 18 615 b 31 668 14 650 19 661 b 57 682 39 674 47 678 b 167 718 92 697 129 707 b 301 750 211 731 257 742 b 363 757 322 753 342 757 b 426 729 388 757 410 747 b 460 646 447 706 460 678 b 454 618 458 636 457 628 b 403 494 443 575 425 535 b 347 404 386 464 367 435 b 343 394 346 401 343 399 b 365 396 350 393 357 394 b 421 364 389 399 410 386 b 424 356 421 361 422 358 b 410 335 425 346 421 338 b 379 329 400 332 389 331 b 303 318 353 325 328 321 b 279 303 292 317 286 311 b 183 161 246 257 215 208 b 96 24 154 115 124 69 b 86 6 92 18 89 11 b 64 -11 82 -4 75 -10 b 13 4 44 -14 28 -8 b 4 36 3 13 0 24 b 26 83 8 53 17 68 b 132 269 61 146 96 208 b 136 279 133 274 135 276 b 132 286 139 286 139 288 b 113 285 125 286 118 285 b 53 325 85 286 65 300 b 50 336 51 328 51 332 b 63 358 49 347 53 354 b 99 367 74 364 86 365 b 181 378 125 371 153 374 b 193 386 186 378 190 382 b 224 446 203 407 214 426 b 322 628 256 507 288 568 b 325 635 324 629 325 631 z "},"8":{"ha":524,"x_min":0,"x_max":0,"o":"m 203 414 b 192 432 199 419 196 425 b 158 525 175 460 163 492 b 178 636 153 564 158 601 b 310 746 207 689 250 728 b 465 707 368 764 421 750 b 506 619 489 683 501 653 b 488 529 510 586 503 557 b 415 408 465 488 442 447 b 386 372 406 396 397 383 b 371 357 382 367 376 361 b 368 340 361 350 360 351 b 404 283 382 324 394 304 b 417 222 413 264 418 243 b 393 149 417 194 407 171 b 338 88 379 124 358 104 b 194 4 294 51 247 22 b 121 -7 171 -4 146 -10 b 18 50 79 -4 43 13 b 1 103 8 65 3 83 b 10 167 0 125 4 146 b 67 292 21 213 42 253 b 114 356 81 314 96 336 b 179 404 133 375 154 393 b 203 414 186 408 194 411 z m 317 246 b 307 286 317 260 314 274 b 275 328 299 301 288 315 b 265 329 272 332 269 332 b 258 322 264 326 261 325 b 211 274 243 307 226 290 b 122 140 176 233 146 189 b 107 96 115 126 110 111 b 106 63 104 85 103 74 b 114 56 106 58 108 56 b 132 57 119 56 126 56 b 206 89 158 63 183 74 b 293 172 240 110 271 138 b 317 246 308 194 317 218 z m 257 515 b 294 425 257 478 269 454 b 301 426 297 421 300 422 b 311 440 306 431 308 436 b 400 618 344 497 375 557 b 411 649 404 628 408 638 b 401 661 414 660 413 661 b 363 656 388 661 375 658 b 257 515 307 639 256 588 z "},"9":{"ha":536,"x_min":0,"x_max":0,"o":"m 297 436 b 286 424 293 432 290 428 b 201 342 258 396 232 368 b 146 300 185 326 167 311 b 35 304 108 276 71 281 b 6 347 19 314 10 329 b 3 419 0 371 0 396 b 111 671 13 514 50 597 b 190 742 133 699 158 724 b 240 757 206 750 222 756 b 290 746 258 758 275 754 b 360 653 328 725 350 693 b 361 643 360 650 361 647 b 372 654 367 646 369 650 b 435 721 393 676 413 700 b 438 724 436 722 436 724 b 481 728 451 738 464 739 b 510 644 503 713 522 678 b 440 468 489 585 467 526 b 340 271 410 401 376 336 b 251 100 308 215 281 158 b 208 13 238 71 222 42 b 140 -3 194 -12 163 -19 b 132 19 133 3 131 10 b 142 47 135 29 138 39 b 199 183 160 93 179 138 b 268 358 224 240 247 299 b 294 426 276 381 286 403 b 299 436 296 429 297 432 b 297 436 299 436 297 436 z m 107 381 b 117 385 111 381 114 383 b 183 443 140 404 163 422 b 261 524 211 468 236 496 b 300 567 274 538 286 553 b 300 579 304 574 304 574 b 290 596 296 585 292 590 b 289 626 285 606 283 615 b 293 639 292 631 292 635 b 285 646 293 646 292 647 b 256 629 274 643 265 636 b 213 582 239 615 225 599 b 142 467 185 546 163 507 b 110 392 129 443 118 418 b 107 381 108 388 107 385 z "}," ":{"ha":333,"x_min":0,"x_max":0,"o":""},"!":{"ha":324,"x_min":0,"x_max":0,"o":"m 47 283 b 56 317 49 293 53 304 b 94 443 67 360 81 401 b 188 761 128 549 160 654 b 206 831 193 785 200 807 b 213 850 208 838 210 844 b 243 868 218 863 229 869 b 304 825 271 864 292 849 b 307 793 310 814 310 804 b 285 714 299 767 293 740 b 186 428 254 618 221 522 b 132 278 169 378 150 328 b 131 272 132 276 131 274 b 89 247 125 254 113 246 b 60 257 78 249 68 251 b 47 283 51 263 47 269 z m 51 183 b 97 153 69 182 86 171 b 97 124 104 143 104 133 b 68 58 86 103 78 81 b 40 43 63 44 54 40 b 15 57 31 46 22 50 b 3 90 6 65 0 76 b 15 136 7 107 11 121 b 21 161 17 144 19 153 b 51 183 22 179 35 183 z "},"\"":{"ha":276,"x_min":0,"x_max":0,"o":"m 142 976 b 138 961 142 971 139 967 b 89 847 122 922 104 885 b 67 796 81 829 74 813 b 36 781 60 781 51 776 b 8 800 25 785 17 792 b 3 829 3 808 0 818 b 28 906 10 856 18 881 b 57 990 38 933 49 963 b 61 1011 58 997 60 1004 b 85 1029 64 1024 72 1031 b 140 988 107 1028 132 1008 b 142 976 140 985 142 981 z m 263 976 b 258 961 263 971 260 967 b 210 847 243 922 225 885 b 188 796 201 829 194 813 b 157 781 181 781 172 776 b 129 800 146 785 138 792 b 124 829 124 808 121 818 b 149 906 131 856 139 881 b 178 990 158 933 169 963 b 182 1011 179 997 181 1004 b 206 1029 185 1024 193 1031 b 261 988 228 1028 253 1008 b 263 976 261 985 263 981 z "},"#":{"ha":599,"x_min":0,"x_max":0,"o":"m 235 276 b 182 276 217 276 200 276 b 171 268 176 276 172 275 b 153 221 164 253 158 236 b 129 201 149 210 140 204 b 79 213 111 197 94 201 b 68 242 69 219 67 229 b 72 268 69 250 71 260 b 64 281 75 278 74 279 b 49 283 60 281 54 282 b 4 331 24 290 8 306 b 24 360 0 347 7 357 b 39 361 28 361 33 361 b 90 361 56 361 72 361 b 101 369 99 361 99 361 b 128 457 110 399 119 428 b 121 467 131 465 131 467 b 83 468 108 467 96 467 b 38 510 60 471 43 485 b 38 532 36 518 35 525 b 56 546 40 542 46 546 b 68 546 60 547 64 546 b 147 549 94 546 121 549 b 158 558 154 549 156 553 b 186 639 167 586 175 613 b 194 656 188 644 190 650 b 215 669 199 664 206 668 b 290 629 243 674 278 654 b 292 600 294 619 296 610 b 282 568 289 589 285 579 b 278 557 281 564 279 560 b 282 551 278 553 279 551 b 289 551 285 551 286 551 b 372 550 317 550 344 550 b 388 563 385 550 385 550 b 428 672 400 600 414 636 b 472 696 436 694 450 701 b 525 661 494 692 513 679 b 528 618 533 647 535 633 b 504 558 519 599 511 579 b 501 551 503 556 503 554 b 506 546 500 549 501 547 b 522 544 511 546 517 544 b 554 540 533 544 543 542 b 574 526 563 539 569 535 b 582 489 581 515 585 503 b 561 471 581 476 574 471 b 482 471 535 471 508 471 b 465 460 469 471 469 471 b 425 356 451 425 439 390 b 424 353 425 354 425 353 b 428 346 422 349 424 347 b 442 344 432 346 438 344 b 494 339 460 344 478 342 b 535 290 518 336 536 314 b 514 271 533 278 526 269 b 406 274 478 274 442 272 b 390 264 396 275 394 274 b 363 186 382 239 372 213 b 358 176 361 183 360 179 b 314 150 350 156 336 149 b 288 158 304 151 296 154 b 275 189 275 165 272 174 b 293 264 279 214 286 239 b 294 269 293 265 294 268 b 290 276 296 274 294 276 b 282 276 288 276 285 276 b 235 276 267 276 250 276 b 235 276 235 276 235 276 z m 292 353 b 292 351 292 353 292 353 b 308 351 297 351 303 353 b 322 363 321 350 319 354 b 353 457 333 393 343 425 b 356 463 354 458 354 460 b 350 468 357 467 354 468 b 346 468 349 468 347 468 b 260 465 317 468 288 467 b 251 465 257 465 254 465 b 242 457 246 465 243 461 b 207 365 231 426 218 396 b 213 357 204 357 204 357 b 292 353 239 356 265 354 z "},"$":{"ha":428,"x_min":0,"x_max":0,"o":"m 92 228 b 50 214 78 222 64 218 b 43 211 49 213 46 211 b 13 218 31 206 22 208 b 0 253 4 228 0 240 b 14 275 0 264 4 271 b 64 297 29 283 47 290 b 117 319 81 304 99 313 b 126 331 122 322 125 325 b 150 403 135 354 142 379 b 143 417 153 413 153 413 b 101 438 129 422 114 428 b 71 503 81 454 68 475 b 88 538 72 517 79 528 b 151 586 106 558 128 574 b 215 617 172 599 193 608 b 229 629 222 619 226 624 b 247 674 235 644 240 660 b 282 688 254 692 265 696 b 311 646 299 678 310 665 b 318 639 311 640 314 639 b 349 635 328 639 338 638 b 400 539 389 625 414 579 b 390 524 399 533 394 528 b 364 500 383 514 374 507 b 331 504 351 493 340 494 b 315 538 322 514 318 525 b 304 544 314 547 314 547 b 275 519 282 540 282 540 b 254 461 268 500 261 481 b 261 443 249 449 249 449 b 286 425 269 438 279 432 b 318 358 308 408 319 386 b 296 315 318 340 310 326 b 243 286 281 303 261 294 b 193 265 226 279 210 272 b 178 250 185 263 181 257 b 147 165 168 221 157 193 b 142 153 146 161 144 157 b 124 138 139 144 133 139 b 86 140 111 133 99 133 b 75 165 75 146 72 153 b 90 217 81 182 86 200 b 92 228 92 219 93 222 z m 147 486 b 168 479 156 483 163 482 b 175 482 171 479 174 479 b 181 501 178 488 181 494 b 147 486 169 497 160 493 z m 246 379 b 232 386 240 383 236 385 b 226 385 231 388 228 388 b 222 368 224 381 221 375 b 246 379 231 372 238 375 z "},"%":{"ha":513,"x_min":0,"x_max":0,"o":"m 411 747 b 383 746 401 749 392 746 b 333 738 367 743 350 740 b 326 728 324 736 324 736 b 332 667 333 708 338 688 b 276 592 325 635 306 610 b 171 603 243 571 201 576 b 140 733 132 638 121 685 b 201 807 153 764 171 790 b 271 811 224 819 247 822 b 288 808 276 808 282 807 b 363 815 313 811 338 814 b 407 819 378 817 392 818 b 496 754 460 824 489 788 b 493 711 499 739 496 725 b 456 625 483 681 469 653 b 307 361 408 536 358 449 b 236 249 285 324 260 286 b 104 24 192 175 147 100 b 75 -32 93 6 83 -12 b 50 -44 69 -43 60 -46 b 14 -32 38 -44 25 -40 b 3 1 3 -24 0 -12 b 10 22 4 8 7 15 b 69 142 26 63 49 103 b 142 276 93 188 118 232 b 267 500 182 351 222 426 b 393 711 310 569 351 640 b 411 747 399 722 406 733 z m 267 711 b 265 729 267 717 267 724 b 254 732 263 736 260 736 b 217 686 238 719 225 704 b 207 654 211 676 208 665 b 217 647 207 646 208 644 b 264 693 239 656 256 671 b 267 711 267 699 267 704 z m 431 101 b 425 49 431 86 429 68 b 351 -32 419 10 389 -22 b 229 44 299 -44 243 -11 b 253 163 218 88 229 126 b 293 199 264 176 276 189 b 356 201 313 211 333 213 b 372 196 361 199 365 197 b 428 143 399 193 422 171 b 431 101 431 131 431 118 z m 365 139 b 347 126 358 135 353 132 b 307 60 328 108 314 86 b 304 33 304 51 303 42 b 319 24 306 21 308 19 b 346 51 332 31 339 40 b 365 115 357 71 363 93 b 365 139 365 122 368 129 z "},"&":{"ha":539,"x_min":0,"x_max":0,"o":"m 385 672 b 367 665 378 671 372 668 b 294 625 342 654 318 640 b 226 574 271 610 249 593 b 193 536 214 563 203 550 b 185 519 190 531 188 525 b 192 507 181 511 182 510 b 244 499 208 503 226 501 b 300 468 267 496 286 486 b 313 447 306 463 310 454 b 301 408 318 432 314 418 b 267 383 290 400 279 392 b 157 296 229 356 192 328 b 99 229 135 275 114 254 b 83 196 92 218 86 207 b 82 181 82 190 82 186 b 93 169 82 172 83 169 b 147 172 111 168 129 168 b 297 232 201 183 250 206 b 397 306 335 251 368 276 b 429 347 410 318 419 332 b 432 354 431 349 432 351 b 425 353 429 356 428 353 b 332 294 393 336 361 318 b 318 276 325 290 321 285 b 300 267 317 268 310 265 b 269 338 268 271 250 311 b 303 369 278 350 290 360 b 397 431 332 393 365 413 b 428 442 407 436 417 440 b 500 414 457 447 481 436 b 511 325 524 386 525 357 b 475 272 503 304 489 288 b 399 208 451 249 426 228 b 236 122 349 171 294 143 b 222 111 229 121 225 117 b 186 22 211 81 199 51 b 176 0 183 15 179 7 b 154 -11 172 -8 164 -12 b 121 8 140 -10 129 -3 b 118 29 115 14 115 21 b 140 93 126 50 133 71 b 133 104 144 103 144 103 b 54 126 104 104 78 111 b 6 188 32 140 14 160 b 4 238 0 204 0 221 b 42 319 10 268 24 294 b 150 425 72 361 110 394 b 169 439 156 431 163 435 b 168 447 174 443 174 444 b 161 450 167 449 164 449 b 125 481 147 458 135 468 b 108 558 108 504 103 529 b 147 642 114 589 128 615 b 249 731 174 678 210 707 b 300 754 265 739 283 747 b 313 768 307 757 311 761 b 344 861 321 800 332 831 b 350 874 347 865 349 869 b 375 886 356 883 364 888 b 421 847 397 881 413 868 b 418 824 424 839 422 832 b 399 786 411 811 406 799 b 404 775 394 776 394 776 b 478 688 442 767 474 729 b 469 646 479 674 475 660 b 435 590 461 625 450 607 b 378 536 418 571 400 551 b 360 528 372 533 365 531 b 333 529 350 524 342 525 b 314 550 325 535 318 542 b 317 578 308 560 310 569 b 350 618 328 592 339 604 b 381 661 361 632 372 646 b 385 672 382 664 385 667 z "},"'":{"ha":156,"x_min":0,"x_max":0,"o":"m 142 976 b 138 961 142 971 139 967 b 89 847 122 922 104 885 b 67 796 81 829 74 813 b 36 781 60 781 51 776 b 8 800 25 785 17 792 b 3 829 3 808 0 818 b 28 906 10 856 18 881 b 57 990 38 933 49 963 b 61 1011 58 997 60 1004 b 85 1029 64 1024 72 1031 b 140 988 107 1028 132 1008 b 142 976 140 985 142 981 z "},"(":{"ha":399,"x_min":0,"x_max":0,"o":"m 86 347 b 114 196 88 292 96 243 b 167 81 128 157 144 118 b 197 49 174 68 183 57 b 211 36 203 46 207 42 b 201 13 217 25 214 15 b 178 14 193 10 186 11 b 119 56 154 22 135 36 b 82 113 104 74 93 93 b 15 279 54 165 32 221 b 4 356 10 304 6 329 b 29 532 0 417 13 475 b 106 703 47 592 72 649 b 218 835 136 753 175 796 b 271 875 235 850 251 864 b 324 900 288 886 306 893 b 383 858 353 910 381 883 b 361 839 385 844 376 833 b 349 836 357 840 353 839 b 253 753 313 813 281 785 b 133 556 201 693 163 628 b 90 392 111 503 96 449 b 86 347 88 375 88 358 z "},")":{"ha":400,"x_min":0,"x_max":0,"o":"m 299 565 b 272 717 299 622 290 669 b 219 832 257 757 242 796 b 189 864 211 844 203 857 b 175 878 183 867 178 872 b 185 901 168 888 172 897 b 208 900 192 903 200 903 b 267 857 232 892 250 876 b 303 801 281 840 293 821 b 369 633 331 747 354 692 b 382 558 376 608 381 583 b 357 382 386 497 374 439 b 281 211 339 321 313 264 b 168 79 250 161 211 118 b 115 38 151 64 133 50 b 63 14 99 28 81 19 b 1 56 33 3 4 31 b 24 75 0 68 10 81 b 38 76 29 72 33 74 b 133 161 72 100 104 129 b 253 357 185 219 224 286 b 296 521 275 410 289 464 b 299 565 297 539 299 556 z "},"*":{"ha":304,"x_min":0,"x_max":0,"o":"m 51 917 b 25 931 40 921 32 925 b 8 951 18 936 11 943 b 25 979 1 967 8 978 b 54 978 35 979 44 979 b 72 978 60 976 67 976 b 65 989 71 982 67 986 b 53 1013 60 996 54 1003 b 68 1038 50 1024 56 1035 b 99 1035 79 1040 89 1039 b 114 1026 104 1032 110 1029 b 117 1033 117 1029 117 1032 b 121 1054 118 1040 119 1047 b 144 1069 125 1065 132 1071 b 188 1038 164 1065 178 1056 b 192 1031 189 1036 189 1032 b 200 1036 196 1031 197 1035 b 225 1040 208 1040 217 1042 b 261 1013 240 1035 253 1026 b 254 979 267 1000 268 988 b 251 976 253 978 251 976 b 257 972 251 972 256 972 b 282 954 267 968 275 963 b 288 942 285 951 288 947 b 276 924 290 932 286 926 b 263 921 272 922 267 921 b 206 919 243 921 225 918 b 208 913 204 915 207 914 b 233 872 217 900 225 886 b 242 853 236 867 240 860 b 226 832 243 842 238 833 b 204 835 218 831 211 832 b 175 860 192 840 182 849 b 161 878 171 865 167 872 b 157 869 157 875 157 872 b 149 833 154 857 151 844 b 147 826 149 831 147 829 b 111 810 140 807 131 801 b 90 825 103 813 96 818 b 85 849 85 832 82 839 b 86 853 85 850 86 851 b 85 857 86 854 88 856 b 82 857 83 858 82 857 b 76 853 79 856 78 854 b 57 840 69 849 64 844 b 35 838 50 836 43 835 b 6 860 22 840 13 849 b 11 886 0 871 1 878 b 42 910 21 893 31 901 b 51 917 44 911 46 914 z "},"+":{"ha":472,"x_min":0,"x_max":0,"o":"m 121 479 b 171 481 139 479 156 479 b 185 490 181 481 181 481 b 218 607 196 529 206 568 b 226 632 219 615 224 624 b 249 647 231 642 238 646 b 268 643 256 647 263 646 b 299 621 281 638 290 631 b 307 576 310 607 313 593 b 276 493 297 549 288 521 b 286 479 272 481 272 481 b 415 482 329 479 372 481 b 450 463 432 483 443 475 b 458 435 456 454 458 444 b 442 415 457 424 453 418 b 396 410 426 413 411 411 b 254 404 349 407 301 404 b 242 393 246 404 246 403 b 197 272 228 353 213 313 b 181 235 192 260 188 246 b 144 217 172 221 160 215 b 117 228 135 218 125 221 b 110 253 110 233 104 242 b 118 272 114 258 115 265 b 154 388 131 310 142 349 b 144 400 157 400 157 400 b 72 399 121 399 96 400 b 42 400 61 397 51 399 b 32 403 39 400 35 401 b 0 454 13 414 1 432 b 19 476 0 468 6 474 b 31 478 24 476 26 478 b 121 479 61 478 93 481 z "},",":{"ha":144,"x_min":0,"x_max":0,"o":"m 129 44 b 129 26 131 39 131 33 b 106 -35 124 6 115 -15 b 75 -96 96 -56 88 -76 b 68 -108 74 -100 69 -104 b 40 -122 61 -119 53 -122 b 7 -106 28 -119 17 -115 b 4 -81 1 -97 0 -90 b 47 32 22 -44 36 -7 b 51 54 50 39 51 46 b 65 74 51 64 56 69 b 129 44 85 81 121 65 z "},"-":{"ha":472,"x_min":0,"x_max":0,"o":"m 221 482 b 310 481 250 482 281 482 b 415 483 346 481 381 483 b 449 465 431 483 442 478 b 457 436 454 457 458 447 b 440 417 457 425 451 419 b 394 411 425 415 410 413 b 249 404 346 408 297 406 b 86 400 194 403 140 401 b 46 401 74 400 60 400 b 28 406 40 401 33 403 b 0 454 11 418 1 433 b 19 478 0 469 6 475 b 33 479 24 478 29 479 b 183 481 83 482 133 482 b 221 481 196 481 208 481 b 221 482 221 481 221 482 z "},".":{"ha":117,"x_min":0,"x_max":0,"o":"m 44 -43 b 4 -18 28 -42 14 -33 b 1 -1 1 -12 0 -7 b 19 53 6 18 11 36 b 46 69 24 65 33 71 b 93 43 65 68 81 60 b 92 8 103 31 101 21 b 67 -31 81 -3 74 -17 b 44 -43 63 -40 56 -44 z "},"/":{"ha":653,"x_min":0,"x_max":0,"o":"m 639 857 b 631 833 639 849 635 840 b 542 700 603 788 574 743 b 343 432 475 610 408 521 b 197 235 293 365 246 300 b 114 124 169 199 142 161 b 101 108 111 119 107 114 b 67 94 92 99 81 94 b 19 110 49 94 33 99 b 11 153 3 122 0 136 b 36 188 18 165 28 175 b 322 579 132 318 226 449 b 472 782 372 647 422 715 b 563 893 500 821 532 856 b 574 904 565 897 569 901 b 596 910 581 910 588 911 b 639 857 617 906 639 879 z "},":":{"ha":231,"x_min":0,"x_max":0,"o":"m 44 -43 b 4 -18 28 -42 14 -33 b 1 -1 1 -12 0 -7 b 19 53 6 18 11 36 b 46 69 24 65 33 71 b 93 43 65 68 81 60 b 92 8 103 31 101 21 b 67 -31 81 -3 74 -17 b 44 -43 63 -40 56 -44 z m 158 368 b 118 393 142 369 128 378 b 115 410 115 399 114 404 b 133 464 119 429 125 447 b 160 481 138 476 147 482 b 207 454 179 479 194 471 b 206 419 217 442 215 432 b 181 381 194 408 188 394 b 158 368 176 371 169 367 z "},";":{"ha":282,"x_min":0,"x_max":0,"o":"m 129 44 b 129 26 131 39 131 33 b 106 -35 124 6 115 -15 b 75 -96 96 -56 88 -76 b 68 -108 74 -100 69 -104 b 40 -122 61 -119 53 -122 b 7 -106 28 -119 17 -115 b 4 -81 1 -97 0 -90 b 47 32 22 -44 36 -7 b 51 54 50 39 51 46 b 65 74 51 64 56 69 b 129 44 85 81 121 65 z m 210 368 b 169 393 193 369 179 378 b 167 410 167 399 165 404 b 185 464 171 429 176 447 b 211 481 189 476 199 482 b 258 454 231 479 246 471 b 257 419 268 442 267 432 b 232 381 246 408 239 394 b 210 368 228 371 221 367 z "},"<":{"ha":357,"x_min":0,"x_max":0,"o":"m 3 425 b 15 485 0 446 7 465 b 35 515 21 496 28 506 b 122 613 61 551 90 583 b 225 707 156 646 189 676 b 264 735 236 718 249 728 b 311 729 281 743 296 740 b 336 700 322 722 331 713 b 329 660 343 686 340 672 b 314 646 324 656 319 650 b 199 531 275 608 238 569 b 138 469 179 510 158 490 b 106 422 124 456 113 440 b 114 388 100 408 103 397 b 157 357 128 375 142 367 b 261 293 190 335 225 313 b 304 274 275 286 289 278 b 326 261 313 271 321 267 b 336 249 331 257 335 254 b 329 228 340 240 338 232 b 306 224 322 224 314 222 b 265 233 292 225 279 228 b 208 257 246 239 226 247 b 79 328 164 279 122 303 b 25 375 58 342 39 356 b 3 425 13 390 4 406 z "},"=":{"ha":494,"x_min":0,"x_max":0,"o":"m 125 467 b 68 467 107 467 88 465 b 24 531 40 471 19 503 b 40 549 25 540 31 546 b 75 554 51 551 64 553 b 114 556 88 556 101 556 b 171 558 133 557 151 558 b 351 556 231 556 292 557 b 440 551 382 556 411 554 b 478 519 461 550 472 540 b 476 492 479 511 481 501 b 458 478 474 483 468 479 b 422 476 446 478 435 476 b 317 474 388 476 351 475 b 174 467 269 472 221 469 b 125 467 157 465 142 467 z m 258 313 b 143 314 218 314 181 313 b 53 317 113 315 83 315 b 1 372 25 319 3 347 b 19 394 0 385 7 393 b 26 396 22 394 24 394 b 113 399 54 397 83 399 b 221 396 149 400 185 399 b 274 394 238 396 256 396 b 350 392 299 393 324 393 b 433 388 378 390 406 389 b 464 369 447 386 457 381 b 475 335 471 358 475 347 b 457 315 474 322 468 317 b 443 314 453 314 447 314 b 350 313 413 313 381 313 b 258 313 318 311 288 313 z "},">":{"ha":357,"x_min":0,"x_max":0,"o":"m 340 538 b 328 479 343 517 336 497 b 308 447 322 468 315 457 b 221 350 282 413 253 381 b 118 256 188 317 154 286 b 79 228 107 244 93 235 b 32 233 63 219 46 222 b 7 263 21 240 13 250 b 14 303 0 278 3 290 b 29 317 18 307 24 313 b 143 432 68 354 106 393 b 206 493 164 453 185 472 b 238 542 218 507 229 522 b 228 576 242 556 239 567 b 186 606 215 588 200 597 b 82 669 151 628 118 650 b 39 689 68 678 54 685 b 15 701 31 692 22 696 b 7 714 11 706 8 708 b 14 735 3 722 6 731 b 36 739 21 739 29 740 b 78 731 50 738 64 735 b 135 706 97 724 117 715 b 263 635 179 683 221 660 b 318 588 285 622 303 607 b 340 538 331 572 339 557 z "},"?":{"ha":478,"x_min":0,"x_max":0,"o":"m 317 826 b 146 739 249 821 189 797 b 125 692 136 725 129 708 b 126 681 124 688 124 683 b 136 665 131 676 135 672 b 122 640 140 653 135 644 b 96 640 114 638 104 639 b 39 713 68 650 40 672 b 96 836 39 764 60 803 b 267 908 144 881 201 903 b 399 871 317 913 360 901 b 464 746 438 839 461 797 b 446 667 464 718 457 692 b 400 597 433 640 417 618 b 299 492 369 558 335 525 b 228 419 274 469 249 446 b 176 340 207 394 192 368 b 131 256 161 313 146 283 b 124 239 128 250 125 244 b 101 224 119 229 113 224 b 54 243 83 224 67 229 b 47 275 46 253 44 264 b 54 300 49 283 51 292 b 113 432 71 344 90 389 b 149 483 122 451 135 468 b 206 540 167 503 186 522 b 311 654 243 576 279 613 b 361 740 332 681 349 708 b 372 801 369 760 372 779 b 358 819 371 813 369 817 b 343 824 353 821 349 822 b 317 826 335 825 326 826 z m 47 31 b 1 65 28 31 6 47 b 1 82 0 71 0 76 b 14 118 4 94 10 106 b 32 164 19 133 26 149 b 57 181 36 176 43 181 b 111 140 78 179 104 160 b 108 117 114 132 113 124 b 65 42 94 92 79 67 b 47 31 61 35 54 31 z "},"@":{"ha":535,"x_min":0,"x_max":0,"o":"m 279 347 b 267 335 274 343 269 339 b 225 292 253 319 240 304 b 176 282 210 279 194 275 b 143 322 158 289 144 301 b 158 431 138 360 143 396 b 221 515 171 464 192 493 b 269 532 235 525 250 532 b 314 511 286 531 301 524 b 325 511 319 506 319 506 b 357 517 333 522 343 525 b 378 493 367 511 374 503 b 378 460 383 482 385 471 b 351 397 367 440 358 418 b 342 344 344 379 340 363 b 360 332 342 328 344 326 b 413 375 381 342 399 357 b 457 508 444 414 461 457 b 419 585 456 539 444 565 b 353 611 400 600 378 610 b 143 511 265 615 194 583 b 94 396 118 476 101 438 b 126 242 86 340 94 288 b 150 217 133 232 142 224 b 192 200 163 206 176 200 b 335 211 240 197 288 200 b 379 233 351 215 367 222 b 433 224 394 246 424 240 b 431 206 436 218 436 211 b 406 185 424 197 415 190 b 343 165 385 175 364 169 b 247 154 311 158 279 156 b 183 156 226 153 204 153 b 92 200 149 161 118 176 b 14 344 47 238 22 288 b 72 567 0 426 22 500 b 171 654 99 603 131 633 b 371 665 236 686 303 689 b 450 619 400 656 428 640 b 514 496 486 586 508 544 b 482 361 521 447 508 403 b 418 294 465 335 444 311 b 365 276 401 285 385 276 b 289 322 331 278 306 293 b 279 347 285 331 282 338 z m 208 367 b 210 365 210 367 210 367 b 213 368 211 367 213 367 b 285 450 239 393 263 421 b 288 456 285 451 286 454 b 285 463 289 458 288 461 b 279 463 283 465 281 464 b 264 451 274 460 268 456 b 217 386 243 433 229 410 b 208 367 214 379 211 374 z "},"A":{"ha":1139,"x_min":0,"x_max":0,"o":"m 799 874 l 796 872 b 788 865 792 869 789 868 b 593 772 726 826 663 796 b 497 757 563 761 531 756 b 364 808 446 757 401 774 b 326 885 343 829 331 856 b 326 911 324 893 324 903 b 361 943 331 931 343 940 b 396 939 374 944 386 943 b 442 910 414 932 429 922 b 463 864 453 897 460 882 b 464 857 463 863 463 860 b 468 849 464 853 465 850 b 478 844 469 847 474 846 b 522 849 493 844 508 846 b 611 885 554 856 583 868 b 803 1000 676 922 740 961 l 814 1007 b 882 1050 838 1021 860 1035 b 974 1110 914 1069 944 1089 l 1014 1135 b 1049 1139 1024 1143 1036 1146 b 1081 1118 1061 1136 1072 1129 b 1085 1114 1082 1117 1083 1115 b 1103 1092 1090 1107 1097 1100 b 1129 993 1121 1063 1131 1029 b 1118 881 1128 956 1124 918 b 1085 711 1108 824 1097 768 l 1043 532 b 1003 369 1031 478 1017 424 l 982 286 b 972 249 978 274 975 261 b 954 186 965 228 960 206 b 942 133 950 168 946 150 b 935 106 939 124 936 115 b 907 -4 924 69 915 33 b 882 -89 899 -33 890 -61 l 871 -126 b 840 -214 863 -157 853 -186 b 801 -247 832 -231 818 -242 b 751 -253 785 -251 768 -254 b 717 -237 738 -251 726 -247 b 704 -212 708 -232 704 -222 b 718 -131 707 -185 711 -157 l 721 -112 b 763 86 735 -46 749 21 b 789 197 772 124 781 160 l 790 200 b 790 207 790 203 790 204 l 789 208 b 754 218 775 207 764 210 b 738 250 744 225 739 236 b 742 264 736 256 738 260 b 753 276 746 268 750 272 b 771 300 761 283 767 292 b 771 311 772 306 772 308 b 764 317 771 313 768 315 b 681 340 738 329 710 338 b 600 349 654 344 628 347 l 599 350 b 596 349 597 349 596 349 b 576 342 589 350 582 347 b 526 285 560 322 543 303 b 514 271 522 281 518 276 l 447 204 l 443 200 b 393 154 426 185 410 168 l 378 140 b 340 107 367 129 354 118 b 238 24 307 78 272 50 b 226 13 233 21 229 17 b 172 -26 208 0 190 -14 b 97 -69 149 -43 124 -57 b 19 -86 72 -81 46 -86 b -82 -44 -18 -85 -53 -71 b -111 13 -99 -29 -108 -10 b -103 103 -117 43 -114 74 b -68 174 -94 128 -83 151 b -57 190 -65 181 -61 186 b -53 197 -57 192 -56 194 b 8 264 -36 221 -15 243 b 88 322 32 286 58 306 b 161 360 111 335 136 347 b 222 383 181 368 201 376 b 285 404 243 392 264 399 b 301 407 290 404 296 406 b 317 411 307 408 311 410 b 393 424 342 417 367 421 b 439 426 408 425 424 426 b 456 433 446 426 451 428 b 475 458 461 442 468 450 b 513 504 488 474 500 489 b 522 515 517 508 519 513 b 528 524 525 518 526 521 b 540 539 532 529 536 535 b 574 581 551 553 563 567 b 575 582 574 581 574 582 b 638 665 597 610 618 638 b 738 793 671 708 704 751 b 781 849 753 811 767 829 l 800 872 l 799 872 z m 938 801 l 935 801 b 933 800 935 801 935 800 b 931 796 933 799 932 797 b 910 765 924 786 917 776 l 860 696 b 858 694 860 696 860 694 b 796 607 838 664 818 635 b 736 533 776 583 757 558 b 715 507 731 525 722 515 b 711 500 714 504 713 503 b 706 493 708 499 707 496 b 675 456 696 481 686 468 b 658 436 669 450 664 443 l 654 431 b 644 418 649 428 646 422 l 696 406 b 767 376 721 400 744 390 b 815 335 786 367 803 353 b 817 333 815 335 817 335 b 819 333 818 333 819 333 b 824 342 822 336 822 339 l 839 413 b 865 524 847 449 856 486 b 917 728 882 592 899 660 l 919 740 b 926 763 922 747 924 754 b 938 801 929 775 933 789 z m 351 321 b 325 314 342 319 333 317 b 250 288 299 307 275 297 b 194 261 232 279 213 271 l 186 256 b 157 239 176 251 167 246 b 104 203 139 228 122 215 b 39 139 81 185 58 163 b 8 89 26 124 17 107 b -8 6 -6 63 -11 35 b -6 -3 -7 3 -7 0 b 1 -7 -4 -7 -3 -8 b 10 -1 4 -6 7 -3 b 13 0 10 -1 11 -1 b 44 22 24 7 33 14 l 64 38 b 96 65 75 47 86 56 b 133 97 110 75 122 86 l 138 103 b 188 149 154 117 171 132 l 235 194 l 279 242 b 322 286 293 257 308 271 b 332 297 325 289 328 293 l 336 301 b 351 321 342 307 347 313 z "},"B":{"ha":1436,"x_min":0,"x_max":0,"o":"m 713 875 l 717 879 b 722 885 719 881 721 883 b 739 903 728 892 733 897 b 743 908 740 904 742 907 b 799 964 761 928 779 946 b 800 967 799 965 799 965 b 849 1011 815 982 832 996 b 915 1063 869 1029 892 1046 b 946 1083 925 1069 936 1076 b 953 1086 947 1085 950 1085 b 1022 1124 975 1101 999 1114 b 1089 1143 1043 1133 1065 1139 b 1160 1136 1113 1147 1136 1144 b 1207 1104 1178 1129 1193 1118 b 1235 1058 1219 1092 1229 1076 b 1236 1014 1239 1043 1240 1029 b 1206 936 1231 986 1221 960 b 1153 860 1190 910 1172 883 b 1106 806 1138 842 1122 824 b 1068 768 1093 793 1081 781 b 1057 756 1064 764 1061 760 b 1008 708 1040 740 1024 724 b 988 689 1001 701 994 696 l 978 679 b 975 678 976 678 976 678 b 969 669 974 676 971 674 b 981 668 974 668 976 668 l 983 668 b 1089 657 1019 669 1054 667 b 1168 624 1117 650 1143 639 b 1253 551 1200 606 1229 581 b 1290 489 1268 532 1281 511 b 1317 367 1307 450 1315 410 b 1308 289 1317 340 1314 315 b 1278 196 1301 257 1292 225 b 1253 149 1271 181 1263 164 b 1222 101 1243 133 1233 117 b 1175 42 1207 81 1192 61 b 1117 -19 1157 21 1138 0 b 1053 -75 1096 -39 1075 -57 b 950 -146 1021 -101 986 -125 b 858 -196 921 -164 890 -181 b 747 -243 822 -214 785 -229 b 617 -276 704 -258 661 -269 b 524 -286 586 -282 556 -285 b 376 -264 472 -287 424 -281 b 289 -215 344 -251 315 -236 b 238 -165 269 -200 253 -183 b 210 -47 211 -131 201 -90 b 247 26 217 -19 229 6 b 317 89 268 51 290 72 b 335 101 324 93 329 97 b 344 107 339 103 342 106 b 324 126 336 111 329 118 b 321 146 319 133 319 139 b 328 175 324 156 326 165 b 332 192 329 181 331 186 b 344 246 336 210 340 228 l 361 313 b 365 336 363 319 364 328 b 379 390 369 354 374 372 b 389 432 383 404 386 418 l 400 471 l 406 493 b 439 611 417 533 428 572 b 478 735 451 653 465 694 b 518 851 490 774 504 813 b 522 861 519 854 521 857 b 532 890 526 871 529 881 b 528 889 531 890 529 890 b 525 886 526 888 526 888 b 524 885 525 885 525 885 l 501 860 b 460 817 488 844 474 831 b 299 686 411 767 358 724 b 196 646 267 667 233 653 b 68 665 151 638 108 644 b 8 732 42 681 21 703 b 1 757 4 739 3 747 b 26 799 0 776 8 790 b 68 801 39 803 53 804 b 126 774 90 799 110 789 b 144 746 135 767 140 757 b 146 743 146 744 146 744 l 149 738 b 156 731 150 733 153 732 b 164 729 157 729 160 728 b 197 739 176 731 188 735 b 286 797 231 754 260 774 b 447 951 340 847 393 899 l 463 967 b 517 1019 481 985 499 1001 b 557 1061 529 1033 543 1047 b 624 1129 579 1083 601 1106 b 654 1144 632 1139 642 1143 b 746 1100 692 1146 722 1131 b 757 1056 756 1088 758 1072 b 750 1004 756 1038 754 1021 b 731 931 744 979 738 954 l 722 906 l 719 894 b 713 875 717 889 714 882 z m 614 503 b 583 442 608 496 599 475 b 533 328 568 407 551 369 b 488 215 515 286 500 249 b 468 153 475 181 468 160 l 471 153 b 476 154 472 154 475 154 b 589 167 514 163 551 167 b 649 165 608 167 628 167 b 708 164 669 165 689 165 b 724 163 714 163 719 163 b 764 158 736 161 750 160 l 786 156 b 911 129 829 151 871 143 b 960 103 929 122 944 114 b 990 71 972 94 982 83 l 990 69 b 999 60 992 65 994 63 b 1006 65 1001 61 1004 64 l 1019 79 b 1058 124 1032 93 1046 108 b 1100 176 1074 140 1088 158 b 1129 224 1110 192 1119 208 b 1131 228 1131 225 1131 226 b 1176 338 1151 263 1167 300 b 1188 435 1186 369 1189 401 b 1176 492 1186 456 1183 474 b 1156 531 1172 506 1165 518 b 1107 557 1142 543 1125 553 b 986 563 1067 567 1026 568 b 900 544 957 558 929 553 b 892 543 897 543 894 543 b 869 536 885 542 876 539 b 843 525 861 532 853 529 b 804 508 831 521 817 515 b 733 469 781 497 757 485 b 688 460 719 460 704 457 b 621 499 661 464 639 478 l 619 499 b 618 501 618 500 618 500 b 614 503 617 503 615 503 z m 460 -199 l 465 -199 b 503 -196 478 -199 490 -197 b 600 -176 535 -192 568 -186 b 729 -126 644 -162 688 -146 b 806 -86 756 -114 781 -100 b 847 -61 819 -79 833 -71 b 894 -29 863 -51 879 -40 b 944 8 911 -17 928 -4 b 949 14 947 11 949 13 b 944 19 949 15 947 17 b 926 49 935 28 929 38 b 918 58 925 53 922 57 b 897 65 911 61 904 64 b 743 82 846 75 794 81 b 600 74 694 83 647 81 b 451 35 549 67 499 54 b 361 -24 417 19 388 0 b 325 -79 343 -39 332 -58 b 326 -129 319 -96 319 -112 b 385 -186 339 -156 358 -174 b 460 -199 408 -197 433 -201 z m 664 597 l 665 599 l 667 599 b 688 618 674 606 681 611 b 725 653 700 631 713 642 b 775 699 742 668 758 683 b 800 719 783 706 792 713 b 833 749 811 729 822 739 b 872 783 846 761 860 772 l 914 822 l 933 842 b 951 858 940 847 946 853 b 961 868 954 863 957 865 b 996 906 974 881 985 893 b 1011 922 1001 911 1007 917 b 1079 1004 1036 949 1058 975 b 1092 1024 1083 1011 1088 1017 l 1097 1032 b 1099 1035 1099 1033 1099 1033 b 1097 1038 1099 1036 1099 1036 b 1096 1039 1097 1039 1097 1039 b 1093 1038 1094 1039 1094 1039 l 1092 1038 b 1090 1036 1090 1038 1090 1038 l 1088 1036 b 1065 1026 1081 1033 1072 1031 b 1056 1021 1063 1025 1060 1022 b 1007 992 1039 1013 1022 1003 b 942 943 985 976 963 961 b 883 890 921 926 901 908 b 857 864 874 882 865 874 b 811 814 840 849 825 832 b 781 775 800 801 790 788 b 771 763 776 771 774 767 l 735 713 l 690 643 l 676 621 b 668 606 674 617 671 611 b 664 597 667 603 665 600 z "},"C":{"ha":967,"x_min":0,"x_max":0,"o":"m 1 110 b 26 328 1 189 10 263 b 67 467 38 374 51 421 b 103 563 78 499 90 531 b 113 589 106 571 108 579 b 153 676 125 618 138 647 l 164 699 b 249 849 189 750 217 800 b 346 979 278 894 311 938 b 411 1049 367 1003 388 1026 b 468 1092 429 1064 447 1079 b 568 1133 499 1113 532 1126 b 725 1107 624 1146 676 1136 b 814 1018 763 1086 792 1056 b 844 860 840 968 851 915 b 803 722 839 811 825 765 b 725 599 782 678 756 636 b 657 533 704 575 682 553 b 583 497 636 515 611 504 b 494 511 551 490 522 496 b 456 546 479 519 465 531 b 447 564 451 551 449 557 b 469 593 446 581 453 590 b 500 586 481 594 490 592 b 521 588 507 582 514 583 b 528 593 524 589 526 592 b 556 614 538 600 547 607 b 639 713 588 643 615 675 l 647 724 l 658 740 b 700 842 676 772 690 807 b 714 956 711 879 715 917 b 707 992 713 968 711 979 b 703 1003 706 997 704 1001 b 692 1004 700 1004 696 1004 b 629 988 669 1003 649 997 b 619 981 626 985 624 982 b 571 953 603 974 586 964 b 488 872 540 929 513 901 l 476 858 b 453 831 468 849 460 840 b 372 711 424 792 397 751 b 331 635 357 686 343 661 l 318 610 b 271 513 301 578 286 544 b 258 482 267 503 263 492 b 207 350 239 439 222 394 b 203 338 206 346 204 342 b 157 144 181 275 165 210 b 150 39 151 110 149 74 b 176 -106 150 -11 158 -60 b 235 -185 189 -137 208 -164 b 304 -203 256 -199 278 -204 b 415 -169 343 -199 381 -187 b 526 -97 456 -150 492 -126 b 572 -58 542 -85 557 -72 b 603 -32 582 -49 593 -40 b 615 -21 607 -28 611 -25 l 624 -12 b 700 65 650 13 676 39 b 735 104 713 78 724 92 b 754 125 742 111 747 118 b 854 247 789 165 822 206 b 925 343 879 279 903 311 b 964 406 939 364 951 385 b 976 454 972 421 976 436 b 988 469 976 461 981 467 b 1019 467 999 474 1010 472 b 1053 410 1046 457 1057 439 b 1035 354 1050 390 1044 372 b 986 271 1019 325 1004 297 b 968 244 979 263 974 254 l 946 211 b 857 93 917 171 888 132 b 771 -12 829 58 800 22 b 656 -126 736 -54 697 -92 b 568 -190 628 -150 599 -171 b 492 -235 543 -207 518 -222 b 378 -274 456 -253 418 -267 b 196 -256 315 -286 254 -281 b 100 -187 158 -240 126 -218 b 90 -176 96 -183 93 -181 b 74 -157 83 -171 78 -164 b 35 -81 58 -133 44 -107 b 8 22 22 -47 13 -12 b 1 110 3 57 0 86 z "},"D":{"ha":1407,"x_min":0,"x_max":0,"o":"m 418 38 b 375 46 403 38 388 40 b 349 61 365 50 356 54 b 335 104 336 74 332 88 b 336 108 335 106 335 107 b 349 171 339 129 343 150 b 361 229 353 190 357 210 b 365 251 363 236 364 244 b 404 425 376 308 389 367 b 433 532 414 461 424 497 b 449 583 439 549 444 565 b 465 640 454 601 460 621 b 481 693 471 658 476 675 b 493 740 485 708 489 725 b 510 800 500 760 506 779 b 525 853 515 818 521 835 b 529 863 526 857 528 860 b 533 879 531 868 532 874 b 531 879 532 879 532 879 b 529 876 529 878 529 878 l 528 876 b 504 851 521 868 513 860 b 460 803 489 835 475 818 b 378 729 435 776 407 753 b 371 724 376 728 374 725 b 307 678 350 707 329 692 b 206 633 275 657 242 643 b 82 643 163 624 122 626 b 7 714 47 657 22 681 b 0 747 3 725 0 736 b 25 783 0 765 8 776 b 67 788 38 789 51 790 b 129 754 90 783 111 772 b 143 731 136 747 140 740 b 147 721 144 726 146 724 b 160 714 150 715 154 713 l 182 719 b 274 774 217 732 247 750 b 322 818 290 788 307 803 l 340 836 b 569 1061 418 910 494 985 l 581 1072 b 615 1108 593 1085 604 1096 b 674 1126 631 1128 650 1133 b 750 1079 704 1119 729 1103 b 768 1013 765 1060 771 1038 b 751 922 764 982 758 951 l 751 919 b 747 901 750 913 749 907 b 746 892 746 899 746 896 b 750 893 747 892 749 892 b 751 896 751 894 751 894 l 753 896 b 826 975 776 925 800 951 b 914 1051 854 1003 883 1028 b 999 1107 940 1072 969 1090 b 1094 1140 1029 1124 1061 1135 b 1186 1138 1125 1144 1156 1144 b 1308 1075 1232 1128 1274 1107 b 1372 993 1335 1051 1357 1025 b 1400 896 1388 963 1396 931 b 1404 821 1404 871 1406 846 b 1379 643 1403 761 1394 701 b 1347 544 1369 610 1360 576 b 1306 442 1335 510 1321 475 b 1265 361 1293 414 1279 388 b 1221 286 1251 336 1236 311 b 1174 214 1206 263 1190 238 b 1139 167 1164 199 1151 182 b 1125 149 1135 161 1129 156 l 1092 107 b 1076 89 1086 101 1081 96 l 1049 58 b 989 -1 1029 38 1010 17 b 986 -6 988 -3 988 -4 b 940 -44 971 -19 956 -32 l 910 -69 b 872 -100 897 -79 885 -90 b 778 -167 842 -124 810 -146 b 710 -206 756 -181 733 -193 b 664 -226 694 -212 679 -219 b 643 -236 657 -231 650 -233 b 535 -274 608 -251 572 -264 b 432 -285 501 -283 467 -286 b 350 -271 404 -285 376 -281 b 282 -233 325 -264 303 -251 b 257 -82 236 -187 228 -136 b 343 1 278 -47 307 -19 b 408 31 364 14 385 24 l 410 32 b 415 33 411 32 414 32 b 418 38 417 35 417 36 z m 478 57 b 482 57 479 56 481 56 b 485 57 483 57 483 57 l 486 57 b 507 63 493 58 500 61 b 525 68 514 64 519 67 b 593 82 547 74 569 78 b 736 89 640 92 688 93 b 819 60 767 86 794 76 b 829 56 824 56 826 54 b 836 61 831 56 833 57 b 858 83 843 69 851 76 b 876 103 865 90 871 96 b 900 129 885 113 893 121 l 926 157 b 981 224 944 178 963 200 b 1017 274 993 239 1004 256 b 1065 351 1033 299 1050 325 b 1106 424 1079 375 1093 400 b 1168 558 1128 468 1149 513 b 1206 661 1182 592 1194 626 b 1210 674 1207 665 1208 669 b 1228 729 1217 692 1222 711 b 1246 829 1236 761 1242 794 b 1247 950 1250 869 1251 910 b 1231 1010 1244 971 1239 990 b 1192 1035 1222 1025 1210 1033 b 1126 1022 1168 1036 1147 1032 b 1025 968 1090 1010 1057 992 b 938 894 994 946 965 921 b 856 807 908 868 882 839 b 793 725 833 781 813 753 b 785 713 790 721 788 717 b 774 694 781 706 778 700 b 749 657 764 682 756 669 b 739 640 746 651 743 646 b 693 558 722 614 707 586 b 676 526 688 547 682 536 b 658 490 669 514 664 503 b 646 467 654 483 650 475 b 631 432 640 456 635 444 l 617 401 b 601 367 611 389 606 378 b 589 338 597 357 593 347 b 556 260 576 313 565 286 b 535 207 549 242 542 225 b 503 119 522 178 513 149 l 500 114 b 499 111 500 113 500 113 b 492 90 496 104 493 97 b 478 57 488 79 483 68 z m 407 -193 b 479 -179 432 -193 456 -189 b 557 -144 506 -169 531 -157 b 664 -82 594 -126 629 -106 b 743 -22 690 -64 717 -43 b 753 -14 746 -19 749 -17 b 771 1 758 -10 764 -4 b 775 7 774 3 775 6 b 771 11 774 8 772 10 b 753 18 765 15 760 18 b 643 3 715 18 679 13 b 529 -32 604 -7 567 -18 b 413 -100 486 -47 447 -71 b 378 -154 396 -115 385 -133 b 376 -179 375 -161 375 -169 b 393 -193 379 -189 385 -193 z "},"E":{"ha":1006,"x_min":0,"x_max":0,"o":"m 361 -292 b 204 -265 304 -293 251 -283 b 69 -174 153 -244 107 -214 b 4 -33 33 -133 11 -87 b 7 44 1 -7 3 18 b 36 142 13 79 22 111 b 111 257 57 183 82 222 b 188 335 135 285 160 311 b 189 338 188 336 188 336 b 236 372 204 350 219 363 l 254 383 b 279 400 263 390 271 396 b 286 403 281 401 283 401 b 317 418 296 408 306 414 b 331 425 321 419 326 422 b 332 433 335 426 336 429 b 319 451 328 440 324 446 b 310 465 317 456 314 461 b 279 524 297 483 288 503 b 257 622 267 556 260 588 b 268 738 254 661 258 700 b 306 849 278 775 290 813 b 364 950 321 885 340 918 b 432 1025 385 976 408 1001 b 476 1063 446 1038 461 1050 b 492 1075 481 1067 486 1071 b 518 1092 500 1082 508 1088 b 524 1096 519 1093 522 1094 b 646 1144 561 1119 603 1135 b 710 1150 667 1149 689 1151 b 779 1133 733 1147 757 1142 b 860 1079 810 1121 836 1103 b 915 988 885 1053 903 1022 b 921 819 933 932 936 876 b 888 725 914 788 903 756 l 885 719 b 846 651 874 696 861 672 b 781 571 828 622 806 594 b 678 504 750 543 715 521 b 625 492 661 497 643 493 b 590 503 613 492 601 496 b 558 529 578 510 568 518 b 542 563 550 539 544 550 b 549 596 539 576 542 588 b 581 603 556 603 567 606 b 604 607 590 601 597 603 b 669 657 628 622 650 639 b 728 725 692 678 711 700 b 746 753 735 733 740 743 b 749 757 747 754 747 756 b 801 882 772 796 789 838 b 814 939 807 900 811 919 b 813 989 815 956 815 972 b 803 1001 811 996 808 1000 b 732 1004 779 1007 756 1008 b 676 986 713 1000 694 994 b 583 929 643 971 613 953 b 511 860 557 908 533 885 b 450 775 488 833 468 804 b 389 597 417 719 396 660 b 400 500 385 564 388 532 b 431 453 407 482 418 467 b 467 415 443 440 454 428 b 493 365 481 401 489 385 b 471 326 496 347 489 333 b 464 324 469 325 467 325 b 368 269 429 311 397 293 b 351 257 363 265 357 261 b 336 246 346 253 340 250 b 247 163 304 221 275 193 b 193 97 226 142 208 121 b 161 43 181 79 171 61 b 138 -75 143 6 136 -33 b 154 -129 139 -94 144 -112 b 194 -169 164 -146 178 -160 b 306 -203 229 -192 265 -203 b 431 -185 349 -204 390 -197 b 518 -149 461 -176 490 -164 b 607 -86 550 -131 579 -110 b 678 -10 632 -62 656 -36 b 736 72 699 17 718 43 b 750 99 740 82 746 90 l 756 110 b 788 179 768 132 778 156 b 792 190 789 183 790 186 b 796 200 793 194 794 197 b 797 225 799 207 799 215 b 817 251 793 240 799 250 b 858 238 832 253 846 247 b 867 231 863 236 865 233 b 871 228 868 229 869 229 b 890 165 888 210 894 189 b 878 118 888 150 883 133 l 875 110 b 847 36 868 85 858 60 b 810 -42 836 10 824 -17 b 764 -104 797 -64 782 -85 b 681 -176 738 -131 710 -156 b 594 -231 654 -197 625 -215 b 551 -250 581 -237 567 -244 b 535 -257 546 -253 540 -256 b 408 -289 494 -274 451 -285 b 361 -292 390 -292 374 -293 z "},"F":{"ha":746,"x_min":0,"x_max":0,"o":"m 725 1156 b 876 1142 776 1157 826 1153 b 958 1107 906 1135 933 1124 b 992 1076 971 1099 982 1089 b 1051 967 1021 1044 1042 1008 b 1031 863 1060 929 1053 894 b 1001 850 1024 851 1014 847 b 954 882 981 854 965 864 b 953 913 947 892 947 901 b 932 1028 969 956 963 993 b 917 1036 928 1032 924 1035 b 857 1049 897 1042 878 1046 b 732 1053 815 1053 774 1054 b 611 1046 692 1051 651 1049 b 557 1042 593 1044 575 1043 b 529 1038 547 1040 539 1039 b 524 1036 526 1038 525 1038 b 521 1031 522 1035 521 1033 b 510 957 521 1006 517 981 l 507 946 b 474 807 497 900 486 853 b 456 729 468 781 463 756 b 379 440 432 632 407 536 b 375 425 375 432 374 426 b 388 422 376 424 381 422 l 393 422 b 532 408 439 422 486 418 b 571 394 546 404 558 400 b 608 339 592 382 604 364 b 599 290 611 321 608 306 b 574 268 592 281 583 274 b 553 271 567 264 560 265 b 536 306 543 281 538 292 l 536 307 b 536 317 536 311 536 315 b 532 321 535 318 533 319 b 524 322 531 322 528 322 l 519 322 b 388 326 476 328 432 329 b 369 325 381 325 375 325 l 356 325 b 347 324 351 325 349 325 b 343 315 346 322 344 319 b 289 132 325 253 307 192 b 254 15 276 93 265 54 b 185 -193 233 -56 211 -125 b 157 -253 178 -214 168 -233 b 150 -267 156 -257 153 -262 b 119 -293 143 -279 133 -289 b 60 -294 100 -300 81 -300 b 44 -286 54 -293 49 -290 b 32 -262 36 -281 32 -272 b 35 -221 32 -249 33 -235 b 38 -206 36 -215 36 -210 b 72 -10 46 -140 57 -75 b 85 50 76 10 81 29 b 117 200 96 100 107 150 l 131 261 b 132 269 131 264 131 267 l 135 281 b 135 289 136 285 136 288 b 126 289 133 290 131 290 l 125 289 b 101 283 118 288 110 285 b 89 281 97 282 93 282 b 56 269 78 278 67 274 b 38 271 49 268 43 268 b 11 299 26 276 18 286 b 4 338 4 311 1 325 b 17 360 6 346 10 353 b 67 389 32 374 49 383 b 156 411 96 400 125 407 b 167 414 160 413 164 413 b 171 418 168 415 169 417 b 174 428 172 419 172 424 b 207 599 188 485 199 542 b 217 725 215 640 218 682 b 201 825 215 758 210 792 b 200 828 200 826 200 826 b 199 831 200 829 200 829 b 178 850 196 842 189 849 b 110 865 156 854 133 860 b 51 894 89 869 69 879 b 32 921 43 901 36 911 b 36 969 24 938 25 954 b 61 997 43 979 51 989 b 171 1063 94 1026 131 1047 b 297 1107 213 1081 254 1094 b 425 1131 339 1118 382 1126 l 489 1139 l 508 1142 b 593 1150 536 1146 564 1149 b 608 1151 597 1150 603 1150 b 708 1156 642 1154 675 1156 z m 294 843 b 297 846 296 844 296 844 b 297 847 297 846 297 846 b 339 996 311 897 325 947 l 339 997 l 340 999 b 335 1004 340 1003 339 1004 b 329 1003 333 1003 331 1003 b 328 1001 329 1001 329 1001 b 311 997 322 1000 317 999 b 282 988 301 993 292 990 b 172 939 243 976 207 960 b 171 938 172 938 172 938 b 167 935 169 936 168 936 b 164 931 165 933 165 932 b 294 843 219 919 263 890 z "},"G":{"ha":994,"x_min":0,"x_max":0,"o":"m 728 382 b 718 368 725 378 722 372 b 697 339 711 358 704 349 b 481 54 629 240 557 146 b 393 -39 454 21 425 -10 b 281 -112 360 -71 322 -96 b 88 -85 211 -137 147 -128 b 33 -14 64 -67 46 -43 b 4 100 18 22 8 60 b 7 247 1 149 3 199 b 129 721 22 413 63 569 b 229 900 157 783 190 843 b 311 1008 256 938 282 974 b 449 1129 350 1057 396 1097 b 560 1171 483 1151 519 1165 b 740 1118 628 1179 688 1161 b 810 999 778 1086 800 1046 b 810 925 814 974 814 949 b 788 818 806 888 799 853 b 715 679 769 768 746 722 b 667 619 700 658 685 639 b 603 568 647 600 626 583 b 538 546 582 554 561 547 b 438 590 497 544 464 560 b 425 622 429 599 425 610 b 442 644 426 632 432 640 b 469 644 451 649 460 649 b 501 650 482 642 492 643 b 544 683 517 660 531 671 b 683 875 606 736 651 800 b 707 981 697 910 706 944 b 708 983 707 982 707 982 b 707 1025 710 997 708 1011 l 707 1028 b 699 1050 706 1038 703 1046 b 676 1058 694 1054 686 1057 b 603 1050 651 1061 626 1058 b 503 992 565 1038 532 1018 b 350 804 442 938 390 875 b 219 501 293 708 250 608 b 167 268 196 425 179 347 b 156 165 163 233 158 200 b 151 67 151 133 150 100 b 167 -18 153 38 157 10 b 178 -42 169 -26 174 -35 b 196 -49 182 -49 189 -50 b 240 -32 211 -46 226 -40 b 321 29 269 -15 297 6 b 400 115 349 57 375 86 b 406 122 401 117 404 119 b 553 307 457 182 507 243 b 644 444 585 351 615 397 b 649 451 646 446 647 449 b 725 575 675 492 700 533 b 769 651 740 601 754 626 b 789 686 776 664 782 675 b 810 719 796 697 803 708 b 861 739 822 738 840 744 b 929 693 890 732 913 717 b 940 640 939 676 942 658 b 932 581 939 621 936 601 b 931 568 932 576 932 572 b 869 326 915 486 896 406 b 779 75 843 242 813 157 b 681 -142 750 1 717 -71 b 613 -247 661 -179 639 -215 b 535 -301 592 -274 567 -292 b 468 -314 513 -308 490 -312 b 394 -297 442 -317 417 -311 b 383 -242 374 -282 371 -264 b 401 -229 388 -235 393 -231 b 453 -239 419 -225 438 -228 l 454 -239 b 460 -242 456 -240 458 -242 b 464 -242 461 -243 463 -243 b 468 -239 465 -242 467 -240 l 468 -237 b 521 -174 490 -219 508 -199 b 582 -44 543 -131 564 -87 b 657 154 608 21 633 88 b 728 374 682 226 706 300 b 729 379 728 375 728 378 l 729 382 z "},"H":{"ha":1343,"x_min":0,"x_max":0,"o":"m 982 207 b 949 201 972 197 961 197 b 915 228 935 206 922 215 b 914 257 910 238 908 247 b 926 292 919 268 924 279 b 911 318 928 306 925 311 b 851 335 893 326 872 332 b 565 299 753 347 658 338 b 551 283 558 296 553 290 b 479 89 531 217 507 153 b 365 -126 447 15 413 -58 b 264 -231 338 -167 304 -203 b 63 -236 199 -274 131 -275 b 7 -151 31 -218 13 -189 b 33 26 0 -90 7 -31 b 150 179 60 86 101 135 b 336 308 206 231 269 271 b 360 321 344 313 351 317 b 375 340 369 324 374 331 b 408 453 386 378 397 415 b 519 832 444 579 479 706 b 522 842 519 835 521 838 b 392 764 481 810 438 786 b 276 724 354 747 317 732 b 129 761 221 713 174 729 b 94 799 115 771 103 785 b 83 828 89 808 85 818 b 110 869 81 849 90 864 b 144 868 122 872 133 871 b 158 864 149 867 154 865 b 194 861 169 857 182 858 b 290 894 228 868 260 881 b 393 949 325 911 360 928 b 408 957 399 951 403 954 b 522 1013 447 974 483 994 b 568 1033 538 1019 553 1028 b 688 1010 613 1049 651 1039 b 717 972 700 1000 710 988 b 722 918 725 954 724 936 b 701 819 718 885 710 853 b 646 608 683 749 665 679 b 593 421 629 546 613 483 b 603 410 589 408 589 408 b 761 418 656 419 708 421 b 899 390 808 415 854 408 b 971 343 926 379 950 365 b 1001 288 986 328 997 311 b 1006 296 1006 290 1006 294 b 1065 528 1026 374 1046 450 b 1167 878 1096 646 1129 763 b 1233 1085 1189 947 1208 1017 b 1247 1122 1238 1097 1242 1110 b 1293 1147 1254 1139 1268 1150 b 1369 1099 1326 1143 1351 1125 b 1381 1050 1381 1085 1383 1068 b 1357 939 1375 1013 1365 975 b 1294 681 1336 853 1317 765 b 1238 481 1278 613 1257 547 b 1140 151 1204 371 1171 261 b 1088 -17 1124 94 1106 39 b 1035 -187 1069 -74 1053 -131 b 1013 -254 1028 -210 1021 -232 b 992 -279 1008 -265 1001 -274 b 894 -285 961 -299 928 -300 b 872 -239 874 -276 868 -261 b 922 -29 886 -169 906 -100 b 971 163 939 35 953 99 b 982 207 974 176 978 192 z m 321 164 b 308 157 314 163 311 160 b 265 125 293 147 279 136 b 188 50 236 103 210 78 b 126 -132 143 -3 124 -64 b 133 -162 128 -143 129 -153 b 143 -165 136 -171 136 -171 b 178 -131 156 -154 167 -143 b 243 -26 206 -99 225 -64 b 311 138 269 26 290 82 b 321 164 314 146 317 154 z "},"I":{"ha":629,"x_min":0,"x_max":0,"o":"m 547 971 b 543 971 546 972 544 972 b 542 968 542 969 542 969 l 540 968 b 386 774 481 910 429 844 b 353 714 374 754 363 735 b 349 689 350 707 349 699 b 343 661 350 676 347 668 b 315 651 339 654 329 651 b 257 676 293 653 274 661 b 231 758 232 699 224 726 b 261 838 238 788 247 814 b 381 1003 294 897 335 953 b 482 1099 411 1039 444 1071 l 540 1138 l 542 1138 b 644 1138 576 1158 610 1158 b 708 1047 681 1117 701 1088 b 708 996 710 1029 710 1013 b 668 818 700 936 686 876 b 665 811 667 817 667 814 b 531 419 626 679 582 549 l 500 339 l 431 161 b 308 -99 394 72 354 -14 b 214 -240 282 -149 250 -196 b 176 -276 204 -256 192 -267 b 117 -294 158 -287 138 -293 b 40 -286 90 -297 65 -294 b 19 -275 33 -283 26 -279 b 1 -242 8 -267 3 -256 b 13 -217 0 -232 4 -224 b 75 -211 33 -204 54 -203 l 76 -212 b 82 -214 78 -214 81 -214 b 86 -212 83 -214 85 -214 b 90 -207 88 -211 89 -210 b 142 -129 110 -183 126 -157 b 243 92 182 -58 215 15 b 300 251 261 144 281 197 l 369 440 b 418 578 386 486 403 532 b 453 676 431 610 442 643 b 519 882 476 744 499 813 b 540 946 526 903 533 925 l 544 963 z "},"J":{"ha":767,"x_min":0,"x_max":0,"o":"m 683 1024 b 678 1024 681 1024 679 1024 b 674 1021 676 1022 675 1022 l 672 1019 l 608 989 b 493 932 571 969 532 950 b 419 903 469 919 444 910 b 404 897 415 901 410 899 b 321 875 376 888 349 881 b 231 867 292 868 261 865 b 101 922 181 869 138 888 b 58 1026 72 950 57 985 b 60 1039 58 1031 58 1035 b 81 1068 64 1054 71 1064 b 110 1071 90 1072 100 1074 b 171 1035 135 1067 156 1054 b 190 979 185 1019 192 1000 b 192 972 190 978 190 975 l 192 971 b 201 961 193 965 196 963 b 249 958 217 958 233 957 b 375 996 293 964 335 976 l 439 1024 b 543 1069 474 1039 508 1054 b 556 1075 547 1071 551 1074 b 654 1122 589 1090 622 1106 l 718 1153 b 742 1163 726 1156 735 1158 b 754 1171 746 1164 750 1167 b 813 1176 772 1185 792 1186 b 853 1147 828 1169 840 1160 b 872 1079 871 1128 876 1106 b 851 992 868 1050 861 1021 b 750 672 819 885 786 778 b 726 604 742 650 733 628 l 685 485 l 661 421 b 543 103 624 314 585 208 b 390 -204 500 -4 450 -106 b 350 -265 378 -225 365 -246 b 260 -322 326 -294 297 -314 b 133 -287 211 -332 169 -319 b 71 -185 104 -258 83 -224 b 43 -81 60 -150 50 -115 b 14 99 31 -21 21 39 b 3 224 10 140 6 182 b 3 324 1 257 1 290 b 26 486 3 378 11 432 b 64 567 36 515 49 542 b 97 582 72 579 83 583 b 133 568 110 581 122 576 b 142 529 147 557 150 544 b 104 417 122 494 110 457 b 99 264 97 365 96 315 b 149 -65 104 151 121 42 b 167 -121 153 -85 160 -103 b 211 -199 176 -150 192 -175 b 218 -207 214 -201 217 -204 b 225 -211 221 -210 224 -211 b 229 -206 226 -211 228 -210 b 271 -122 244 -178 258 -150 b 339 53 296 -65 318 -7 b 351 86 343 64 347 75 b 410 258 372 143 392 201 l 454 394 b 483 489 464 426 474 457 b 549 681 504 553 525 617 b 642 925 578 763 608 844 b 668 988 650 946 658 967 b 681 1017 672 997 676 1007 b 682 1021 681 1018 681 1019 b 683 1024 682 1022 682 1022 z "},"K":{"ha":1029,"x_min":0,"x_max":0,"o":"m 599 586 b 606 592 601 588 604 590 l 622 603 b 853 769 700 657 776 713 b 1014 894 907 810 961 851 b 1097 957 1042 915 1069 936 b 1104 963 1099 958 1101 961 b 1192 1042 1135 986 1164 1013 b 1261 1121 1215 1067 1239 1093 b 1293 1168 1274 1136 1283 1151 b 1304 1199 1299 1178 1303 1189 b 1336 1224 1310 1215 1321 1224 b 1357 1218 1343 1222 1350 1221 b 1410 1164 1381 1206 1399 1188 b 1414 1064 1425 1132 1426 1099 b 1361 983 1401 1035 1385 1007 l 1353 972 b 1339 957 1349 967 1343 961 b 1286 908 1322 939 1304 924 b 971 660 1183 822 1078 739 b 736 492 894 603 815 546 b 664 451 714 476 690 463 b 597 413 640 440 618 428 b 592 406 593 410 592 407 b 593 396 590 404 592 400 b 661 258 614 350 636 304 b 767 76 696 197 731 136 b 782 50 772 68 778 60 b 868 -68 808 10 836 -31 b 997 -207 908 -117 951 -164 b 1075 -271 1021 -231 1046 -253 l 1076 -271 b 1079 -272 1078 -272 1078 -272 b 1093 -271 1083 -276 1089 -275 b 1117 -257 1100 -264 1107 -260 b 1136 -251 1122 -254 1129 -253 b 1161 -283 1157 -253 1165 -262 b 1142 -321 1157 -297 1150 -310 b 1071 -364 1124 -344 1100 -358 b 1018 -360 1053 -367 1036 -365 b 964 -333 999 -353 981 -344 b 867 -258 929 -311 896 -286 b 761 -157 829 -226 794 -192 b 636 -15 717 -112 675 -65 b 556 111 607 25 579 68 b 485 249 531 157 507 203 b 485 251 485 250 485 250 b 482 251 483 251 483 251 b 481 249 481 250 481 250 b 478 246 479 247 479 247 l 478 243 b 375 -50 444 144 410 47 b 354 -111 368 -69 361 -90 b 318 -210 342 -144 331 -178 b 317 -212 317 -211 317 -211 b 308 -233 314 -219 311 -226 b 281 -261 303 -247 293 -257 b 224 -265 263 -269 243 -271 b 203 -254 217 -264 210 -260 b 194 -231 196 -247 193 -240 b 206 -151 197 -204 201 -178 b 215 -93 210 -132 213 -112 l 229 -15 b 278 179 243 50 260 114 b 293 233 283 197 289 215 b 351 438 311 301 331 369 b 429 678 375 518 401 599 b 503 876 453 744 476 811 b 518 919 508 892 514 906 b 524 935 519 924 522 929 b 526 942 525 936 525 939 b 522 940 525 942 524 942 b 519 938 521 939 521 939 b 511 928 517 933 514 931 b 472 888 499 915 485 901 b 368 794 440 853 406 822 b 265 728 336 768 303 746 b 165 703 233 713 200 704 b 42 747 118 701 76 715 b 4 814 22 765 10 788 b 35 861 1 838 11 854 b 68 863 46 864 57 864 b 124 840 89 860 107 853 b 147 807 135 831 143 819 b 157 790 150 797 153 792 b 174 792 160 789 165 789 b 258 833 204 800 232 814 b 313 879 278 847 296 863 b 321 889 315 883 318 886 b 572 1135 407 969 490 1051 b 610 1175 585 1147 597 1161 b 617 1182 613 1176 615 1179 b 661 1204 628 1199 643 1206 b 728 1179 686 1203 708 1194 b 756 1107 750 1161 760 1136 b 724 957 750 1056 739 1006 b 644 722 700 878 674 800 b 613 632 633 692 622 661 b 599 592 608 619 603 606 b 597 589 599 590 599 590 l 597 588 z "},"L":{"ha":904,"x_min":0,"x_max":0,"o":"m 299 300 b 301 303 300 301 300 301 b 301 306 301 304 301 304 b 303 308 303 307 303 307 b 310 328 304 315 307 321 b 411 607 342 421 376 514 b 568 936 454 721 507 831 b 658 1061 593 981 624 1022 b 767 1143 689 1096 725 1122 b 825 1158 785 1153 804 1157 b 893 1140 849 1158 872 1153 b 979 1015 942 1113 971 1071 b 976 922 983 983 983 953 b 935 790 967 876 953 832 b 800 553 897 706 853 626 b 713 440 774 514 744 476 b 479 250 647 361 569 299 b 465 233 472 246 468 240 b 418 104 450 190 433 147 b 383 13 406 74 394 43 b 382 -1 381 6 381 0 b 394 -4 383 -3 388 -4 b 613 -29 468 -7 540 -15 b 903 -94 710 -47 807 -68 b 1053 -147 954 -107 1004 -125 b 1096 -174 1068 -154 1083 -164 b 1119 -214 1108 -186 1117 -199 b 1111 -258 1121 -229 1118 -244 b 1058 -300 1099 -279 1082 -293 b 1040 -293 1051 -301 1044 -300 b 1036 -271 1036 -286 1035 -278 b 1047 -240 1036 -258 1040 -249 b 1051 -233 1050 -237 1051 -235 b 1044 -231 1050 -232 1049 -232 b 992 -208 1028 -221 1010 -214 b 840 -167 942 -192 892 -178 b 667 -133 783 -154 725 -143 b 554 -122 629 -128 592 -124 b 354 -118 488 -118 421 -117 l 349 -118 b 340 -119 344 -118 342 -118 b 336 -128 339 -121 338 -124 l 319 -178 b 313 -201 318 -186 315 -194 b 296 -261 306 -221 300 -240 b 267 -292 292 -276 282 -287 b 211 -294 249 -297 229 -299 l 194 -292 b 163 -285 185 -290 174 -287 b 42 -218 115 -275 75 -253 b 6 -140 21 -196 10 -169 b 42 -61 1 -107 14 -81 b 108 -29 63 -46 85 -36 b 193 -11 136 -21 164 -15 b 204 -7 197 -11 201 -10 b 208 1 206 -6 207 -3 b 228 68 214 24 221 46 b 229 78 228 72 228 75 b 269 213 242 124 256 168 b 271 217 271 214 271 215 b 272 219 272 218 272 218 b 269 226 274 222 272 225 l 256 232 b 174 350 208 257 181 296 b 211 521 167 410 179 467 b 249 572 222 539 235 557 b 279 599 258 582 268 592 b 339 603 299 611 318 613 b 379 568 357 596 369 583 b 376 533 386 556 385 544 l 371 525 b 367 519 369 524 368 521 b 300 400 340 482 318 443 b 289 328 292 376 288 353 b 299 300 290 317 293 307 z m 533 418 b 536 417 535 417 535 417 l 536 418 b 539 419 538 418 538 418 b 611 496 564 443 588 469 b 711 625 646 538 679 581 b 825 817 756 685 793 749 b 875 990 851 871 868 929 b 876 1026 876 1003 878 1014 b 867 1032 875 1033 872 1036 b 851 1021 861 1028 856 1025 b 758 917 815 992 785 957 b 676 765 728 868 700 818 b 547 453 631 663 588 558 b 538 429 543 444 540 436 b 533 418 536 425 535 422 z m 100 -161 l 100 -162 b 142 -189 114 -172 128 -182 b 154 -196 146 -192 150 -194 b 158 -196 156 -197 157 -197 b 161 -192 160 -194 160 -193 b 163 -183 161 -189 161 -186 l 171 -144 b 165 -139 172 -139 171 -137 b 115 -153 147 -142 131 -146 b 113 -154 114 -154 114 -154 b 100 -161 108 -156 104 -158 z "},"M":{"ha":1375,"x_min":0,"x_max":0,"o":"m 1206 767 l 1200 761 b 1199 758 1200 760 1200 760 l 1135 667 b 1093 606 1121 646 1107 625 b 1001 469 1061 560 1031 515 l 940 375 b 842 235 908 326 876 281 b 821 206 835 225 828 215 b 817 200 819 204 818 201 b 771 142 803 179 788 160 b 715 115 756 126 736 117 b 650 129 692 113 671 117 b 624 168 636 139 628 151 b 622 215 621 183 621 200 b 692 533 635 324 657 429 b 743 696 708 588 725 642 b 744 699 743 697 743 697 l 744 701 b 738 694 742 700 739 697 l 738 693 b 600 474 689 621 643 547 b 519 325 572 425 546 375 l 506 300 b 499 288 504 296 501 292 b 458 215 486 264 472 239 b 435 171 450 201 442 186 l 426 154 b 329 -39 394 90 361 26 b 301 -93 319 -57 311 -75 b 269 -153 292 -114 281 -133 b 253 -182 264 -162 258 -172 b 199 -214 240 -203 222 -214 b 160 -207 185 -215 172 -212 b 129 -169 143 -200 133 -187 b 128 -167 129 -168 129 -168 b 126 -146 126 -160 126 -153 b 139 -12 125 -101 129 -57 b 188 154 153 44 169 100 b 196 178 190 161 193 169 b 349 635 247 329 297 482 b 429 860 374 710 400 785 l 429 861 b 432 865 431 863 431 864 b 431 868 432 867 432 867 b 428 868 429 868 429 868 b 425 865 426 867 426 867 b 424 864 425 864 425 864 b 271 739 375 818 325 776 b 219 708 254 728 238 718 b 138 689 193 694 167 688 b 19 744 90 692 51 710 b 3 781 10 754 4 767 b 26 815 1 799 8 811 b 63 814 39 818 50 818 b 86 804 71 813 79 808 b 110 801 93 800 101 800 b 182 836 136 810 160 821 b 315 933 229 865 274 899 b 401 1014 344 960 374 986 b 522 1143 444 1056 485 1099 b 568 1193 538 1160 553 1176 b 624 1206 583 1210 603 1214 b 682 1154 650 1196 669 1178 b 686 1106 690 1139 692 1122 b 665 1038 679 1082 672 1060 b 661 1024 664 1033 663 1028 b 622 915 649 988 636 951 b 601 856 615 896 608 876 b 514 604 572 772 543 689 b 471 476 499 561 485 519 b 446 403 463 453 454 428 l 444 403 l 444 396 l 450 407 b 463 429 454 414 458 422 b 518 525 481 461 500 493 b 560 596 532 549 546 572 b 685 800 600 665 642 733 b 701 824 690 807 696 815 b 868 1063 754 906 810 985 b 892 1094 876 1072 885 1083 b 938 1110 904 1110 919 1114 b 1011 1051 972 1103 996 1083 b 1015 1000 1018 1035 1019 1018 b 1006 961 1014 988 1010 974 b 993 918 1001 947 997 933 b 950 792 981 875 965 833 b 901 656 933 746 917 701 b 892 631 897 647 894 639 b 814 407 865 557 839 482 b 801 369 810 394 806 382 l 793 344 b 789 331 792 340 790 335 b 793 335 790 332 792 333 b 796 339 794 336 794 338 b 797 340 797 339 797 339 b 938 557 846 411 892 483 b 1043 714 971 611 1006 663 l 1224 967 b 1290 1054 1246 996 1268 1025 b 1322 1097 1301 1069 1313 1083 b 1340 1121 1329 1106 1335 1114 l 1349 1132 l 1360 1146 l 1364 1150 b 1415 1164 1378 1165 1394 1169 b 1485 1114 1444 1157 1468 1140 b 1493 1060 1494 1097 1497 1079 b 1481 1011 1490 1043 1486 1026 b 1411 828 1460 949 1438 888 b 1374 739 1399 799 1386 768 b 1307 575 1350 685 1328 629 b 1207 288 1269 481 1236 385 b 1168 90 1190 222 1178 156 b 1161 -89 1160 31 1157 -29 b 1176 -246 1163 -142 1167 -194 b 1181 -258 1178 -250 1179 -254 b 1182 -269 1182 -262 1182 -265 b 1186 -276 1183 -272 1185 -275 b 1193 -279 1188 -278 1190 -279 b 1196 -281 1194 -279 1194 -279 l 1197 -281 b 1211 -314 1215 -286 1221 -297 b 1160 -349 1199 -332 1181 -343 b 1129 -351 1150 -351 1139 -353 b 1093 -328 1114 -349 1101 -340 b 1079 -299 1088 -319 1083 -310 b 1057 -207 1069 -269 1061 -239 b 1038 -53 1049 -156 1042 -104 b 1033 100 1032 -1 1031 49 b 1067 340 1038 181 1049 261 b 1133 563 1085 415 1107 489 b 1204 757 1156 628 1179 693 l 1204 758 b 1206 767 1206 761 1206 764 z "},"N":{"ha":1194,"x_min":0,"x_max":0,"o":"m 419 869 l 394 844 b 339 792 376 826 358 808 b 251 733 313 768 283 749 b 76 746 192 706 133 710 b 15 810 50 761 31 783 b 6 838 11 819 7 828 b 36 886 1 863 13 879 b 82 885 51 890 67 889 b 140 854 104 879 124 869 b 161 851 147 849 154 847 b 261 911 197 867 231 886 b 415 1050 315 954 367 1000 b 538 1188 458 1094 499 1140 b 549 1200 542 1192 544 1196 l 563 1217 b 614 1235 575 1233 593 1239 b 682 1196 642 1229 664 1217 b 699 1136 696 1178 701 1158 b 679 1053 694 1107 689 1079 b 633 922 665 1010 650 965 b 632 918 632 921 632 919 b 563 726 608 854 585 790 b 556 707 561 719 558 714 l 492 526 b 463 449 482 500 472 475 l 463 447 b 431 360 453 418 442 389 b 429 356 431 358 431 357 l 429 351 b 436 360 432 354 435 357 b 438 363 436 361 436 361 b 472 418 449 381 460 400 l 536 524 b 603 621 557 556 579 589 b 631 661 613 635 621 649 b 779 860 676 729 726 796 b 863 954 806 892 833 924 l 876 971 b 972 1068 908 1003 940 1036 b 1053 1138 997 1093 1024 1117 b 1079 1153 1061 1143 1069 1149 b 1139 1161 1097 1163 1118 1165 b 1214 1122 1168 1156 1193 1143 b 1240 1033 1238 1097 1246 1068 b 1228 975 1238 1014 1233 994 l 1222 947 b 1157 722 1204 871 1182 796 l 1149 694 b 1106 560 1135 650 1121 606 b 1074 465 1094 528 1083 497 b 1014 258 1051 397 1032 328 b 978 68 999 196 986 133 b 971 -44 971 31 969 -7 b 981 -143 972 -78 976 -111 b 1008 -275 988 -187 996 -232 b 1014 -293 1010 -282 1011 -287 l 1017 -301 b 1031 -311 1018 -308 1024 -311 b 1047 -315 1036 -312 1042 -314 b 1057 -347 1063 -322 1065 -333 b 1044 -360 1053 -351 1049 -356 b 974 -378 1024 -374 1000 -379 b 915 -340 949 -375 929 -362 b 889 -282 904 -322 896 -303 b 854 -149 875 -239 864 -194 b 831 -17 844 -106 838 -61 b 828 88 826 18 825 53 l 828 110 b 829 131 829 117 829 124 b 850 282 833 182 840 232 b 907 518 865 361 885 439 l 907 521 b 983 783 931 608 957 696 b 999 839 988 801 993 821 b 1028 925 1008 868 1018 896 l 1028 926 b 1029 929 1029 928 1029 928 b 1029 933 1029 931 1029 932 b 1026 932 1028 933 1026 933 b 1024 929 1025 931 1025 931 b 1022 928 1022 929 1022 929 b 956 858 999 906 976 882 b 775 638 893 788 832 714 b 601 390 715 557 657 475 b 385 46 526 278 454 163 l 374 26 b 271 -156 339 -33 304 -94 b 254 -183 267 -165 261 -174 b 203 -217 242 -201 224 -212 b 140 -212 182 -221 161 -219 b 101 -147 111 -201 99 -179 b 139 51 108 -79 121 -14 b 201 260 157 122 178 192 b 375 743 257 422 315 583 l 417 857 b 418 860 417 858 417 858 b 419 869 419 861 419 865 z "},"O":{"ha":943,"x_min":0,"x_max":0,"o":"m 0 -62 b 14 65 1 -19 6 22 b 32 138 18 89 25 114 b 72 253 43 176 57 215 b 78 268 74 257 76 263 b 96 311 85 282 90 296 b 114 350 103 324 108 338 b 124 369 117 357 119 363 b 168 456 138 399 153 426 b 169 458 168 457 168 457 b 211 532 182 483 196 508 b 221 546 215 536 218 542 b 232 564 225 553 228 558 b 235 571 233 567 235 569 b 228 572 233 572 232 572 b 192 589 215 575 203 581 b 151 663 165 606 151 631 b 157 699 151 675 153 686 b 215 833 172 746 192 790 b 261 915 231 861 246 889 b 293 971 271 933 282 953 b 338 1028 306 992 321 1010 b 383 1074 351 1044 367 1060 l 414 1099 b 493 1147 439 1117 465 1133 b 582 1178 522 1161 551 1171 b 660 1186 607 1185 633 1188 b 761 1161 694 1185 729 1176 b 813 1131 779 1153 797 1143 b 856 1090 828 1118 843 1106 b 901 1022 874 1069 889 1046 b 908 1007 904 1018 907 1013 b 910 1006 908 1006 908 1006 b 932 919 921 978 928 949 b 939 829 938 890 940 860 b 935 778 938 813 936 796 b 933 764 933 774 933 768 b 921 692 931 740 926 715 b 894 586 914 657 904 621 b 868 506 886 560 878 532 b 832 415 857 475 844 444 b 800 342 822 390 811 365 b 790 322 796 335 793 329 b 758 260 781 301 769 281 b 746 236 754 253 750 244 b 731 207 742 226 736 217 b 718 186 726 200 722 193 b 704 163 714 178 708 169 b 692 140 700 156 696 147 l 681 121 b 651 74 671 106 661 89 b 624 31 642 60 633 46 b 581 -31 610 10 596 -10 b 535 -90 565 -51 550 -71 l 493 -140 b 447 -190 478 -158 463 -175 b 436 -203 443 -194 440 -199 l 417 -222 b 408 -229 414 -224 411 -226 b 357 -271 392 -244 375 -258 b 321 -296 344 -281 333 -289 b 258 -322 301 -307 281 -315 b 193 -329 238 -328 215 -331 b 122 -308 168 -326 144 -319 b 38 -232 86 -292 58 -267 b 3 -106 17 -192 4 -150 b 1 -96 1 -101 1 -99 b 0 -62 0 -85 0 -74 z m 274 626 l 275 626 l 275 628 l 289 644 b 321 682 299 657 310 669 b 400 754 343 711 369 735 b 449 765 415 764 432 767 b 529 718 482 760 508 744 b 535 654 546 694 547 674 b 508 611 525 640 517 626 b 504 606 507 610 506 607 b 492 585 500 599 496 592 l 478 563 b 463 536 472 554 467 546 b 436 494 453 522 444 508 b 375 392 415 460 394 426 b 314 275 354 353 333 314 b 289 222 304 257 296 240 l 283 214 b 243 118 269 182 256 150 b 214 36 232 92 222 64 b 190 -50 204 7 197 -21 b 178 -174 181 -90 176 -132 b 183 -204 179 -183 181 -194 b 190 -208 183 -208 186 -210 l 207 -200 b 219 -192 211 -197 215 -194 b 243 -176 226 -187 235 -182 b 303 -124 264 -161 285 -143 b 357 -65 322 -106 340 -86 b 394 -19 369 -50 382 -35 b 397 -18 396 -18 396 -18 l 431 26 b 438 38 433 31 436 33 b 482 99 453 57 468 78 l 510 140 l 524 163 b 574 246 542 190 558 218 l 576 249 b 597 286 583 261 590 274 b 613 315 603 296 608 306 b 639 363 622 331 631 347 l 656 396 b 669 422 660 406 665 414 b 708 504 683 449 696 476 b 743 589 721 532 733 560 b 779 700 757 625 769 663 b 803 815 789 738 797 776 b 807 894 806 842 807 868 b 803 947 807 913 806 929 b 782 1022 799 974 792 999 b 756 1054 776 1035 768 1046 b 725 1061 746 1058 735 1061 b 672 1053 707 1061 690 1058 b 557 992 631 1039 592 1018 b 492 932 535 974 513 953 l 447 885 b 433 869 443 879 438 874 b 378 801 414 849 396 825 b 339 744 365 783 351 764 l 319 714 b 310 696 317 708 314 703 b 290 661 303 685 296 674 b 281 644 286 656 283 650 b 274 626 276 639 275 633 z "},"P":{"ha":1269,"x_min":0,"x_max":0,"o":"m 504 292 b 500 285 503 290 501 288 l 500 283 b 418 64 472 210 444 138 b 399 14 411 46 406 29 b 374 -51 389 -8 381 -31 l 329 -176 l 326 -183 b 286 -272 315 -214 301 -243 b 200 -312 268 -304 240 -317 b 164 -301 188 -311 175 -307 b 138 -282 154 -297 144 -290 b 129 -258 132 -275 129 -267 b 139 -206 129 -240 132 -222 b 221 68 168 -115 196 -24 b 263 200 233 113 247 157 b 269 221 265 207 268 214 b 346 460 296 300 322 381 b 417 660 368 528 392 594 b 433 706 422 675 428 690 b 438 717 435 710 436 713 b 493 865 456 767 475 817 b 494 872 494 868 494 871 b 496 875 496 874 496 874 b 493 875 494 875 494 875 b 490 872 492 874 492 874 l 478 860 b 460 839 471 853 465 846 b 356 750 428 807 393 778 b 265 694 326 729 297 710 b 165 669 233 679 200 671 b 43 714 119 668 78 683 b 6 779 24 732 11 753 b 38 829 1 806 13 822 b 110 817 64 833 88 829 b 149 771 129 807 142 792 l 151 765 b 157 758 153 761 156 758 b 167 757 158 757 163 757 b 236 785 192 761 215 771 b 299 833 258 799 279 815 b 575 1104 392 921 485 1011 l 588 1117 b 600 1129 592 1121 596 1125 b 610 1144 604 1133 607 1139 b 636 1167 615 1154 624 1163 b 668 1168 647 1171 658 1172 b 751 1104 703 1156 731 1135 b 761 1038 764 1083 767 1061 b 743 963 757 1013 750 988 l 740 957 l 740 954 b 744 956 742 954 743 954 b 747 957 746 956 746 956 l 749 958 b 926 1082 804 1004 864 1046 b 1081 1153 975 1111 1026 1135 b 1157 1168 1106 1161 1131 1167 b 1256 1136 1194 1169 1226 1158 b 1338 1011 1297 1104 1325 1063 b 1350 925 1346 982 1350 954 b 1340 850 1349 900 1346 875 b 1275 651 1326 781 1304 714 b 1140 401 1235 565 1190 482 b 1057 276 1114 358 1086 317 b 965 174 1031 239 1000 206 b 879 121 940 150 911 133 b 711 124 822 103 767 104 b 618 179 676 136 646 156 b 511 285 579 211 543 247 l 510 286 b 504 292 508 289 507 290 z m 760 207 b 768 210 763 207 765 208 b 799 226 779 214 789 219 b 867 297 825 247 847 271 b 1013 549 922 376 971 461 b 1113 763 1047 619 1081 692 b 1183 965 1143 828 1167 896 b 1192 1018 1188 983 1190 1000 b 1192 1025 1193 1022 1193 1024 b 1185 1026 1190 1026 1189 1026 b 1164 1022 1178 1025 1171 1024 b 1038 974 1121 1011 1078 994 b 869 872 978 944 922 911 b 663 701 796 821 726 764 b 646 676 654 694 649 686 b 576 486 622 613 600 549 l 543 400 b 546 386 542 396 542 390 b 553 376 547 382 550 379 b 560 367 554 372 557 369 b 708 229 601 313 651 267 b 744 211 719 222 732 215 b 760 207 749 210 754 208 z "},"Q":{"ha":1076,"x_min":0,"x_max":0,"o":"m 822 -225 b 819 -222 821 -224 821 -222 b 815 -222 818 -222 817 -222 b 740 -221 790 -219 765 -219 l 735 -221 b 674 -225 714 -222 694 -224 b 529 -247 625 -231 578 -237 b 343 -301 467 -261 404 -279 b 192 -354 292 -319 242 -336 b 114 -381 165 -362 140 -371 b 92 -387 107 -383 99 -386 b 31 -369 68 -394 47 -387 b 14 -346 24 -362 18 -356 b 22 -292 4 -326 7 -308 b 63 -261 35 -279 47 -269 b 208 -192 108 -232 157 -210 b 221 -187 213 -190 217 -189 b 224 -186 222 -187 224 -187 b 235 -182 231 -185 233 -183 b 231 -174 235 -181 233 -178 b 228 -169 231 -172 229 -171 b 199 -83 213 -143 203 -114 b 193 21 193 -49 192 -14 b 210 142 194 61 200 101 b 214 163 211 149 213 156 l 222 196 b 264 314 235 236 249 275 b 290 376 272 335 281 356 b 335 469 304 408 319 439 l 343 486 l 360 517 b 404 596 374 543 389 569 b 419 619 410 603 415 611 b 426 631 422 624 425 626 b 424 633 425 632 425 632 b 421 633 422 633 422 633 l 419 633 b 372 658 401 638 386 646 b 349 758 343 686 335 719 b 381 840 357 786 368 814 b 421 919 393 867 406 893 l 438 950 b 450 974 442 957 446 965 b 522 1083 471 1013 494 1049 b 567 1128 536 1099 551 1113 b 624 1172 585 1143 603 1158 b 667 1199 638 1182 651 1192 b 775 1240 701 1217 738 1231 b 894 1243 815 1250 854 1251 b 993 1199 929 1235 963 1219 b 1060 1138 1019 1182 1042 1161 b 1107 1051 1079 1111 1094 1083 b 1128 961 1117 1022 1124 992 b 1129 865 1132 929 1132 897 l 1129 861 b 1113 746 1125 822 1119 783 b 1078 619 1103 703 1090 661 b 1042 519 1067 586 1054 553 b 1008 439 1032 493 1021 465 b 968 354 996 410 982 382 l 921 265 b 878 190 907 240 893 215 b 865 171 874 183 869 178 b 850 146 861 163 856 154 b 843 133 847 142 844 138 b 808 82 832 115 821 99 b 799 68 804 78 801 72 b 782 44 793 60 788 51 b 732 -24 767 21 750 -1 b 728 -26 731 -25 729 -25 b 692 -72 715 -42 704 -57 b 668 -99 685 -82 676 -90 b 658 -110 665 -103 663 -106 b 661 -111 660 -111 660 -111 b 663 -112 661 -112 661 -112 l 664 -112 b 679 -111 669 -111 675 -111 l 690 -111 b 836 -122 739 -108 788 -112 b 875 -142 851 -126 864 -132 b 906 -228 901 -165 911 -193 b 878 -282 901 -249 892 -267 b 819 -332 860 -300 840 -317 b 789 -329 808 -342 799 -340 b 776 -287 779 -317 775 -303 b 794 -250 778 -272 783 -260 b 815 -232 801 -244 808 -239 b 817 -231 817 -232 817 -232 z m 465 688 l 467 688 b 471 693 468 689 469 692 b 531 763 489 717 510 740 b 589 814 549 782 568 799 b 650 825 608 826 629 829 b 726 772 682 818 708 800 b 728 717 739 754 739 736 b 719 704 725 713 722 708 b 708 686 715 697 713 692 b 682 644 699 672 690 658 b 664 615 676 635 671 625 b 642 578 657 603 649 590 b 621 543 635 567 628 556 b 604 517 615 535 610 526 b 600 508 603 514 601 511 l 592 494 b 574 464 585 485 579 474 b 561 442 569 457 565 449 b 549 418 557 433 553 425 b 513 349 536 396 524 372 b 506 336 510 344 507 340 b 478 279 496 318 488 299 b 476 276 478 278 478 278 b 433 178 461 244 447 211 b 404 94 424 150 414 122 b 375 -25 392 54 382 15 l 375 -37 b 376 -35 376 -36 376 -36 b 378 -31 378 -33 378 -32 b 407 32 388 -10 397 11 b 431 82 414 49 422 65 l 450 124 b 496 225 465 158 481 192 b 517 271 503 240 510 256 b 547 339 526 293 538 315 b 608 456 567 379 588 418 b 618 474 613 463 615 468 b 624 483 619 476 622 479 b 644 519 631 496 638 507 b 683 535 654 533 667 539 b 726 513 700 532 714 525 b 742 493 733 507 739 500 b 738 464 743 485 742 475 b 729 449 735 460 732 454 b 714 418 725 439 719 428 b 663 321 697 386 681 353 b 569 140 631 261 600 200 b 485 -26 540 85 513 29 l 450 -97 l 449 -99 b 449 -101 449 -100 449 -100 b 447 -106 447 -103 447 -104 b 456 -99 450 -103 453 -100 b 471 -85 461 -94 467 -89 b 532 -25 492 -67 513 -46 l 568 17 b 581 33 572 22 576 28 b 593 49 585 39 589 44 b 638 108 608 68 622 88 l 682 172 b 742 265 703 203 722 233 b 793 354 760 294 776 324 b 831 422 806 376 818 399 b 854 471 839 439 847 456 b 874 508 861 483 867 496 b 917 604 889 540 904 572 b 958 717 932 642 946 679 b 988 833 971 756 981 794 b 994 1006 999 890 1001 947 b 974 1082 992 1032 985 1058 b 946 1115 969 1096 960 1107 b 922 1121 939 1119 931 1121 b 838 1104 893 1122 864 1117 b 728 1035 797 1088 760 1064 b 658 965 704 1013 681 989 l 657 964 b 567 858 624 931 593 896 b 522 793 551 838 538 815 b 489 736 511 775 500 756 b 488 733 488 735 488 735 b 465 688 478 718 471 703 z "},"R":{"ha":1340,"x_min":0,"x_max":0,"o":"m 568 604 b 604 656 581 621 592 638 l 629 692 b 761 857 669 749 714 804 b 896 997 804 906 849 953 b 1097 1149 956 1056 1024 1106 b 1222 1201 1136 1172 1178 1189 b 1335 1200 1260 1213 1297 1213 b 1426 1138 1372 1189 1403 1168 b 1457 1053 1444 1113 1456 1085 b 1435 910 1458 1004 1450 956 b 1324 643 1406 817 1369 728 b 1176 428 1283 565 1235 493 b 1046 319 1139 385 1096 349 b 926 285 1008 299 969 288 b 769 307 872 282 821 289 b 678 343 738 317 707 328 l 676 344 b 674 346 675 344 675 344 b 671 346 672 346 672 346 b 674 338 671 342 672 339 b 675 335 674 336 674 336 l 694 301 b 811 108 732 236 771 172 b 931 -58 847 50 888 -6 b 1071 -214 974 -114 1021 -165 b 1136 -265 1092 -233 1113 -250 b 1160 -276 1143 -269 1151 -274 b 1175 -274 1167 -279 1171 -278 b 1211 -256 1185 -264 1197 -258 b 1221 -254 1215 -254 1218 -254 b 1242 -283 1239 -257 1246 -267 b 1231 -303 1239 -290 1235 -297 b 1138 -358 1207 -335 1176 -353 b 1065 -344 1111 -361 1088 -357 b 985 -292 1036 -331 1010 -312 b 829 -136 929 -243 878 -192 b 676 50 775 -76 725 -14 b 569 218 638 104 601 160 b 525 301 554 244 539 272 b 521 308 524 304 522 307 b 514 300 518 306 515 303 l 514 299 b 376 46 465 215 419 131 b 356 -3 368 31 361 14 b 292 -176 335 -61 314 -119 b 282 -197 288 -183 285 -190 b 279 -201 281 -199 281 -200 b 253 -231 274 -214 265 -224 b 169 -233 225 -246 197 -246 b 147 -192 151 -226 143 -212 b 165 -110 151 -164 158 -136 l 172 -79 b 232 142 190 -6 210 68 b 247 194 238 160 243 176 b 310 403 268 264 289 333 b 383 619 333 475 357 547 b 458 829 407 690 432 760 l 478 879 b 489 906 482 889 485 897 l 489 908 b 492 917 490 910 492 913 b 488 914 490 915 489 915 b 485 911 486 913 486 913 l 483 910 b 424 850 465 889 444 868 b 267 740 376 807 324 769 b 167 715 235 725 201 717 b 43 760 119 714 78 728 b 6 825 24 778 11 799 b 38 874 1 850 13 867 b 114 860 65 879 90 875 b 149 815 132 850 143 835 b 151 811 150 814 150 813 b 157 803 153 807 156 804 b 167 803 158 801 163 801 b 235 829 192 807 214 817 b 299 878 258 843 279 860 b 575 1149 392 965 485 1056 b 597 1179 585 1158 592 1168 b 606 1194 599 1185 601 1190 l 607 1196 b 649 1217 617 1211 631 1218 b 731 1164 685 1214 713 1196 b 736 1128 736 1153 738 1140 b 722 1068 732 1107 728 1088 b 714 1042 719 1060 717 1051 b 651 844 696 975 675 910 b 625 767 643 818 635 793 b 586 654 613 729 600 692 b 568 607 581 639 575 622 z m 892 374 b 921 379 901 372 911 375 b 960 403 935 386 947 393 b 1050 493 994 429 1024 458 b 1151 661 1090 544 1124 601 b 1247 904 1189 740 1221 821 b 1250 911 1249 907 1249 910 b 1283 1039 1264 953 1275 996 b 1290 1082 1286 1054 1289 1068 b 1290 1090 1292 1086 1292 1089 b 1281 1089 1289 1092 1285 1090 b 1268 1086 1276 1088 1272 1088 b 1132 1014 1219 1068 1174 1044 b 996 906 1083 981 1039 944 b 846 757 943 860 893 810 b 686 560 789 694 736 628 b 636 489 668 536 651 513 b 633 482 633 485 632 483 b 639 476 633 481 635 478 b 643 475 640 475 642 475 b 644 474 643 474 643 474 b 715 436 668 463 692 450 b 833 385 753 415 792 397 b 892 374 853 378 872 375 z "},"S":{"ha":875,"x_min":0,"x_max":0,"o":"m 833 1076 b 815 1071 826 1075 821 1072 l 811 1067 b 738 1025 785 1056 760 1042 b 657 961 710 1006 682 985 b 600 900 638 942 618 921 b 540 828 578 876 558 853 b 501 774 526 811 514 793 b 458 707 486 753 472 731 b 414 621 442 679 426 650 b 394 565 407 603 400 585 b 386 501 389 544 386 524 b 396 428 385 476 389 453 b 425 375 403 408 413 392 b 435 361 429 369 432 365 b 446 347 438 357 442 351 b 500 279 463 324 481 301 b 531 242 510 267 521 254 b 586 172 549 219 567 196 b 653 75 610 140 632 108 b 692 -1 667 50 681 25 b 715 -82 703 -26 711 -54 b 694 -214 722 -128 717 -172 b 599 -293 674 -253 642 -279 b 504 -299 568 -301 536 -303 b 444 -290 485 -296 464 -293 b 338 -265 408 -283 374 -275 b 240 -236 306 -256 274 -247 b 157 -208 213 -228 185 -218 b 54 -158 121 -194 86 -179 b 19 -126 40 -150 29 -140 b 18 -97 13 -117 13 -106 b 31 -89 22 -93 26 -90 b 46 -90 36 -89 40 -89 b 76 -101 57 -92 67 -96 b 108 -118 86 -108 97 -114 l 114 -119 b 175 -140 135 -126 154 -135 b 257 -165 201 -149 229 -157 b 376 -190 296 -175 336 -183 b 438 -199 396 -194 417 -197 b 519 -160 471 -199 499 -186 b 553 -61 544 -132 554 -99 b 547 -14 553 -46 551 -29 b 508 82 539 19 526 51 b 442 176 488 115 465 147 l 392 236 l 368 263 b 303 347 344 290 322 318 b 256 438 283 375 267 406 b 229 567 239 479 231 522 b 250 688 231 608 238 649 b 317 824 267 735 289 781 b 382 915 338 856 358 886 b 471 1022 410 951 439 988 b 543 1099 494 1049 518 1074 b 625 1164 569 1122 596 1144 b 707 1211 650 1181 678 1197 b 810 1236 740 1225 774 1233 b 918 1189 853 1239 889 1224 b 950 1122 935 1169 946 1147 b 951 1053 956 1100 956 1076 b 919 958 943 1021 933 989 b 899 914 913 943 907 929 b 889 892 896 907 892 899 l 857 828 b 850 815 854 824 851 819 b 804 731 835 786 819 758 b 799 722 803 726 801 724 b 744 619 779 688 761 654 l 732 588 b 726 576 731 583 729 581 b 724 557 724 571 724 564 b 697 536 722 542 714 535 b 683 543 692 538 688 540 b 650 628 653 565 643 593 b 681 708 658 656 668 682 b 686 719 682 713 683 715 b 711 778 693 740 703 758 b 726 814 717 789 721 801 l 742 846 b 758 883 747 858 753 871 l 779 931 b 790 957 783 940 786 949 l 829 1057 l 828 1060 b 833 1076 831 1064 832 1069 z "},"T":{"ha":715,"x_min":0,"x_max":0,"o":"m 992 1079 b 876 1063 956 1075 917 1071 b 821 1051 857 1060 839 1056 b 794 1046 813 1049 803 1047 b 789 1043 793 1044 790 1044 b 786 1036 788 1040 786 1039 b 775 996 783 1022 779 1010 b 769 978 774 990 772 983 b 757 935 765 964 761 949 b 751 919 756 929 753 924 b 718 810 739 882 729 846 l 713 790 b 700 746 707 775 703 761 b 685 693 694 728 689 711 b 663 625 678 669 671 647 b 651 586 660 613 656 600 b 644 563 649 578 646 571 b 639 542 643 556 640 549 l 624 494 l 611 454 b 606 436 610 449 607 443 b 603 424 606 432 604 428 l 581 346 l 568 306 l 563 283 b 539 201 554 256 547 229 b 519 138 532 181 526 160 b 510 104 517 128 514 117 b 472 -19 497 64 485 22 l 443 -110 b 413 -197 432 -139 422 -168 l 410 -201 b 382 -276 401 -228 392 -253 l 378 -289 b 357 -335 372 -306 365 -321 b 317 -360 347 -350 333 -358 b 261 -354 297 -364 279 -362 b 232 -307 239 -346 229 -331 b 233 -294 232 -303 233 -299 b 239 -249 235 -279 236 -264 b 240 -239 240 -244 240 -242 b 253 -176 244 -218 247 -197 b 260 -151 256 -168 257 -160 b 276 -74 264 -125 271 -100 l 285 -42 b 290 -18 286 -35 289 -26 b 299 14 293 -7 296 3 b 313 69 304 32 308 51 l 322 110 b 336 171 328 131 332 150 b 356 271 343 204 350 238 b 358 306 357 283 358 294 b 360 321 358 311 360 317 b 357 407 363 350 361 378 b 319 513 353 444 340 481 b 269 563 306 532 289 549 b 182 608 242 581 213 596 l 179 611 b 90 651 149 624 119 638 b 4 708 58 665 29 685 b -40 782 -18 729 -33 753 b -26 849 -46 806 -40 828 b 24 893 -12 865 4 881 b 126 956 56 915 90 936 b 174 978 143 963 158 971 b 193 988 181 982 186 985 b 276 1026 221 1001 249 1014 b 383 1072 313 1042 347 1057 b 483 1110 417 1085 450 1097 b 614 1147 526 1124 571 1136 b 736 1172 654 1158 696 1167 b 886 1192 786 1181 836 1186 b 1000 1200 924 1194 963 1197 b 1149 1201 1050 1203 1099 1203 b 1226 1196 1175 1201 1200 1200 b 1297 1181 1250 1193 1275 1188 b 1367 1111 1332 1168 1354 1144 b 1356 1028 1376 1081 1372 1053 l 1353 1024 l 1353 1022 b 1335 1010 1349 1015 1342 1010 b 1314 1017 1328 1008 1321 1011 b 1293 1074 1299 1033 1292 1051 b 1292 1083 1293 1078 1293 1081 b 1283 1086 1290 1085 1288 1086 b 1183 1092 1250 1090 1217 1093 l 1161 1092 b 1138 1090 1153 1092 1144 1090 b 992 1079 1092 1089 1043 1085 z m 449 460 b 454 475 451 465 453 469 l 458 489 b 469 532 461 503 465 518 b 481 568 474 544 476 556 b 503 647 488 596 496 622 b 514 681 507 658 510 669 b 528 724 518 696 524 710 b 565 835 540 761 553 799 b 597 928 575 865 586 897 b 611 967 601 940 607 953 l 618 983 l 621 986 b 622 990 621 988 622 989 b 621 994 622 993 622 994 b 617 997 619 997 618 997 b 611 996 615 997 613 996 l 608 994 l 557 978 b 513 965 543 974 528 969 b 486 954 504 961 494 958 b 399 925 456 946 426 936 b 318 897 371 917 344 907 b 185 836 272 879 228 858 b 114 794 160 822 136 808 b 82 767 103 786 92 778 b 78 760 79 764 76 761 b 85 753 78 757 81 756 b 138 726 101 744 119 735 b 146 725 140 726 143 725 b 156 719 149 722 151 721 b 256 672 190 704 224 689 b 336 615 285 656 313 636 b 390 558 356 597 374 579 b 433 492 408 538 422 515 l 443 471 b 449 460 444 467 447 464 z "},"U":{"ha":1171,"x_min":0,"x_max":0,"o":"m 244 -244 b 269 -221 254 -237 263 -229 b 275 -217 271 -219 274 -218 b 319 -162 290 -199 306 -181 b 344 -126 329 -150 338 -139 b 354 -114 349 -122 351 -118 b 393 -53 368 -93 381 -74 l 399 -44 b 431 7 408 -26 419 -10 b 446 32 435 15 440 24 l 475 82 b 501 124 485 96 493 110 b 508 135 503 128 506 131 b 518 150 511 139 514 144 b 542 189 525 163 533 176 b 592 268 558 215 575 242 b 624 319 603 285 614 301 b 636 338 628 325 632 331 b 644 350 639 342 642 346 b 669 388 653 363 661 375 b 690 421 676 399 683 410 b 715 458 699 433 707 446 b 739 496 722 471 731 483 b 746 507 742 500 744 503 l 751 515 b 781 561 761 531 771 546 b 814 615 792 579 803 597 l 828 638 b 838 653 831 643 833 649 l 871 708 l 949 835 l 974 876 b 997 915 981 889 989 903 b 1018 950 1004 928 1011 939 l 1040 986 b 1050 1003 1044 992 1047 997 b 1065 1026 1054 1010 1060 1018 b 1097 1081 1076 1044 1088 1063 b 1122 1124 1106 1096 1114 1110 b 1131 1139 1125 1129 1128 1135 l 1139 1156 l 1153 1181 b 1188 1197 1161 1193 1172 1199 b 1231 1179 1203 1196 1218 1189 b 1267 1139 1246 1169 1257 1156 b 1269 1078 1276 1118 1276 1099 b 1246 1014 1263 1057 1256 1035 b 1232 979 1242 1001 1236 990 b 1214 932 1225 964 1219 947 l 1183 857 b 1174 833 1179 850 1176 842 b 1146 764 1164 810 1154 788 b 1086 606 1125 711 1104 658 b 1053 507 1075 572 1064 539 l 1047 488 b 1004 347 1032 442 1017 394 b 985 275 997 324 990 299 b 982 265 983 271 983 268 b 963 179 975 236 968 208 b 947 51 956 136 950 94 b 944 -86 943 6 943 -40 b 951 -185 944 -119 947 -153 l 957 -212 b 961 -226 958 -217 960 -222 b 971 -233 961 -231 964 -233 b 1003 -239 982 -232 993 -235 b 1011 -243 1006 -240 1008 -242 b 1011 -278 1022 -254 1022 -265 b 932 -310 990 -301 964 -311 b 871 -281 907 -308 886 -299 b 853 -250 864 -271 857 -261 b 835 -189 844 -229 839 -210 b 821 -94 828 -157 822 -126 b 819 -78 819 -89 819 -83 b 814 63 815 -32 813 15 b 818 201 814 108 815 156 b 831 329 819 244 824 286 b 861 471 839 376 849 424 b 868 493 864 478 867 486 b 881 540 872 508 876 525 b 872 532 876 538 874 535 b 811 436 851 500 832 468 l 803 422 l 767 364 b 746 331 760 353 753 342 b 732 307 742 322 736 314 b 704 261 722 292 714 276 b 697 249 701 257 699 253 b 694 244 696 247 696 246 b 647 168 679 218 663 193 l 639 154 l 603 94 l 569 43 l 542 -1 l 522 -32 b 496 -74 514 -47 506 -61 b 471 -114 488 -87 479 -101 b 450 -146 464 -125 457 -136 l 419 -190 b 371 -251 404 -211 389 -232 b 326 -296 357 -267 342 -282 b 247 -337 304 -317 278 -331 b 172 -325 221 -342 196 -337 b 144 -297 160 -318 151 -310 b 128 -250 135 -283 129 -268 b 126 -129 124 -210 122 -169 b 144 -17 131 -92 136 -54 b 163 61 149 10 156 35 b 169 89 164 71 167 79 b 181 132 174 103 176 117 b 201 200 188 156 194 178 b 210 225 206 208 208 217 b 217 243 213 232 215 238 b 244 322 225 269 235 296 b 250 338 246 326 249 332 b 290 440 263 372 276 406 b 329 536 303 472 315 504 l 368 628 l 369 629 b 408 717 382 658 396 688 l 439 783 b 453 813 443 793 449 803 b 454 817 454 814 454 815 l 468 844 b 469 849 469 846 469 847 b 469 851 469 850 469 850 b 467 851 468 851 468 851 b 464 850 465 851 465 851 l 463 849 b 376 785 433 829 404 808 b 310 726 353 767 331 747 b 240 653 285 703 261 679 b 194 590 224 633 208 613 l 192 588 b 161 536 181 571 171 554 b 139 478 151 518 144 499 b 132 438 135 465 133 451 b 142 422 131 431 135 425 b 168 394 154 417 163 407 b 158 365 172 382 169 372 b 103 360 140 356 122 353 b 61 379 88 364 74 369 b 19 428 43 392 29 408 b 3 504 7 451 1 478 b 17 579 4 531 8 556 b 50 651 26 604 38 628 b 81 701 60 668 69 685 b 144 782 100 729 121 756 b 204 843 164 803 183 824 l 257 890 b 319 938 278 907 299 922 b 385 982 340 953 363 968 b 467 1029 411 999 439 1014 b 521 1051 485 1039 503 1046 b 582 1049 542 1057 561 1056 b 618 1031 594 1044 607 1039 b 649 1003 629 1022 639 1013 b 676 892 676 971 686 933 b 654 819 669 867 663 843 b 622 740 644 793 633 767 b 613 718 618 733 615 725 b 601 692 608 710 606 701 b 571 629 592 671 581 650 b 556 597 565 618 560 607 b 540 564 550 586 544 575 b 524 529 535 553 529 542 b 517 514 521 524 518 518 b 492 463 508 497 500 481 l 483 446 b 476 429 481 440 478 435 b 453 381 468 413 460 396 b 443 360 450 374 447 367 b 429 328 439 349 433 338 b 411 288 424 315 418 301 l 397 254 b 382 221 392 243 386 232 b 350 143 371 194 360 169 b 340 118 346 135 343 126 l 310 40 b 269 -85 294 0 282 -42 b 246 -206 258 -125 250 -165 b 244 -244 244 -218 243 -231 z "},"V":{"ha":978,"x_min":0,"x_max":0,"o":"m 1518 1092 b 1510 1078 1517 1085 1514 1081 b 1494 1074 1506 1075 1501 1074 b 1461 1082 1482 1074 1471 1076 b 1443 1082 1456 1086 1450 1086 b 1388 1044 1424 1071 1406 1058 b 1328 997 1367 1029 1347 1013 l 1300 972 l 1296 968 l 1271 946 l 1263 938 b 1214 889 1246 922 1229 906 b 1167 839 1199 874 1182 857 b 1156 826 1163 835 1160 831 b 1114 776 1140 811 1126 794 l 1108 771 b 1063 713 1093 753 1078 733 l 1057 707 b 1017 650 1043 689 1029 669 l 1000 628 l 986 608 b 942 543 971 588 957 565 b 907 490 929 526 918 508 l 874 438 b 858 414 868 431 863 422 l 844 392 b 814 343 835 375 824 358 l 764 260 l 733 210 b 674 113 714 178 694 144 b 651 75 667 100 658 88 l 629 39 b 613 13 624 29 618 21 l 596 -15 b 575 -50 589 -26 582 -37 l 550 -89 b 535 -115 544 -97 539 -106 b 519 -140 531 -124 525 -132 b 485 -196 508 -158 497 -178 b 451 -244 475 -212 464 -229 b 413 -290 440 -261 428 -276 b 331 -315 389 -311 363 -319 b 299 -307 319 -314 308 -311 b 256 -254 275 -297 261 -279 b 250 -196 251 -235 250 -215 b 250 -128 249 -174 249 -151 b 258 -22 251 -93 254 -57 b 285 126 267 28 275 78 l 288 147 l 299 200 b 324 317 306 239 314 278 b 350 432 332 354 340 393 b 378 536 358 467 368 501 b 392 590 382 554 388 572 b 403 628 396 603 399 615 b 429 724 413 660 421 692 b 463 857 442 768 453 813 l 464 858 b 465 864 464 860 464 863 b 464 867 465 865 465 865 b 461 868 463 868 463 868 b 458 865 460 867 460 867 l 457 865 b 451 861 456 864 453 863 b 417 836 440 853 429 844 b 379 804 404 826 392 815 b 329 757 361 789 344 774 b 303 729 321 747 313 739 b 243 657 281 706 261 682 b 211 608 232 642 221 625 b 189 565 203 594 196 581 b 160 476 174 538 164 508 b 165 401 156 451 157 426 b 182 382 168 393 174 386 b 222 343 200 372 213 360 b 225 319 226 335 228 326 b 208 301 222 313 217 306 b 157 296 193 294 175 292 b 147 299 154 297 151 297 b 139 300 144 300 142 300 b 46 354 101 310 71 328 b 1 465 18 386 3 422 b 8 538 0 489 3 514 b 51 649 18 576 32 614 l 82 699 b 124 753 94 717 108 735 b 129 760 125 754 128 757 b 174 808 143 776 158 793 b 238 872 194 831 215 851 b 308 931 261 893 285 913 b 371 975 329 946 350 961 b 419 1008 388 986 404 997 l 421 1008 b 483 1035 439 1021 460 1031 b 510 1036 493 1036 501 1038 b 603 985 547 1031 579 1014 b 628 921 618 967 626 944 b 622 818 631 886 629 853 b 596 688 615 775 606 731 b 594 678 594 685 594 682 b 568 575 586 643 578 610 b 540 478 560 543 550 510 b 526 432 536 463 531 447 b 515 392 522 418 519 404 b 504 357 511 381 508 369 b 489 306 500 340 494 324 b 467 226 482 279 474 253 l 461 207 b 422 47 447 154 435 101 b 417 13 421 36 418 25 l 408 -26 l 400 -71 b 392 -118 399 -86 396 -103 l 392 -119 b 390 -122 390 -121 390 -121 b 392 -128 390 -124 390 -126 b 394 -126 393 -128 393 -128 b 394 -125 394 -126 394 -126 l 396 -125 b 399 -118 397 -122 397 -119 l 454 -18 l 499 63 l 513 90 b 531 124 518 101 524 113 b 539 139 533 128 536 133 b 565 188 547 156 556 172 l 585 221 l 596 240 b 629 297 607 260 618 279 b 675 375 644 324 660 349 l 703 419 l 714 436 l 789 556 b 824 608 801 574 813 590 l 838 628 l 885 694 b 894 707 888 699 890 703 l 903 718 b 942 772 915 736 929 754 l 954 788 b 1043 897 983 825 1013 863 b 1121 976 1067 925 1093 951 b 1192 1038 1144 997 1168 1018 b 1289 1111 1224 1064 1256 1088 b 1363 1156 1313 1128 1338 1143 b 1424 1174 1382 1165 1403 1172 b 1489 1153 1449 1175 1471 1168 b 1513 1122 1499 1144 1507 1135 b 1515 1111 1514 1118 1515 1115 b 1518 1101 1517 1107 1517 1104 z "},"W":{"ha":1367,"x_min":0,"x_max":0,"o":"m 828 63 b 851 88 838 71 844 79 l 854 90 b 954 229 889 135 922 181 b 1178 579 1031 344 1104 461 b 1392 892 1243 686 1315 790 b 1500 1014 1425 935 1461 976 b 1564 1065 1521 1032 1542 1050 b 1667 1107 1596 1086 1629 1100 b 1763 1113 1699 1113 1731 1114 b 1849 1085 1794 1111 1822 1101 b 1886 1015 1874 1068 1886 1044 b 1868 990 1888 1001 1881 993 b 1826 997 1853 988 1839 990 b 1799 1029 1813 1004 1803 1015 b 1796 1038 1797 1033 1797 1036 b 1786 1039 1794 1039 1790 1039 b 1679 1004 1747 1039 1711 1028 b 1618 953 1658 988 1638 971 b 1467 789 1564 901 1513 847 b 1372 663 1435 749 1403 706 b 1344 625 1363 650 1354 638 b 1200 411 1294 554 1246 483 b 1147 329 1182 383 1165 356 l 1086 235 b 1074 215 1082 228 1078 222 b 969 64 1040 164 1006 113 b 900 -18 949 35 925 8 b 775 -57 865 -53 824 -67 b 685 15 732 -49 703 -25 b 663 93 674 40 667 67 b 661 240 656 142 656 192 b 671 313 664 264 667 288 b 663 301 667 308 664 304 b 661 299 663 300 663 300 b 644 267 656 289 650 278 b 628 235 639 256 633 244 l 597 179 b 540 74 578 144 558 108 b 511 15 531 54 521 35 b 503 0 508 11 506 6 b 378 -233 463 -79 421 -157 b 328 -303 363 -258 346 -282 b 263 -335 310 -322 289 -333 b 218 -331 247 -336 233 -335 b 157 -268 186 -321 167 -300 b 153 -187 150 -242 149 -215 b 185 -49 160 -140 169 -94 b 186 -46 186 -47 186 -47 b 267 176 210 29 236 103 b 332 353 289 235 311 293 l 342 379 b 475 731 385 497 429 614 b 535 886 496 782 517 835 b 561 957 543 910 551 933 l 586 1021 l 586 1022 b 588 1031 588 1025 588 1028 b 585 1031 586 1031 586 1031 b 581 1028 583 1029 582 1029 l 579 1028 b 493 957 549 1007 519 983 b 481 943 489 953 485 947 b 383 846 447 911 415 879 b 374 836 381 842 378 839 b 244 685 328 788 285 738 b 171 568 217 649 192 610 b 154 501 160 547 154 525 b 156 489 154 497 154 493 b 165 481 157 483 160 481 b 200 476 178 482 189 481 b 239 457 215 474 228 467 b 238 408 254 440 254 424 b 214 396 231 403 222 399 b 135 392 188 388 161 386 b 46 432 101 397 72 411 b 3 531 15 457 1 490 b 22 610 4 558 10 585 b 100 736 44 654 71 696 b 215 879 136 786 175 833 b 304 974 243 913 272 944 l 318 988 b 450 1104 360 1029 404 1068 b 567 1176 488 1132 526 1156 b 621 1193 585 1185 603 1190 b 660 1190 633 1194 647 1193 b 756 1125 700 1181 732 1160 b 772 1053 768 1103 774 1079 b 743 921 768 1007 758 964 b 619 592 706 810 665 700 b 483 256 572 481 526 368 b 424 106 463 206 443 156 b 401 51 417 88 408 69 b 375 -14 392 29 383 7 b 374 -17 375 -15 375 -15 b 372 -25 372 -18 372 -21 b 376 -18 374 -24 375 -21 b 378 -17 378 -18 378 -18 b 507 219 421 63 464 140 l 517 238 b 611 404 547 294 579 350 b 708 582 644 463 676 522 b 731 628 715 597 724 613 b 760 683 740 646 750 665 b 782 735 768 700 775 717 b 789 757 785 742 788 750 b 897 1011 822 843 858 928 b 925 1061 906 1028 915 1044 b 983 1088 939 1082 958 1090 b 1051 1058 1010 1085 1032 1075 b 1069 1003 1068 1043 1074 1025 b 1064 982 1068 996 1067 989 b 1014 836 1049 933 1032 885 b 1001 803 1010 825 1006 814 b 901 474 963 694 929 585 l 885 401 b 858 296 876 367 868 331 b 831 140 846 244 836 193 b 826 71 828 117 826 94 b 828 67 826 69 826 68 z "},"X":{"ha":1089,"x_min":0,"x_max":0,"o":"m 575 328 b 550 300 565 318 557 310 b 543 290 549 296 546 293 b 367 63 482 217 424 140 b 211 -174 313 -14 260 -93 b 151 -269 192 -206 172 -237 b 133 -292 146 -278 140 -285 b 78 -311 118 -308 99 -315 b 32 -294 61 -310 46 -304 b 19 -283 28 -290 24 -287 b 8 -236 7 -269 3 -254 b 21 -206 13 -225 17 -215 b 92 -71 44 -160 68 -115 b 192 83 122 -17 156 35 b 374 321 250 165 311 244 b 508 482 417 375 463 429 b 513 504 514 489 515 496 b 429 854 475 619 447 736 b 425 878 428 863 426 871 b 404 1004 419 919 413 961 l 404 1007 b 404 1013 404 1008 404 1011 b 401 1015 403 1014 403 1014 b 397 1014 400 1015 399 1015 b 393 1010 396 1013 394 1011 b 392 1007 392 1008 392 1008 b 257 804 338 946 292 878 b 207 657 233 758 217 708 b 208 563 201 625 201 594 b 210 554 208 560 208 557 b 211 550 211 553 211 551 b 222 536 213 543 217 539 b 240 521 229 532 236 528 b 235 486 249 508 247 496 b 206 474 225 479 215 475 b 126 486 179 469 153 474 b 64 547 100 497 79 518 b 44 621 53 571 46 594 b 58 738 43 661 47 700 b 139 921 76 803 104 864 b 260 1083 174 979 214 1033 l 263 1086 b 318 1140 281 1106 299 1124 b 396 1169 340 1158 367 1168 b 460 1157 418 1171 439 1167 b 547 1053 506 1136 535 1101 b 574 951 557 1019 565 986 b 582 919 576 942 579 931 b 611 781 592 874 601 826 b 615 760 613 774 614 767 b 643 643 622 721 632 682 b 644 639 643 642 643 640 l 644 638 b 650 639 646 638 649 638 b 653 643 651 640 651 642 l 654 644 b 792 768 697 689 743 731 b 936 875 839 806 888 840 b 1153 1017 1007 925 1079 972 b 1272 1078 1192 1040 1232 1060 b 1324 1094 1289 1085 1306 1090 b 1381 1086 1346 1099 1365 1096 b 1414 1053 1396 1076 1407 1065 b 1421 1018 1419 1042 1422 1031 b 1394 997 1419 1003 1410 996 b 1375 1004 1388 999 1381 1000 b 1353 1006 1368 1010 1360 1010 b 1279 965 1328 993 1303 981 b 968 739 1171 897 1067 821 b 889 665 940 715 914 692 b 749 522 840 619 794 571 l 704 475 b 700 457 699 471 697 464 b 758 313 718 408 738 360 b 931 26 804 211 863 115 b 1035 -94 964 -15 999 -56 b 1115 -175 1060 -124 1086 -150 b 1149 -203 1125 -185 1136 -194 b 1167 -206 1154 -207 1160 -207 b 1188 -207 1174 -204 1181 -204 b 1201 -228 1197 -211 1201 -218 b 1194 -247 1200 -235 1199 -240 b 1135 -287 1179 -268 1160 -282 b 1082 -279 1117 -290 1099 -287 b 1025 -244 1061 -269 1043 -258 b 958 -186 1001 -226 979 -207 b 833 -60 915 -146 874 -103 b 676 140 775 3 722 69 b 582 317 640 197 608 256 b 581 319 582 318 582 318 b 575 328 579 322 578 325 z "},"Y":{"ha":943,"x_min":0,"x_max":0,"o":"m 578 258 l 572 250 b 563 235 569 244 567 239 b 507 154 544 207 526 181 b 432 115 488 129 463 117 b 339 175 388 114 357 135 b 314 265 326 204 318 235 b 308 404 308 311 307 358 b 331 619 311 476 318 549 b 382 860 343 700 361 781 b 410 975 392 899 400 938 b 419 1017 414 989 417 1003 l 419 1018 b 421 1022 421 1019 421 1021 b 421 1026 421 1024 421 1025 b 400 1011 414 1022 407 1017 l 397 1008 b 226 824 332 954 275 892 b 160 690 197 783 175 739 b 149 606 151 663 147 635 b 154 572 150 594 151 583 b 169 554 157 564 163 558 b 200 533 181 549 190 542 b 214 515 206 529 210 522 b 200 481 221 500 217 488 b 169 478 190 478 179 476 b 35 561 113 485 67 513 b 8 642 19 586 11 613 b 35 789 3 693 11 743 b 113 919 56 835 82 879 b 256 1078 156 976 203 1029 b 386 1182 296 1115 340 1150 b 419 1201 396 1189 407 1196 b 486 1206 440 1211 463 1213 b 582 1106 538 1190 569 1157 b 583 1035 586 1082 586 1058 b 542 813 574 960 560 886 b 515 697 533 774 525 735 b 492 597 507 664 499 631 b 457 403 476 532 465 468 b 446 258 450 354 446 307 l 446 246 b 451 250 447 247 450 249 b 454 254 453 251 453 253 b 456 256 454 256 454 256 b 540 394 485 301 514 347 b 660 585 578 460 618 522 b 763 728 692 633 726 682 b 854 864 794 771 825 817 b 1056 1147 914 963 982 1057 b 1101 1200 1071 1165 1086 1183 b 1150 1214 1115 1214 1132 1218 b 1218 1163 1179 1207 1203 1189 b 1215 1111 1228 1144 1228 1128 b 1126 983 1185 1069 1156 1026 b 949 694 1064 889 1006 793 b 806 413 896 603 849 508 b 715 181 772 336 742 260 b 668 -7 694 119 679 57 b 646 -167 658 -61 650 -114 b 643 -254 643 -196 642 -225 l 643 -258 b 644 -269 643 -264 643 -268 b 650 -275 646 -272 647 -274 b 660 -278 651 -276 656 -276 b 679 -285 667 -279 674 -281 b 685 -317 690 -294 692 -304 b 658 -342 678 -326 668 -335 b 585 -357 635 -356 611 -361 b 535 -314 560 -353 543 -337 b 521 -247 528 -293 522 -271 b 519 -174 519 -224 518 -199 b 526 -60 521 -136 522 -97 b 563 179 536 19 547 100 b 567 201 564 186 565 194 l 575 240 b 579 257 576 246 578 251 b 578 258 578 257 578 257 z "},"Z":{"ha":853,"x_min":0,"x_max":0,"o":"m 847 944 b 844 946 846 946 846 946 b 842 944 843 946 843 946 l 840 944 l 701 914 b 547 881 650 904 599 893 b 431 863 508 872 469 867 b 363 857 407 860 385 858 b 232 878 317 853 274 860 b 131 1008 176 904 143 947 b 133 1038 129 1018 129 1028 b 174 1058 140 1057 154 1064 b 203 1039 186 1054 196 1049 b 240 1017 213 1026 225 1019 b 322 1006 267 1010 294 1007 b 408 1003 351 1003 379 1001 b 486 1007 435 1004 460 1006 b 503 1008 492 1008 497 1008 b 574 1015 526 1010 550 1013 b 688 1031 611 1019 650 1025 l 840 1056 b 936 1072 872 1061 904 1067 b 949 1075 940 1074 944 1074 b 967 1079 956 1076 961 1078 b 994 1074 979 1083 988 1082 b 1013 1054 1000 1067 1006 1061 b 1033 1031 1019 1047 1026 1039 b 1049 994 1040 1019 1046 1007 b 1043 958 1050 982 1047 969 b 1003 886 1032 932 1018 908 b 856 674 956 814 907 743 b 647 401 788 582 718 492 b 643 396 646 400 644 397 b 497 214 594 335 546 274 b 358 49 451 158 406 103 l 244 -82 b 201 -126 231 -97 217 -111 b 183 -146 196 -133 190 -139 b 149 -187 171 -160 160 -174 l 149 -189 b 147 -189 147 -189 147 -189 b 146 -192 146 -190 146 -190 b 149 -193 147 -193 147 -193 b 151 -193 150 -193 150 -193 l 153 -192 l 206 -181 b 293 -160 235 -174 264 -167 b 414 -139 333 -150 374 -143 l 458 -133 l 531 -125 b 585 -121 549 -124 567 -122 b 629 -117 600 -119 614 -118 b 736 -108 664 -112 700 -110 b 861 -112 778 -106 819 -107 b 932 -143 888 -115 911 -125 b 949 -171 940 -150 946 -160 b 929 -196 953 -186 946 -194 b 911 -192 922 -197 917 -196 b 867 -182 897 -185 882 -181 b 793 -185 843 -182 818 -183 l 789 -185 b 736 -189 771 -186 754 -187 b 725 -190 732 -190 729 -190 b 619 -201 690 -193 654 -197 b 535 -212 590 -206 563 -208 b 501 -217 524 -214 513 -215 b 400 -233 467 -222 433 -228 b 378 -237 393 -235 385 -236 b 215 -267 324 -247 269 -257 l 157 -278 b 101 -282 139 -282 119 -283 b 18 -242 68 -281 40 -267 b 7 -190 6 -226 3 -210 b 24 -143 10 -174 15 -158 b 86 -46 43 -110 64 -78 l 88 -44 b 214 119 128 13 171 67 b 240 151 224 131 232 142 b 322 257 268 186 296 222 l 358 304 b 604 624 440 410 522 517 b 610 631 606 625 608 628 l 774 844 b 832 921 793 871 813 896 b 844 939 836 926 840 932 l 846 939 b 847 942 847 940 847 940 b 847 944 847 943 847 943 z "},"[":{"ha":486,"x_min":0,"x_max":0,"o":"m 194 11 b 76 22 156 11 117 15 b 43 33 65 24 54 28 b 1 96 17 46 3 67 b 8 179 0 124 1 151 b 54 336 21 232 38 285 b 151 651 88 440 119 546 b 203 783 165 696 182 742 b 228 825 211 797 219 811 b 297 867 244 850 267 865 b 396 871 331 869 363 872 b 454 847 418 871 439 864 b 469 818 463 839 468 829 b 451 793 472 804 465 794 b 356 781 419 789 388 785 b 333 775 349 779 340 776 b 315 761 325 772 319 768 b 297 724 308 749 303 736 b 229 531 272 660 250 594 b 140 267 200 442 172 353 b 94 126 124 221 106 175 b 89 86 92 114 89 100 b 100 74 89 76 90 76 b 179 63 126 68 153 65 b 214 61 192 61 203 60 b 238 56 222 61 229 60 b 254 44 243 53 250 50 b 247 15 264 33 261 21 b 224 11 239 13 232 13 b 217 11 222 11 219 11 b 194 11 210 11 203 11 z "},"\\":{"ha":653,"x_min":0,"x_max":0,"o":"m 0 857 b 43 910 0 879 22 906 b 65 904 51 911 58 910 b 76 893 69 901 74 897 b 167 782 107 856 139 821 b 317 579 217 715 267 647 b 603 188 413 449 507 318 b 628 153 611 175 621 165 b 619 110 639 136 636 122 b 572 94 606 99 590 94 b 538 108 558 94 546 99 b 524 124 532 114 528 119 b 442 235 497 161 469 199 b 296 432 393 300 344 365 b 97 700 231 521 164 610 b 8 833 65 743 36 788 b 0 857 4 840 0 849 z "},"]":{"ha":486,"x_min":0,"x_max":0,"o":"m 276 872 b 394 861 317 871 356 868 b 428 850 407 858 418 856 b 471 788 456 838 469 817 b 464 704 472 760 471 732 b 418 546 450 651 435 599 b 321 232 383 442 353 338 b 268 99 307 186 290 142 b 244 58 261 85 253 72 b 174 15 228 32 206 18 b 76 11 142 14 108 10 b 18 36 54 13 33 18 b 3 65 10 44 4 54 b 21 90 0 79 7 88 b 115 103 53 94 85 99 b 139 108 124 104 132 107 b 157 122 147 110 153 115 b 175 160 164 133 169 147 b 243 353 200 224 222 288 b 332 617 271 442 300 529 b 376 756 349 663 365 708 b 383 796 381 769 383 782 b 372 808 382 806 382 807 b 292 821 346 814 319 818 b 258 822 281 821 269 822 b 235 826 250 821 242 824 b 218 839 228 829 222 833 b 225 867 208 850 211 863 b 247 871 232 869 240 871 b 254 872 250 871 253 872 b 276 872 263 872 269 872 z "},"^":{"ha":318,"x_min":0,"x_max":0,"o":"m 154 1047 b 196 1028 169 1046 183 1039 b 226 992 208 1018 218 1006 b 297 867 254 953 278 911 b 303 853 300 863 301 857 b 288 832 304 842 299 833 b 267 836 281 831 274 833 b 240 861 256 842 247 850 b 213 907 231 876 222 892 b 183 950 203 921 193 936 b 171 951 178 957 176 957 b 82 844 139 917 108 883 b 47 829 72 829 64 826 b 8 857 31 833 17 843 b 8 893 0 869 0 881 b 33 925 15 904 24 915 b 108 1018 60 954 83 986 b 128 1038 115 1025 121 1032 b 154 1047 135 1044 143 1047 z "},"_":{"ha":622,"x_min":0,"x_max":0,"o":"m 221 25 b 503 25 264 25 460 25 b 567 26 524 25 546 26 b 599 11 581 28 592 22 b 608 -19 604 1 608 -8 b 592 -39 608 -31 603 -37 b 546 -44 576 -42 561 -43 b 246 -51 496 -49 447 -50 b 88 -56 193 -53 140 -56 b 46 -56 74 -56 60 -57 b 29 -51 40 -56 33 -54 b 0 -1 11 -39 0 -22 b 19 21 0 13 6 19 b 33 22 24 22 28 22 b 175 25 81 25 128 25 b 221 25 190 25 206 25 b 221 25 221 25 221 25 z "},"`":{"ha":243,"x_min":0,"x_max":0,"o":"m 0 1071 b 32 1122 0 1090 14 1114 b 61 1110 46 1128 56 1125 b 74 1092 64 1103 68 1097 b 143 1024 96 1068 119 1044 b 217 968 167 1004 192 986 b 228 946 225 963 229 956 b 203 910 225 929 217 918 b 179 908 196 906 188 904 b 158 919 172 913 165 915 b 24 1026 110 950 65 986 b 7 1047 17 1032 11 1040 b 0 1071 1 1056 0 1063 z "},"a":{"ha":428,"x_min":0,"x_max":0,"o":"m 114 172 b 103 154 110 165 107 160 b 33 42 79 117 57 79 b 13 15 28 32 21 22 b -64 -6 -10 -6 -35 -11 b -100 29 -82 -1 -94 11 b -106 60 -103 39 -104 50 b -106 138 -107 86 -107 111 b -68 304 -100 194 -87 250 b -14 419 -54 344 -37 383 b 28 464 -1 436 13 451 b 143 479 64 493 103 496 b 188 451 160 472 175 463 b 192 449 189 451 190 450 b 200 450 196 446 199 447 b 214 479 204 460 208 469 b 222 494 217 485 219 489 b 260 510 232 507 244 513 b 313 478 282 506 299 496 b 319 440 321 467 322 454 b 303 392 315 424 308 408 b 221 144 272 310 244 228 b 208 94 215 128 213 111 b 210 85 208 92 207 89 b 217 94 213 88 215 92 b 386 363 275 183 332 272 b 442 457 406 394 424 425 b 454 471 444 463 449 468 b 476 472 463 474 469 474 b 503 460 486 471 494 467 b 507 435 511 453 513 444 b 468 361 494 410 481 386 b 297 78 414 265 356 172 b 257 24 285 60 272 40 b 204 -11 243 6 226 -7 b 122 33 176 -15 138 -6 b 111 85 115 50 113 67 b 115 161 110 111 111 136 b 114 172 115 164 117 168 z m 11 157 b 13 156 11 157 11 157 b 18 165 14 160 17 163 b 129 328 54 221 90 275 b 158 369 139 342 149 356 b 158 382 164 376 164 376 b 144 399 154 388 149 393 b 129 400 138 406 136 406 b 124 396 128 399 125 397 b 85 346 107 382 94 364 b 21 192 56 297 36 246 b 11 157 17 181 14 168 z "},"b":{"ha":550,"x_min":0,"x_max":0,"o":"m 150 439 b 160 444 156 440 157 443 b 193 467 171 453 182 460 b 290 474 225 485 257 485 b 365 379 335 458 357 425 b 361 311 368 357 364 333 b 358 294 361 306 360 300 b 367 297 363 293 365 296 b 469 381 401 324 436 351 b 550 453 496 404 524 428 b 568 475 557 460 564 467 b 585 483 571 482 578 483 b 615 467 597 482 607 476 b 617 439 622 457 622 449 b 601 419 613 432 607 425 b 526 350 576 396 551 372 b 399 244 485 314 443 278 b 342 204 381 229 361 217 b 329 188 336 200 332 194 b 279 74 317 149 301 110 b 239 17 268 53 256 33 b 144 -8 211 -8 181 -17 b 106 15 129 -6 115 3 b 60 81 89 36 74 58 b 44 117 53 92 47 104 b 43 131 43 121 43 126 b 58 153 43 142 49 149 b 78 156 65 154 71 156 b 153 174 104 156 128 164 b 200 194 169 179 185 188 b 213 210 207 199 211 203 b 232 300 221 240 225 269 b 246 375 239 325 244 350 b 247 394 247 382 247 388 b 242 397 247 399 246 400 b 229 392 238 396 233 393 b 151 325 200 374 175 351 b 61 196 114 286 88 242 b 19 94 43 164 29 129 b -3 38 13 75 4 57 b -50 6 -11 15 -28 7 b -81 13 -61 6 -71 7 b -99 42 -93 18 -100 28 b -87 132 -99 72 -93 101 b -31 343 -74 203 -53 274 b 68 611 -1 433 32 524 b 147 793 93 672 118 733 b 158 814 150 800 154 807 b 188 826 164 824 175 829 b 251 774 218 821 240 803 b 253 744 256 764 254 754 b 231 658 249 715 239 688 b 154 453 210 588 181 521 b 150 439 153 449 151 444 z m 179 114 b 146 101 167 110 156 106 b 144 94 142 100 142 97 b 158 79 149 89 153 85 b 165 81 161 76 164 78 b 179 114 171 92 175 101 z "},"c":{"ha":403,"x_min":0,"x_max":0,"o":"m 7 126 b 14 72 7 108 8 90 b 25 50 17 64 19 57 b 49 42 32 39 36 38 b 99 76 67 50 85 61 b 146 131 117 93 131 111 b 403 447 233 235 317 342 b 419 468 408 454 414 461 b 442 476 425 475 433 478 b 472 461 454 475 464 469 b 474 433 481 451 482 443 b 428 371 458 413 443 392 b 294 204 383 315 340 258 b 164 54 253 153 211 100 b 94 4 143 35 122 17 b 13 -7 68 -7 42 -12 b -68 56 -25 0 -51 22 b -92 135 -82 81 -89 107 b -4 431 -103 244 -75 343 b 67 489 15 454 38 475 b 168 488 100 504 135 503 b 189 476 175 485 182 481 b 199 479 193 474 196 475 b 211 494 201 485 206 489 b 246 503 221 503 233 507 b 279 483 260 500 269 493 b 283 444 290 469 292 460 b 239 361 268 417 253 389 b 204 279 225 335 214 307 b 201 257 201 272 199 265 b 194 243 204 251 200 246 b 168 239 186 238 178 238 b 154 243 164 240 158 242 b 131 286 135 251 126 265 b 147 350 133 308 140 329 b 164 400 153 367 158 383 b 167 407 165 401 165 404 b 161 413 167 411 167 413 b 149 407 157 411 153 410 b 100 369 129 399 114 385 b 43 278 75 342 58 311 b 8 154 25 239 14 197 b 7 126 7 146 7 136 z "},"d":{"ha":453,"x_min":0,"x_max":0,"o":"m 142 186 b 104 140 129 171 117 156 b 35 54 81 111 58 82 b 3 24 25 43 15 31 b -75 18 -22 7 -49 6 b -99 46 -87 24 -94 33 b -104 79 -103 57 -104 68 b -106 115 -106 92 -106 103 b -51 347 -103 196 -85 274 b 25 468 -32 392 -7 432 b 51 493 33 476 42 485 b 153 510 82 517 117 521 b 219 465 179 501 201 486 b 224 461 221 464 222 463 b 225 461 224 461 224 461 b 235 488 228 469 232 479 b 350 760 265 582 307 672 b 371 803 357 775 364 789 b 414 824 381 824 393 829 b 464 789 435 818 451 806 b 471 742 474 775 476 758 b 457 703 467 728 463 715 b 372 489 425 632 400 560 b 271 206 336 396 303 301 b 240 113 260 175 250 143 b 238 101 239 108 238 106 b 243 107 242 103 242 106 b 404 347 299 186 351 267 b 465 436 425 376 444 407 b 478 451 469 442 474 447 b 500 463 483 460 492 463 b 532 453 513 463 522 460 b 535 428 540 446 542 438 b 444 290 503 383 475 336 b 335 125 408 235 372 179 b 276 40 317 96 297 67 b 243 8 267 29 256 17 b 178 -6 222 -4 201 -8 b 129 39 153 -1 135 14 b 125 81 125 53 125 67 b 140 174 125 113 132 143 b 143 186 142 178 142 182 b 142 186 142 186 142 186 z m 8 140 b 14 146 10 142 13 144 b 157 319 63 203 110 261 b 190 360 168 332 179 346 b 189 374 196 367 196 368 b 179 386 186 378 182 382 b 151 417 169 396 161 407 b 142 418 147 422 147 422 b 139 415 140 417 140 417 b 82 338 117 392 99 365 b 42 253 67 310 54 282 b 8 140 26 217 15 179 z "},"e":{"ha":403,"x_min":0,"x_max":0,"o":"m -94 181 b -11 422 -92 269 -68 351 b 54 482 7 446 28 467 b 126 500 76 494 100 503 b 211 458 160 496 188 482 b 249 376 233 435 246 408 b 201 243 251 325 235 282 b 111 172 175 214 144 192 b 43 156 90 161 67 157 b 17 153 35 154 25 154 b 7 143 8 153 7 151 b 7 110 6 132 6 121 b 13 74 7 97 10 86 b 26 47 15 64 19 56 b 46 42 32 39 36 38 b 88 67 61 47 75 56 b 125 106 103 78 114 90 b 376 414 210 207 293 311 b 417 465 390 432 404 449 b 446 476 425 475 435 479 b 469 464 456 474 463 469 b 474 432 481 454 482 444 b 415 357 454 407 435 382 b 271 175 368 296 321 235 b 165 56 238 133 203 93 b 114 14 150 40 133 26 b 40 -8 92 0 67 -8 b -62 44 -3 -10 -37 7 b -90 125 -78 69 -86 96 b -94 181 -93 143 -96 161 z m 150 407 b 143 406 147 407 146 407 b 111 382 132 399 121 390 b 58 308 89 360 72 335 b 19 215 42 278 28 247 b 19 206 18 211 17 208 b 29 206 22 203 26 206 b 65 229 43 211 54 218 b 147 379 107 271 135 321 b 150 407 149 388 150 397 z "},"f":{"ha":340,"x_min":0,"x_max":0,"o":"m 79 272 b 115 294 92 279 104 288 b 300 421 178 335 238 379 b 351 460 317 433 335 446 b 408 453 368 471 396 468 b 408 429 415 444 415 438 b 372 399 397 418 385 408 b 236 297 326 364 282 331 b 156 240 210 278 183 258 b 97 201 136 228 117 215 b 94 185 89 194 89 194 b 126 115 110 164 121 142 b 122 -15 138 72 136 28 b 85 -99 113 -44 99 -71 b 8 -239 60 -146 35 -192 b -21 -289 -1 -256 -11 -272 b -68 -350 -35 -311 -50 -331 b -150 -382 -89 -375 -118 -386 b -199 -337 -176 -378 -192 -361 b -201 -269 -206 -315 -204 -292 b -158 -58 -194 -197 -176 -128 b -76 224 -133 36 -106 129 b -4 426 -56 292 -29 358 b 39 539 8 465 22 503 b 65 594 47 558 56 576 b 106 614 75 610 88 617 b 157 586 126 610 143 600 b 169 538 171 572 174 556 b 164 518 168 531 165 525 b 99 333 143 457 121 394 b 78 274 92 314 85 293 b 79 272 79 274 79 272 z m -87 -258 b -82 -254 -83 -257 -83 -256 b 15 -76 -47 -196 -14 -137 b 39 -17 24 -57 32 -37 b 35 124 53 31 53 78 b 29 132 33 126 33 131 b -87 -258 -14 3 -53 -126 z "},"g":{"ha":486,"x_min":0,"x_max":0,"o":"m 225 471 b 231 483 228 475 229 479 b 264 507 235 503 249 508 b 331 469 292 506 314 493 b 338 428 340 457 340 443 b 313 315 331 390 322 353 b 299 268 308 299 303 283 b 299 261 299 265 297 264 b 306 267 301 261 304 265 b 443 399 350 313 396 356 b 501 454 463 417 482 435 b 513 461 504 457 507 460 b 557 442 528 464 550 454 b 557 424 561 435 561 429 b 546 410 553 419 550 414 b 474 339 522 386 499 363 b 375 239 442 306 407 272 b 250 108 333 196 292 151 b 242 94 246 104 243 100 b 149 -187 208 1 178 -93 b 108 -300 138 -225 124 -264 b 83 -342 103 -315 94 -329 b 38 -367 71 -354 56 -362 b -7 -367 24 -369 8 -371 b -47 -346 -22 -364 -36 -357 b -89 -287 -64 -328 -78 -308 b -107 -250 -94 -275 -100 -262 b -103 -171 -119 -222 -118 -196 b -56 -106 -90 -147 -74 -126 b 17 -24 -33 -78 -8 -50 b 24 -14 19 -21 22 -19 b -10 -22 13 -18 1 -22 b -71 -6 -32 -24 -53 -19 b -96 33 -85 4 -93 17 b -100 94 -100 53 -101 74 b -25 386 -90 196 -62 293 b 31 485 -11 422 6 456 b 53 506 38 493 44 500 b 140 522 79 526 108 532 b 217 479 169 514 194 499 b 225 471 219 476 222 474 z m 22 107 b 25 107 24 107 24 107 b 33 119 28 111 31 115 b 115 239 63 157 90 199 b 182 363 140 279 163 321 b 185 376 185 367 186 371 b 172 413 182 389 178 401 b 163 429 169 418 167 424 b 153 429 160 432 157 433 b 142 419 149 426 144 424 b 99 346 122 397 110 371 b 39 172 74 289 56 232 b 22 107 32 151 26 129 z m 1 -262 b 47 -107 18 -211 33 -158 b 43 -107 44 -106 44 -107 b -12 -178 24 -129 4 -153 b -24 -201 -17 -185 -21 -193 b -24 -218 -25 -207 -25 -212 b 1 -262 -17 -233 -8 -249 z "},"h":{"ha":507,"x_min":0,"x_max":0,"o":"m 119 376 b 201 461 144 407 172 435 b 260 499 218 476 236 492 b 358 479 296 513 329 504 b 381 410 379 461 383 436 b 351 299 375 372 365 335 b 304 167 336 254 321 211 b 301 160 303 165 303 164 b 308 165 306 161 307 164 b 354 238 324 189 339 214 b 506 453 406 310 456 381 b 518 471 510 458 514 464 b 549 486 525 482 535 486 b 572 478 557 485 565 483 b 578 451 582 471 585 463 b 546 401 567 435 557 418 b 439 239 510 347 475 293 b 364 124 414 201 390 161 b 315 51 347 100 332 75 b 276 6 304 35 292 19 b 201 -17 256 -14 229 -21 b 157 26 175 -12 163 1 b 156 99 153 51 151 75 b 182 204 163 135 172 169 b 239 375 199 263 219 319 b 242 383 240 378 240 379 b 229 374 236 381 233 376 b 171 311 208 354 190 332 b 35 107 118 249 74 179 b 7 42 24 86 13 65 b 1 26 6 36 3 32 b -31 -1 -3 10 -15 1 b -74 0 -44 -6 -60 -6 b -97 33 -89 7 -97 17 b -86 124 -99 64 -92 94 b -56 233 -78 161 -65 197 b 3 456 -36 308 -15 382 b 57 639 19 517 38 578 b 99 772 72 683 85 728 b 107 796 101 781 104 789 b 147 821 114 814 129 822 b 217 781 176 818 200 803 b 226 736 226 767 229 753 b 206 658 221 710 213 685 b 131 413 183 576 157 494 b 119 376 126 400 124 388 z "},"i":{"ha":267,"x_min":0,"x_max":0,"o":"m 33 119 b 57 151 43 129 50 140 b 182 342 99 215 140 279 b 256 449 206 378 229 414 b 275 474 263 457 269 465 b 299 483 281 481 289 483 b 326 472 308 483 318 479 b 329 447 335 465 336 457 b 246 324 299 407 272 365 b 100 94 197 247 146 172 b 57 39 88 74 74 54 b -12 10 38 19 15 8 b -31 11 -19 10 -25 10 b -74 54 -53 18 -68 32 b -78 88 -76 65 -78 76 b -69 192 -79 122 -75 157 b -36 335 -61 240 -53 288 b 17 475 -19 382 -3 429 b 31 503 21 485 25 494 b 64 522 38 517 49 524 b 136 483 94 521 119 508 b 140 444 144 471 144 458 b 115 369 133 419 125 394 b 58 214 96 318 75 267 b 33 119 49 183 39 153 z m 79 626 b 82 654 78 638 79 646 b 125 790 92 701 107 746 b 135 808 128 796 131 803 b 163 824 142 818 151 824 b 232 785 193 822 215 810 b 235 753 239 774 239 764 b 217 717 231 740 224 728 b 168 614 197 685 181 650 b 165 600 167 608 167 604 b 167 585 164 594 164 589 b 147 556 175 567 161 557 b 136 557 143 556 139 556 b 92 585 118 561 103 571 b 79 626 82 597 78 613 z "},"j":{"ha":299,"x_min":0,"x_max":0,"o":"m 97 281 b 113 294 103 286 107 290 b 203 378 143 322 172 350 b 293 463 233 406 263 435 b 301 468 296 464 299 467 b 354 469 318 482 338 482 b 356 440 365 460 367 451 b 169 261 294 381 233 321 b 63 161 135 228 99 194 b 50 140 57 156 53 149 b -15 -57 28 75 7 8 b -97 -264 -40 -126 -65 -197 b -118 -304 -103 -278 -108 -292 b -214 -342 -142 -336 -174 -349 b -240 -329 -224 -340 -233 -336 b -264 -299 -250 -321 -258 -311 b -300 -224 -278 -275 -289 -250 b -289 -129 -312 -190 -310 -158 b -279 -115 -286 -125 -283 -119 b -215 -39 -260 -89 -239 -64 b -108 76 -181 0 -144 38 b -97 97 -103 82 -100 89 b -60 235 -85 143 -72 189 b 10 460 -37 310 -15 385 b 22 494 14 471 18 483 b 65 521 28 514 42 524 b 119 494 86 518 104 508 b 136 443 133 481 139 463 b 118 364 131 415 124 389 b 99 292 111 339 104 315 b 97 281 97 289 96 285 z m -137 -49 b -144 -53 -142 -49 -143 -51 b -185 -101 -158 -69 -172 -85 b -219 -151 -199 -117 -210 -133 b -222 -190 -226 -164 -228 -176 b -207 -224 -218 -201 -212 -214 b -196 -242 -203 -229 -200 -235 b -137 -49 -175 -176 -153 -114 z m 125 561 b 88 574 110 563 97 565 b 78 596 81 579 76 586 b 81 615 78 603 79 610 b 113 736 92 656 101 696 b 128 799 117 757 119 778 b 135 817 131 804 132 811 b 168 839 142 832 151 839 b 217 821 186 839 203 832 b 229 781 229 810 233 797 b 213 736 225 765 219 750 b 168 626 196 700 182 664 b 151 581 163 611 157 596 b 125 561 146 567 136 561 z "},"k":{"ha":538,"x_min":0,"x_max":0,"o":"m 106 329 b 136 364 117 340 126 353 b 260 478 174 406 215 444 b 301 514 275 489 289 501 b 346 528 314 528 329 531 b 378 515 358 526 369 522 b 385 475 393 503 396 492 b 349 429 374 458 361 444 b 286 357 329 404 308 381 b 275 344 282 354 279 349 b 264 311 268 335 264 324 b 271 219 263 281 267 250 b 292 93 278 178 285 135 b 294 78 293 88 293 83 b 303 85 300 79 301 82 b 343 144 317 104 331 124 b 449 306 375 199 413 251 b 529 426 475 346 501 386 b 544 451 535 435 540 443 b 599 460 554 469 585 471 b 603 440 607 454 608 449 b 578 396 596 425 588 410 b 438 174 531 322 485 249 b 358 58 413 135 386 96 b 321 17 347 43 335 29 b 254 0 301 1 279 -4 b 214 26 238 1 224 11 b 185 93 201 47 192 69 b 160 203 172 129 165 165 b 153 258 156 221 153 240 b 150 265 153 261 153 264 b 125 236 140 257 132 246 b 38 107 92 196 64 153 b 26 81 33 99 29 90 b 3 22 21 61 13 42 b -79 -4 -14 -7 -49 -18 b -99 28 -92 3 -100 13 b -94 74 -99 43 -97 58 b -49 256 -81 135 -62 194 b 28 538 -25 350 0 444 b 89 722 47 600 68 661 b 111 788 96 744 104 765 b 118 804 113 793 115 799 b 158 828 126 822 138 831 b 224 785 186 824 208 808 b 231 743 232 772 235 758 b 214 686 225 724 219 706 b 161 521 199 631 179 575 b 106 339 143 460 125 399 b 106 329 106 336 103 333 z "},"l":{"ha":347,"x_min":0,"x_max":0,"o":"m -60 110 b -44 240 -60 154 -53 197 b 35 568 -22 350 6 460 b 83 714 49 618 64 665 b 115 799 94 742 104 769 b 164 822 125 825 144 828 b 222 778 189 815 208 800 b 229 733 232 764 233 750 b 215 688 226 718 221 703 b 197 635 210 671 203 653 b 176 565 192 611 185 588 b 99 308 149 479 124 394 b 64 190 86 268 75 229 b 44 89 54 157 47 124 b 43 51 43 76 43 64 b 44 46 43 50 43 47 b 51 49 47 44 49 47 b 106 107 71 67 89 86 b 175 207 131 139 153 174 b 317 411 222 275 269 343 b 349 460 328 426 339 443 b 403 471 360 479 385 485 b 408 450 410 465 413 458 b 388 414 401 438 394 426 b 192 125 322 318 260 221 b 107 25 167 89 139 54 b 69 -4 96 14 83 4 b 6 -17 50 -17 28 -21 b -47 28 -21 -14 -37 4 b -57 71 -53 42 -56 56 b -60 110 -58 83 -61 97 z "},"m":{"ha":710,"x_min":0,"x_max":0,"o":"m 351 304 b 329 275 343 294 336 285 b 247 140 300 232 274 186 b 217 86 238 122 228 104 b 217 85 217 86 217 85 b 131 64 197 53 163 44 b 115 88 122 69 117 76 b 114 124 113 99 113 111 b 135 238 117 163 124 200 b 154 311 140 263 147 286 b 146 300 151 307 149 304 b 75 186 119 264 96 225 b -10 35 46 135 18 85 b -29 -1 -15 22 -22 10 b -65 -22 -37 -15 -49 -21 b -87 -18 -72 -22 -81 -21 b -117 25 -108 -11 -118 3 b -111 67 -115 39 -112 53 b -76 214 -106 118 -90 165 b -33 350 -62 260 -49 306 b -22 378 -31 358 -26 368 b 3 444 -12 399 -4 422 b 11 468 6 453 8 461 b 40 492 17 482 26 489 b 128 447 72 496 113 475 b 131 414 133 438 133 425 b 121 376 128 401 124 389 b 125 379 124 375 124 378 b 210 485 153 414 183 449 b 256 500 221 500 238 503 b 307 471 276 496 293 486 b 319 421 319 456 321 439 b 307 363 317 401 313 383 b 313 368 308 365 311 367 b 382 457 335 399 360 428 b 406 489 390 468 399 478 b 443 506 415 501 429 507 b 513 474 471 504 494 494 b 528 424 525 460 529 443 b 504 332 525 392 514 363 b 429 149 482 269 454 210 b 404 65 419 121 408 94 b 404 53 404 61 403 57 b 410 56 407 51 408 54 b 453 107 425 72 440 89 b 603 307 504 172 554 240 b 721 465 642 361 681 414 b 776 463 731 485 767 479 b 776 446 781 457 781 451 b 758 422 771 438 765 429 b 593 190 703 346 649 268 b 481 44 557 140 519 92 b 444 7 469 32 457 18 b 393 -18 431 -7 414 -17 b 315 38 353 -22 324 0 b 311 75 313 50 313 63 b 333 232 307 129 318 181 b 351 296 339 254 344 275 b 351 304 351 299 353 300 z "},"n":{"ha":514,"x_min":0,"x_max":0,"o":"m 251 381 b 243 375 246 379 244 376 b 136 238 203 333 167 288 b 57 111 110 196 82 154 b 8 19 40 82 24 51 b -21 -8 3 7 -6 -4 b -68 -4 -37 -12 -53 -11 b -85 26 -81 3 -85 13 b -74 147 -86 67 -82 107 b -21 360 -60 219 -42 290 b 10 474 -10 397 0 436 b 49 501 14 492 22 504 b 121 461 79 500 103 486 b 128 429 126 451 129 440 b 103 325 122 393 113 358 b 100 315 101 322 100 319 b 108 324 104 317 106 321 b 160 396 124 349 140 372 b 249 489 188 429 217 460 b 317 504 268 506 292 510 b 367 474 336 499 354 490 b 382 407 383 454 385 431 b 369 349 381 388 375 368 b 318 214 356 303 336 260 b 289 133 308 188 299 161 b 293 135 292 132 293 135 b 449 356 343 210 396 283 b 508 440 468 385 489 413 b 524 460 514 447 519 453 b 558 474 532 472 544 475 b 581 463 567 472 575 468 b 583 440 589 456 589 449 b 453 251 539 379 497 314 b 394 165 433 224 414 194 b 303 36 364 121 335 78 b 275 7 294 25 286 15 b 217 -7 257 -6 238 -11 b 185 22 200 -4 189 6 b 181 79 181 40 179 60 b 243 357 189 175 213 267 b 251 381 246 364 249 372 z "},"o":{"ha":403,"x_min":0,"x_max":0,"o":"m 213 210 b 226 217 218 211 222 214 b 274 263 246 229 261 244 b 404 456 318 326 363 390 b 410 465 406 458 408 461 b 429 476 414 472 421 476 b 461 464 440 476 451 474 b 465 442 468 457 469 451 b 444 404 460 429 453 417 b 340 244 411 351 378 297 b 283 183 324 222 307 200 b 203 157 258 167 233 157 b 189 147 193 157 193 157 b 129 46 175 110 154 76 b 64 -8 111 24 89 4 b -51 -14 26 -28 -12 -32 b -110 57 -82 0 -100 25 b -115 97 -114 69 -115 83 b -108 201 -118 132 -115 168 b -54 358 -96 256 -81 308 b 13 449 -36 392 -15 424 b 85 485 33 468 57 481 b 149 475 107 488 128 483 b 232 389 189 460 219 432 b 235 324 239 368 239 346 b 233 306 233 318 232 313 b 233 285 236 299 235 292 b 215 222 229 264 222 243 b 213 210 214 218 213 215 z m -10 90 b -4 42 -10 71 -10 56 b 14 35 0 28 3 28 b 61 76 33 46 47 60 b 122 183 88 108 106 146 b 121 196 125 189 124 192 b 75 283 99 222 85 251 b 74 292 74 286 74 289 b 83 311 72 300 76 307 b 97 315 88 314 92 315 b 124 311 106 315 115 314 b 135 317 132 308 132 310 b 142 332 138 322 140 326 b 149 392 147 351 153 371 b 129 401 146 407 143 408 b 89 367 113 393 100 381 b 35 274 67 339 49 307 b -1 156 18 235 8 196 b -10 90 -6 132 -10 110 z "},"p":{"ha":554,"x_min":0,"x_max":0,"o":"m 128 401 b 154 424 138 410 146 417 b 243 482 181 447 211 467 b 332 472 275 496 304 492 b 378 393 360 453 374 426 b 369 285 381 357 376 321 b 367 269 369 281 368 276 b 394 290 378 278 386 283 b 544 438 449 335 499 385 b 565 463 551 446 560 453 b 578 469 568 467 572 468 b 611 458 590 471 601 467 b 615 429 621 450 622 440 b 590 399 607 418 599 408 b 542 342 575 379 558 360 b 488 292 525 324 506 307 b 354 193 446 254 400 224 b 340 174 347 188 343 182 b 276 31 322 125 303 76 b 247 -11 268 15 258 1 b 129 -14 213 -49 156 -39 b 74 69 106 11 86 38 b 67 106 69 81 68 93 b 76 124 65 114 69 119 b 94 128 82 126 89 128 b 114 131 101 126 108 128 b 217 175 150 142 185 157 b 226 188 222 178 225 182 b 278 386 247 253 267 318 b 276 397 278 389 279 393 b 265 392 272 397 268 394 b 174 322 232 374 201 350 b 69 201 135 286 100 246 b 60 185 65 197 63 192 b -43 -107 28 88 -7 -10 b -99 -261 -61 -158 -79 -210 b -133 -350 -110 -290 -122 -319 b -137 -368 -135 -356 -137 -362 b -150 -383 -139 -375 -143 -381 b -203 -382 -168 -393 -186 -393 b -215 -354 -214 -375 -217 -365 b -207 -315 -214 -340 -210 -328 b -175 -171 -197 -267 -189 -218 b -117 38 -156 -101 -136 -32 b -44 290 -92 122 -69 206 b -4 425 -32 336 -19 381 b 13 475 3 442 7 458 b 18 488 14 479 15 483 b 58 513 25 507 38 515 b 126 469 88 508 110 493 b 133 432 133 458 136 446 b 128 401 132 422 129 413 z m 194 99 b 149 83 178 93 164 88 b 146 75 144 82 144 79 b 164 49 151 65 157 57 b 172 50 168 43 169 43 b 194 99 181 65 188 81 z "},"q":{"ha":526,"x_min":0,"x_max":0,"o":"m 271 189 b 306 222 282 200 294 211 b 324 242 313 228 318 235 b 458 381 369 288 414 335 b 533 454 483 406 508 429 b 564 461 543 463 553 464 b 589 444 574 458 583 453 b 589 422 596 436 596 429 b 569 403 582 415 576 408 b 424 246 519 351 472 299 b 368 186 406 225 386 206 b 321 135 353 168 336 151 b 281 96 308 121 294 108 b 276 78 272 88 272 88 b 313 7 289 54 300 31 b 324 -54 322 -12 325 -32 b 304 -126 322 -81 315 -103 b 224 -262 281 -174 253 -218 b 165 -349 206 -292 188 -321 b 136 -378 156 -360 147 -369 b 72 -392 117 -392 96 -396 b 36 -361 54 -387 43 -378 b 28 -293 28 -339 25 -315 b 76 -18 35 -200 54 -108 b 85 13 79 -8 82 3 b 86 18 86 14 88 15 b 79 13 82 18 82 14 b 58 -11 72 4 65 -3 b -33 -28 33 -39 -3 -40 b -72 13 -51 -21 -65 -7 b -86 69 -81 31 -83 50 b -83 186 -90 108 -86 147 b -64 288 -79 221 -74 254 b 1 438 -47 340 -26 390 b 60 507 17 464 35 488 b 103 525 72 517 86 522 b 160 518 122 529 142 525 b 235 469 188 508 213 492 b 251 472 244 460 244 460 b 279 521 260 489 269 504 b 321 539 289 539 300 543 b 372 504 343 535 360 522 b 376 471 379 494 381 483 b 358 422 372 454 364 438 b 272 193 328 346 300 269 b 271 189 271 192 269 190 z m 28 88 b 29 86 28 86 29 86 b 57 125 39 99 47 111 b 189 335 103 193 147 264 b 203 361 193 343 199 351 b 203 381 206 368 206 374 b 188 414 197 392 192 403 b 171 433 185 422 178 428 b 158 432 165 436 163 436 b 136 407 150 425 143 417 b 96 329 119 382 107 356 b 42 157 74 272 57 215 b 28 88 36 133 31 111 z m 129 -283 b 132 -281 131 -282 131 -282 b 203 -165 156 -243 181 -204 b 235 -90 215 -142 228 -117 b 238 -28 242 -69 244 -49 b 218 24 232 -10 225 7 b 217 25 218 25 218 25 b 129 -283 183 -76 151 -178 z "},"r":{"ha":524,"x_min":0,"x_max":0,"o":"m 169 385 b 131 375 157 382 144 378 b -18 476 57 360 -7 414 b -11 540 -22 499 -19 519 b 29 563 -3 560 10 567 b 90 515 58 557 78 540 b 93 486 96 506 96 496 b 89 463 92 478 89 469 b 96 456 88 456 89 454 b 157 475 117 460 138 467 b 215 506 178 483 197 493 b 221 508 217 506 219 507 b 261 514 233 517 247 518 b 324 464 290 507 311 490 b 325 404 333 444 331 424 b 297 333 318 381 308 357 b 232 201 276 289 254 246 b 183 79 214 161 196 121 b 169 28 178 63 174 46 b 169 14 169 24 168 19 b 179 21 175 15 176 18 b 242 90 201 43 221 67 b 364 235 282 138 324 186 b 501 406 411 290 457 349 b 535 444 513 419 524 432 b 572 454 546 458 556 460 b 593 438 581 450 588 444 b 592 415 599 429 599 422 b 389 157 524 329 458 240 b 265 10 347 108 307 58 b 213 -44 249 -10 232 -28 b 190 -60 206 -50 199 -56 b 100 -58 160 -75 129 -75 b 72 -24 88 -51 78 -39 b 63 29 67 -7 63 11 b 74 135 61 65 67 100 b 122 282 83 186 101 235 b 167 378 136 315 150 346 b 169 385 168 379 171 382 z "},"s":{"ha":358,"x_min":0,"x_max":0,"o":"m 107 289 b 119 204 106 258 113 231 b 147 100 128 169 138 135 b 158 19 154 74 160 47 b 153 -10 158 10 157 0 b 92 -57 143 -39 121 -53 b 32 -56 71 -61 51 -58 b -62 -21 -1 -49 -33 -37 b -96 6 -75 -14 -86 -4 b -117 47 -107 18 -114 32 b -112 71 -118 56 -117 64 b -99 89 -108 76 -104 83 b -26 164 -75 114 -50 139 b -15 174 -22 167 -19 171 b -10 192 -10 178 -8 183 b -18 238 -12 207 -15 222 b -28 333 -24 269 -28 301 b 0 436 -26 369 -19 404 b 121 517 28 482 68 508 b 228 489 160 524 196 514 b 242 490 235 483 235 483 b 289 499 256 504 271 507 b 318 471 301 492 311 482 b 321 433 325 458 326 446 b 293 381 311 417 303 399 b 269 333 283 365 276 350 b 243 250 260 306 250 278 b 240 231 242 243 240 238 b 226 214 239 221 235 217 b 171 256 201 207 171 231 b 175 294 171 269 174 282 b 203 401 183 331 193 365 b 203 404 203 403 203 404 b 203 417 203 408 207 413 b 193 414 200 418 196 415 b 129 361 168 400 146 383 b 107 289 113 339 106 313 z m 10 94 b 7 94 8 94 8 94 b -24 57 -3 82 -14 69 b -22 38 -31 49 -31 44 b 10 21 -14 28 -3 25 b 15 26 14 19 15 22 b 10 94 17 50 14 72 z "},"t":{"ha":276,"x_min":0,"x_max":0,"o":"m 29 17 b 43 35 35 22 39 28 b 79 92 56 53 68 72 b 82 94 81 93 82 94 b 149 214 99 138 126 175 b 279 431 192 286 236 358 b 304 447 286 440 293 447 b 339 433 318 447 329 443 b 339 414 343 428 343 421 b 317 372 332 400 325 386 b 176 129 271 292 225 210 b 86 -6 150 82 121 36 b 54 -37 76 -17 67 -29 b -1 -58 38 -50 19 -58 b -54 -28 -25 -58 -43 -47 b -74 35 -65 -8 -71 13 b -64 182 -79 85 -74 133 b 3 442 -49 271 -24 357 b 47 576 17 488 32 532 b 38 588 51 589 51 589 b -79 572 -1 582 -40 576 b -97 569 -85 571 -92 569 b -117 578 -106 569 -111 572 b -131 625 -128 592 -133 607 b -114 649 -129 636 -124 644 b -85 661 -104 654 -94 658 b 24 675 -49 669 -12 674 b 75 675 40 675 58 675 b 89 683 82 675 86 676 b 121 753 100 707 111 731 b 161 774 129 772 142 778 b 176 768 167 772 171 771 b 217 733 193 761 207 750 b 224 694 224 722 228 708 b 219 676 222 689 221 682 b 225 668 218 669 218 669 b 274 665 242 667 257 667 b 396 646 314 661 356 657 b 414 639 401 644 408 642 b 440 594 435 631 443 618 b 424 561 439 582 433 569 b 397 567 413 553 403 554 b 386 576 394 572 392 575 b 343 585 372 579 357 582 b 214 593 300 589 257 593 b 210 593 213 593 211 593 b 197 583 200 593 200 593 b 174 511 189 560 182 535 b 64 188 140 403 101 296 b 29 53 49 143 36 99 b 28 18 26 40 28 29 b 29 17 28 17 29 17 z "},"u":{"ha":526,"x_min":0,"x_max":0,"o":"m 25 54 b 38 61 31 56 33 58 b 128 153 71 89 100 119 b 158 192 138 165 149 178 b 169 213 164 197 167 204 b 247 442 186 292 215 368 b 261 468 251 451 256 460 b 299 486 269 482 282 488 b 367 443 328 482 351 468 b 372 397 376 429 379 414 b 328 274 358 357 343 314 b 272 118 310 222 288 171 b 258 72 267 103 263 88 b 260 67 258 71 257 68 b 290 103 271 78 281 90 b 461 328 350 175 404 253 b 543 433 488 363 515 399 b 594 447 557 450 579 453 b 604 414 613 442 617 429 b 531 314 579 382 554 347 b 376 100 479 243 429 171 b 304 7 353 69 329 38 b 271 -22 294 -4 283 -15 b 190 -29 246 -39 218 -40 b 158 8 174 -21 163 -8 b 153 51 156 22 154 38 b 153 69 153 57 153 63 b 143 63 147 68 146 64 b 83 7 125 43 106 24 b 44 -21 71 -3 58 -12 b -56 -14 11 -40 -31 -35 b -76 18 -65 -6 -72 6 b -85 64 -82 33 -85 49 b -74 182 -86 104 -82 143 b -22 378 -62 249 -44 314 b 3 439 -15 399 -7 419 b 6 443 4 440 4 442 b 69 468 19 469 35 479 b 115 436 89 463 104 451 b 125 394 125 424 128 410 b 115 360 122 382 119 371 b 58 182 96 300 78 242 b 28 71 47 146 36 108 b 25 54 26 65 26 60 z "},"v":{"ha":415,"x_min":0,"x_max":0,"o":"m 56 3 b 93 50 71 18 82 35 b 207 218 135 103 171 161 b 296 375 239 269 269 321 b 310 407 301 385 306 396 b 313 433 313 415 315 424 b 318 447 310 439 313 443 b 331 451 321 450 325 451 b 379 424 349 454 372 440 b 381 389 383 413 383 400 b 367 346 378 374 372 360 b 301 215 347 301 325 258 b 192 33 267 154 229 93 b 118 -57 171 0 147 -31 b 69 -87 104 -71 88 -82 b -11 -82 42 -96 15 -94 b -57 -24 -36 -69 -49 -49 b -69 49 -64 0 -67 24 b -71 115 -72 71 -72 93 b -58 228 -71 153 -65 190 b -21 381 -50 279 -39 331 b -4 426 -17 396 -10 411 b 1 439 -3 431 0 435 b 46 464 11 457 26 465 b 125 421 78 461 106 447 b 135 371 136 406 139 389 b 117 304 131 349 124 326 b 72 131 101 247 85 189 b 56 22 65 94 58 58 b 56 3 54 17 54 10 z "},"w":{"ha":558,"x_min":0,"x_max":0,"o":"m 286 11 b 301 22 292 14 297 18 b 356 96 324 44 340 69 b 431 268 386 151 413 208 b 458 413 446 315 454 364 b 460 422 460 415 458 418 b 451 440 460 429 458 436 b 447 446 450 442 449 443 b 451 471 440 454 442 464 b 488 475 463 478 475 478 b 535 415 517 468 533 449 b 533 349 536 393 536 371 b 510 229 528 308 519 268 b 454 106 497 185 478 144 b 376 6 432 69 407 35 b 306 -46 356 -17 333 -36 b 225 -44 279 -56 251 -57 b 186 -3 207 -36 194 -21 b 165 69 176 21 169 44 b 163 86 164 75 164 79 b 138 47 154 72 146 60 b 90 -21 124 24 108 0 b 14 -50 69 -44 44 -54 b -37 -10 -11 -46 -28 -32 b -53 40 -44 7 -49 24 b -60 146 -60 75 -61 111 b -46 243 -57 178 -53 211 b -4 421 -32 303 -21 363 b 14 469 1 438 7 454 b 47 492 21 483 32 490 b 129 450 82 492 108 476 b 138 408 139 439 140 424 b 122 324 135 381 128 351 b 69 117 107 254 88 186 b 61 78 67 104 64 92 b 61 68 60 75 60 72 b 67 76 64 69 65 74 b 158 236 101 128 131 182 b 178 289 167 253 174 269 b 215 393 186 325 199 360 b 226 413 218 400 222 407 b 265 431 236 425 250 431 b 317 408 285 429 301 422 b 331 367 329 397 333 383 b 310 269 324 333 317 301 b 290 171 301 236 294 204 b 283 93 288 144 285 119 b 281 39 281 75 281 57 b 283 17 281 32 282 25 b 286 11 283 15 285 13 z "},"x":{"ha":553,"x_min":0,"x_max":0,"o":"m 150 326 b 183 374 161 343 172 358 b 285 486 214 414 247 450 b 294 494 288 489 290 492 b 326 499 304 503 315 504 b 367 457 346 492 360 476 b 361 419 372 443 371 431 b 293 336 339 392 317 363 b 211 246 267 306 239 276 b 178 208 200 233 189 221 b 174 197 175 206 174 201 b 210 83 183 158 192 119 b 226 61 214 75 219 68 b 247 60 235 53 238 53 b 285 96 261 69 274 82 b 361 190 311 126 336 158 b 554 443 426 274 490 358 b 588 464 563 454 574 461 b 610 460 596 464 603 464 b 617 439 618 456 621 449 b 613 433 615 438 614 435 b 365 103 532 321 450 211 b 292 28 343 75 319 49 b 236 -1 275 15 256 6 b 139 22 199 -12 167 -6 b 92 88 119 42 104 64 b 74 89 85 101 85 101 b -8 -3 47 58 19 28 b -33 -26 -17 -11 -25 -19 b -62 -35 -42 -35 -51 -37 b -97 -17 -76 -33 -87 -26 b -97 13 -106 -7 -107 1 b 35 178 -54 68 -10 122 b 36 181 35 179 36 181 b 42 208 44 189 46 197 b 7 372 25 263 13 317 b 1 444 4 396 3 419 b 35 482 0 469 15 479 b 96 469 56 485 78 482 b 126 432 111 461 122 449 b 146 339 133 400 140 369 b 150 326 147 336 149 332 z "},"y":{"ha":508,"x_min":0,"x_max":0,"o":"m 24 57 b 32 63 28 58 29 61 b 142 182 71 100 106 142 b 149 194 146 185 147 190 b 218 417 172 268 193 343 b 247 488 226 440 235 465 b 254 500 250 492 251 496 b 293 517 264 514 278 519 b 353 482 318 514 338 501 b 361 443 361 471 365 457 b 350 404 358 429 354 417 b 307 254 333 356 321 304 b 306 250 306 253 306 251 b 311 253 308 250 310 251 b 419 354 347 286 383 321 b 518 440 451 383 485 413 b 578 428 536 454 567 447 b 574 406 582 419 581 413 b 539 375 563 396 551 385 b 475 315 518 354 496 335 b 372 215 440 282 407 249 b 271 117 339 183 304 150 b 258 97 265 111 261 106 b 151 -256 224 -19 188 -137 b 128 -322 144 -278 138 -301 b 42 -389 110 -360 82 -382 b 8 -387 31 -390 19 -390 b -25 -361 -7 -383 -18 -374 b -56 -311 -36 -344 -46 -328 b -87 -249 -67 -290 -76 -269 b -85 -168 -103 -221 -100 -194 b -31 -96 -69 -142 -50 -119 b 7 -50 -18 -81 -6 -65 b 14 -40 10 -47 13 -44 b -4 -40 7 -39 1 -40 b -61 -12 -28 -39 -47 -31 b -76 26 -69 -1 -74 13 b -81 157 -85 71 -86 114 b -46 314 -75 211 -61 263 b -7 424 -35 351 -22 388 b 14 472 0 440 7 456 b 24 493 17 479 19 486 b 58 511 32 506 44 511 b 128 471 88 508 110 494 b 135 431 136 458 139 446 b 115 372 129 411 124 392 b 86 285 103 344 94 314 b 38 132 69 233 54 183 b 24 69 32 111 26 90 b 24 57 24 65 22 63 z m 32 -292 b 76 -85 51 -224 63 -153 b 72 -85 74 -83 74 -85 b 13 -160 51 -108 31 -133 b -8 -194 4 -169 -4 -181 b -7 -231 -14 -207 -14 -218 b 24 -285 3 -249 13 -268 b 32 -292 26 -287 26 -290 z "},"z":{"ha":557,"x_min":0,"x_max":0,"o":"m 182 79 b 126 47 161 69 143 60 b 79 10 110 35 94 22 b 65 -6 74 6 69 0 b 38 -39 57 -17 47 -29 b 1 -49 26 -49 15 -51 b -29 -31 -10 -46 -21 -40 b -31 -1 -37 -21 -37 -12 b 1 46 -19 14 -10 31 b 136 249 46 114 90 182 b 193 338 156 278 175 308 b 247 414 210 364 228 389 b 253 424 249 417 251 419 b 240 425 249 426 244 425 b 163 413 214 421 189 415 b 71 401 132 407 101 404 b 7 424 46 399 24 404 b -7 450 0 432 -4 440 b 13 482 -12 467 -6 478 b 81 493 35 488 57 490 b 172 504 111 496 142 500 b 272 511 206 508 239 511 b 299 508 281 511 290 511 b 360 457 328 501 349 485 b 358 410 367 442 365 425 b 332 358 353 392 342 375 b 238 229 304 314 271 271 b 201 179 225 213 214 196 b 197 171 200 176 197 175 b 210 169 201 169 206 169 b 261 147 229 167 246 160 b 272 147 265 143 268 143 b 306 178 283 158 294 168 b 485 351 365 236 425 293 b 569 433 513 379 540 407 b 583 446 574 438 579 442 b 606 449 590 451 597 453 b 629 425 617 444 625 436 b 626 406 633 418 632 411 b 615 394 622 401 618 399 b 297 78 508 289 404 183 b 290 65 293 74 292 71 b 265 -57 286 24 278 -18 b 176 -299 240 -140 210 -219 b 153 -347 169 -315 161 -332 b 100 -385 142 -369 124 -382 b 11 -350 64 -389 33 -381 b -4 -322 6 -342 0 -332 b -40 -236 -19 -296 -32 -267 b -33 -171 -47 -214 -44 -192 b 7 -117 -22 -151 -8 -135 b 85 -33 31 -87 57 -60 b 157 38 110 -10 133 14 b 165 44 160 40 163 43 b 182 79 178 53 181 64 z m 68 -289 b 144 -74 75 -281 142 -89 b 140 -75 142 -74 142 -75 b 78 -143 119 -97 97 -119 b 47 -183 67 -156 56 -168 b 43 -240 38 -201 35 -221 b 65 -286 50 -256 58 -271 b 68 -289 67 -287 67 -289 z "},"{":{"ha":414,"x_min":0,"x_max":0,"o":"m 3 215 b 17 285 7 239 10 263 b 38 372 25 314 31 343 b 47 407 40 383 43 396 b 51 442 50 419 50 431 b 44 460 53 450 50 456 b 18 488 33 467 24 475 b 11 503 15 492 13 497 b 22 529 10 514 13 522 b 38 538 26 532 32 536 b 57 551 46 540 51 546 b 79 576 64 560 71 568 b 114 638 96 593 107 615 b 153 749 128 675 138 713 b 201 840 165 782 179 813 b 286 897 224 868 251 889 b 396 836 340 910 381 879 b 399 808 399 828 400 818 b 388 783 399 799 394 790 b 364 781 379 776 372 776 b 344 817 351 789 343 800 b 344 818 344 817 344 818 b 335 826 346 826 344 828 b 311 815 326 824 319 821 b 261 765 292 803 275 785 b 218 678 242 739 229 708 b 183 569 206 642 196 606 b 167 532 178 557 174 544 b 119 476 154 510 140 490 b 117 467 113 474 113 472 b 129 372 135 436 136 404 b 100 258 122 333 108 296 b 85 140 92 219 83 181 b 106 75 86 117 92 94 b 124 68 110 69 114 67 b 168 47 142 71 157 63 b 164 22 175 38 172 29 b 132 13 154 15 143 13 b 76 33 111 14 93 21 b 1 178 31 71 4 118 b 3 215 0 190 1 203 z "},"|":{"ha":382,"x_min":0,"x_max":0,"o":"m 49 -10 b 11 6 36 -8 22 -4 b 7 35 1 15 0 22 b 19 65 13 44 17 56 b 97 311 46 147 72 229 b 158 503 118 375 138 439 b 232 738 182 581 206 660 b 268 828 243 768 256 797 b 283 856 272 838 276 847 b 308 868 289 865 299 869 b 363 832 333 865 351 853 b 365 807 367 824 368 815 b 350 758 360 790 356 775 b 304 624 335 714 319 668 b 183 278 263 508 224 393 b 108 68 160 207 135 136 b 88 19 103 51 96 35 b 79 6 85 15 82 10 b 49 -10 71 -4 63 -10 z "},"}":{"ha":414,"x_min":0,"x_max":0,"o":"m 397 697 b 383 628 393 674 390 650 b 363 540 375 599 369 569 b 354 506 360 529 357 517 b 349 471 350 493 350 482 b 357 453 347 463 350 457 b 383 425 367 446 376 438 b 389 410 385 421 388 415 b 378 383 390 399 388 390 b 363 375 374 381 368 376 b 343 361 354 372 349 367 b 321 336 336 353 329 344 b 286 275 304 319 293 297 b 247 164 274 238 263 200 b 199 72 235 131 221 100 b 114 15 178 44 149 24 b 4 76 60 3 19 33 b 1 104 1 85 0 94 b 14 129 1 114 6 122 b 36 132 21 136 28 136 b 56 96 49 124 57 113 b 56 94 56 96 56 94 b 65 86 54 86 56 85 b 89 97 74 89 81 92 b 139 147 108 110 125 128 b 182 235 158 174 171 204 b 217 343 194 271 204 307 b 233 381 222 356 226 368 b 281 436 246 403 260 422 b 283 446 288 439 288 440 b 271 540 265 476 264 508 b 300 654 278 579 292 617 b 315 772 308 693 317 732 b 294 838 314 796 308 818 b 276 844 290 843 286 846 b 232 865 258 842 243 850 b 236 890 225 875 228 883 b 268 900 246 897 257 900 b 324 879 289 899 307 892 b 399 735 369 842 396 794 b 397 697 400 722 399 710 z "},"~":{"ha":358,"x_min":0,"x_max":0,"o":"m 250 375 b 193 388 229 375 211 379 b 165 403 183 393 175 397 b 135 417 156 408 146 414 b 106 415 125 419 115 419 b 71 389 92 408 81 400 b 42 379 64 378 54 375 b 8 413 26 386 15 397 b 18 458 0 431 6 446 b 49 483 28 468 38 476 b 114 492 69 494 92 499 b 174 464 135 486 156 476 b 197 449 181 458 189 454 b 236 444 210 440 222 440 b 279 464 251 449 267 456 b 288 472 283 467 286 469 b 306 481 292 481 297 482 b 344 439 324 479 343 457 b 333 414 344 429 342 421 b 282 381 318 400 301 389 b 250 375 271 375 260 375 z "},"":{"ha":322,"x_min":0,"x_max":0,"o":"m 258 625 b 211 656 240 628 224 638 b 211 685 206 665 206 675 b 240 750 224 706 232 728 b 269 765 247 764 254 769 b 293 753 278 763 286 758 b 306 718 304 743 308 732 b 294 672 303 703 299 688 b 289 647 293 664 290 656 b 258 625 286 629 275 625 z m 261 525 b 254 492 260 515 257 504 b 215 365 242 449 228 407 b 122 47 182 260 149 154 b 103 -22 115 24 110 1 b 96 -42 101 -29 99 -35 b 67 -60 90 -54 81 -61 b 6 -15 39 -56 18 -40 b 3 15 0 -6 0 4 b 25 94 10 42 17 68 b 122 381 54 192 89 286 b 176 531 140 431 158 481 b 179 536 178 532 178 535 b 221 561 183 556 197 563 b 250 551 231 560 240 557 b 261 525 257 546 263 539 z "},"":{"ha":421,"x_min":0,"x_max":0,"o":"m 314 542 b 306 542 311 543 308 542 b 275 531 294 539 285 535 b 264 521 269 529 267 526 b 210 369 246 469 228 419 b 201 344 207 361 204 353 b 211 343 204 342 208 343 b 364 386 263 354 314 365 b 386 383 372 389 379 388 b 406 353 397 376 403 365 b 393 332 407 343 404 336 b 321 307 369 321 346 314 b 185 276 276 293 231 283 b 174 265 178 275 175 272 b 139 169 161 233 150 201 b 132 153 136 164 133 158 b 124 143 129 149 128 146 b 69 144 111 132 81 132 b 64 164 64 150 63 157 b 83 226 71 185 76 206 b 92 256 86 236 89 246 b 86 267 94 264 94 265 b 57 274 76 268 67 269 b 8 318 36 282 18 296 b 7 374 0 336 1 354 b 31 428 11 393 21 411 b 168 579 67 486 113 536 b 201 600 178 586 189 593 b 211 611 206 603 208 606 b 238 675 219 632 228 654 b 269 689 243 690 254 694 b 299 658 283 682 292 672 b 300 639 301 653 301 646 b 311 626 297 626 297 626 b 340 619 321 626 332 624 b 386 558 367 607 381 586 b 357 482 390 528 379 503 b 318 486 343 468 329 471 b 313 539 304 503 303 521 b 314 542 314 540 314 540 z m 157 458 b 156 460 157 458 156 458 b 144 450 151 456 147 453 b 124 429 138 443 129 436 b 71 356 103 407 85 383 b 63 333 68 349 64 342 b 71 324 61 326 64 324 b 106 326 82 324 93 325 b 118 336 113 326 117 329 b 147 428 128 367 138 397 b 157 458 150 438 154 449 z "},"":{"ha":367,"x_min":0,"x_max":0,"o":"m 94 458 b 60 464 79 449 69 451 b 49 488 54 471 50 479 b 58 510 47 497 50 504 b 86 524 67 515 76 521 b 104 529 93 526 99 528 b 121 544 114 531 118 535 b 169 658 133 583 149 622 b 225 721 185 682 203 704 b 263 739 236 731 249 738 b 317 714 286 742 303 732 b 329 679 325 704 331 692 b 328 669 329 675 329 672 b 307 658 325 658 315 654 b 286 654 297 664 292 661 b 249 608 271 640 258 625 b 221 550 238 589 229 569 b 226 540 218 542 218 542 b 258 528 238 539 249 536 b 278 496 269 521 276 510 b 278 483 279 492 279 488 b 258 475 275 475 267 471 b 203 482 240 486 222 482 b 193 472 196 482 194 478 b 175 419 188 456 181 438 b 136 313 164 383 151 347 b 115 272 129 299 122 285 b 119 264 111 265 111 265 b 150 260 129 263 140 261 b 201 260 167 258 185 257 b 274 276 226 263 250 267 b 294 290 282 279 290 282 b 311 296 299 296 304 297 b 347 269 328 293 340 285 b 340 239 353 257 351 247 b 321 228 335 235 328 231 b 207 206 285 213 247 204 b 154 210 189 206 171 207 b 74 203 126 213 100 211 b 64 200 71 201 67 201 b 7 221 42 193 19 201 b 7 253 0 231 0 242 b 32 292 15 267 24 279 b 71 379 50 318 63 349 b 92 447 78 401 85 424 b 94 458 93 450 93 453 z "},"":{"ha":596,"x_min":0,"x_max":0,"o":"m 582 608 b 561 569 582 590 575 579 b 439 483 518 544 479 513 b 431 461 431 478 428 471 b 432 378 435 433 435 406 b 419 340 431 364 426 351 b 421 321 415 333 415 328 b 493 233 446 292 469 263 b 518 206 501 224 510 217 b 518 172 525 196 525 183 b 510 164 515 169 513 167 b 479 149 501 156 490 150 b 444 163 464 146 453 150 b 401 226 432 185 417 206 b 365 276 389 243 378 260 b 354 279 361 282 361 283 b 303 261 338 271 321 265 b 218 269 274 256 246 257 b 197 268 210 274 204 274 b 83 176 158 239 119 208 b 38 172 71 164 58 160 b 7 206 24 179 13 190 b 14 243 0 221 1 232 b 72 289 32 260 53 275 b 138 332 94 304 115 318 b 143 346 146 338 146 338 b 140 443 129 378 131 410 b 161 493 144 460 151 476 b 160 501 164 496 165 499 b 83 581 131 524 107 551 b 71 596 79 586 75 590 b 74 635 60 610 61 622 b 119 651 88 647 103 651 b 153 632 135 651 146 644 b 193 574 164 611 178 592 b 207 556 197 567 201 561 b 219 553 213 550 213 550 b 244 567 228 558 236 564 b 335 565 275 579 306 579 b 346 563 338 563 342 561 b 385 557 360 568 372 564 b 394 550 388 554 392 551 b 407 550 400 546 401 544 b 450 588 421 563 436 575 b 496 628 465 600 481 614 b 508 640 500 632 504 636 b 528 660 515 647 521 654 b 561 657 540 667 550 667 b 582 614 574 646 579 631 b 582 608 582 611 582 610 z m 360 453 b 349 479 363 461 358 472 b 346 482 347 479 347 481 b 333 486 343 486 339 488 b 311 479 325 485 318 482 b 242 419 282 465 260 444 b 219 369 231 404 224 388 b 228 335 218 357 217 344 b 229 333 229 335 229 333 b 247 324 233 326 239 324 b 332 361 282 322 311 333 b 360 453 350 388 360 417 z "},"":{"ha":351,"x_min":0,"x_max":0,"o":"m 67 193 b 58 192 63 194 61 193 b 36 194 50 188 43 189 b 17 232 24 203 18 217 b 33 256 17 243 24 251 b 58 260 42 258 50 260 b 85 263 68 261 76 263 b 93 268 89 263 92 264 b 99 285 96 274 101 281 b 82 286 96 290 88 286 b 56 283 74 286 64 285 b 29 293 44 281 36 285 b 22 307 26 297 24 303 b 36 338 18 322 22 332 b 82 350 51 344 67 347 b 124 354 96 351 110 353 b 133 361 128 354 132 356 b 158 415 142 379 150 397 b 150 411 154 415 153 413 b 124 386 142 403 133 394 b 40 389 96 364 69 365 b 15 429 28 400 19 413 b 1 503 7 453 3 478 b 13 638 0 549 3 593 b 14 660 14 644 14 653 b 43 679 14 678 26 686 b 81 633 63 671 75 656 b 81 597 82 622 82 610 b 72 478 78 558 72 518 b 74 453 74 469 74 461 b 76 440 74 449 74 444 b 85 444 81 439 82 442 b 125 479 99 454 113 467 b 214 567 156 508 188 536 b 278 642 236 592 260 615 b 315 646 289 657 301 658 b 335 617 326 639 332 628 b 332 586 338 606 336 596 b 279 486 314 553 297 519 b 217 364 257 446 236 406 b 222 353 213 356 213 356 b 260 322 240 349 253 339 b 263 293 264 313 265 303 b 239 285 260 282 250 278 b 218 292 233 290 226 292 b 190 293 208 293 200 293 b 181 288 186 293 183 292 b 171 267 178 281 175 274 b 175 260 169 263 171 261 b 190 257 181 258 185 258 b 211 250 197 256 204 253 b 238 213 228 243 235 231 b 236 204 238 210 238 207 b 218 193 235 194 228 190 b 158 203 199 201 179 201 b 138 190 143 204 143 203 b 129 160 135 181 131 171 b 114 146 128 151 122 147 b 69 168 99 143 76 154 b 67 183 67 172 67 178 b 67 193 67 186 68 190 z "},"":{"ha":324,"x_min":0,"x_max":0,"o":"m 60 -3 b 43 1 54 -3 49 -1 b 14 24 31 7 21 14 b 4 64 4 36 0 49 b 21 119 10 82 15 101 b 78 301 40 179 57 240 b 108 389 88 331 97 360 b 133 404 113 400 121 406 b 174 382 150 403 163 394 b 178 353 181 374 181 364 b 146 242 167 315 157 279 b 93 43 128 175 111 108 b 83 13 90 32 88 22 b 60 -3 79 3 71 -3 z m 310 778 b 306 757 310 771 307 764 b 232 521 281 678 257 600 b 204 443 224 494 214 469 b 176 428 200 431 190 425 b 140 447 163 429 150 436 b 133 475 133 456 131 464 b 221 796 165 582 192 689 b 228 817 224 803 225 810 b 258 833 233 831 244 836 b 306 796 281 828 296 815 b 310 778 308 790 310 785 z "},"":{"ha":386,"x_min":0,"x_max":0,"o":"m 219 88 b 169 96 200 89 185 92 b 56 147 129 108 90 124 b 15 185 40 157 26 169 b 0 231 7 199 0 214 b 25 251 0 246 10 254 b 69 213 47 247 63 235 b 83 196 72 206 76 200 b 161 171 108 183 135 176 b 178 171 167 171 172 171 b 190 185 186 171 190 176 b 185 200 189 190 186 196 b 146 253 174 219 160 236 b 96 315 129 274 111 294 b 64 389 81 338 68 361 b 82 460 60 415 65 439 b 151 467 103 483 126 486 b 172 432 163 457 169 446 b 163 407 175 422 172 414 b 143 367 149 397 142 383 b 151 343 143 357 147 350 b 192 292 164 325 178 308 b 254 206 214 264 236 236 b 275 149 264 188 274 169 b 236 90 278 114 260 97 b 219 88 229 89 222 88 z m 221 657 b 308 624 254 656 283 644 b 365 547 335 604 353 578 b 369 531 367 542 368 536 b 342 508 372 513 360 501 b 313 533 329 513 321 524 b 303 551 308 539 306 544 b 271 574 296 563 285 571 b 222 565 254 576 238 574 b 210 532 208 557 206 547 b 232 490 215 517 224 503 b 297 394 254 458 275 426 b 338 317 314 369 326 343 b 346 282 342 306 344 294 b 306 244 350 256 333 239 b 271 269 290 247 279 257 b 268 279 269 272 268 275 b 278 297 265 288 268 294 b 282 307 283 299 283 301 b 254 358 275 325 265 343 b 160 489 222 401 189 444 b 133 539 149 506 140 521 b 125 582 128 553 125 567 b 156 638 125 606 136 624 b 221 657 175 650 197 656 z "},"":{"ha":358,"x_min":0,"x_max":0,"o":"m 344 1015 b 342 1001 343 1011 343 1007 b 294 950 339 972 322 957 b 207 1022 246 940 207 985 b 210 1038 207 1028 208 1033 b 264 1089 219 1064 236 1081 b 290 1086 272 1092 282 1090 b 314 1074 299 1083 307 1079 b 344 1015 335 1061 343 1040 z m 138 1015 b 135 1001 136 1011 136 1007 b 88 950 132 972 115 957 b 0 1022 39 940 0 985 b 3 1038 0 1028 1 1033 b 57 1089 13 1064 29 1081 b 83 1086 65 1092 75 1090 b 107 1074 92 1083 100 1079 b 138 1015 128 1061 136 1040 z "},"":{"ha":703,"x_min":0,"x_max":0,"o":"m 0 351 b 118 636 3 461 44 556 b 325 760 174 699 243 740 b 404 763 351 765 378 767 b 413 763 407 761 410 761 b 454 767 426 772 440 771 b 510 736 476 761 493 750 b 572 663 533 714 553 689 b 665 499 608 611 640 557 b 686 378 682 460 689 419 b 658 272 682 340 672 306 b 521 97 628 203 582 144 b 350 31 471 60 413 36 b 151 74 279 25 213 38 b 11 261 79 117 33 181 b 0 351 4 290 0 321 z m 497 661 b 496 656 496 658 496 657 b 471 646 490 643 482 640 b 454 661 464 650 458 654 b 433 672 450 671 442 672 b 403 669 422 671 413 671 b 303 629 367 664 333 649 b 143 464 236 586 183 531 b 96 293 111 411 93 354 b 136 168 97 247 110 206 b 200 115 153 144 174 126 b 343 104 246 94 294 93 b 435 142 376 111 407 125 b 568 272 490 174 536 217 b 606 401 592 313 606 354 b 588 492 606 433 599 463 b 517 633 569 542 544 588 b 497 661 511 642 504 651 z m 318 260 b 244 288 289 260 265 269 b 222 351 226 304 221 328 b 260 483 226 399 238 442 b 317 550 274 510 292 532 b 356 567 328 560 340 567 b 413 542 379 568 397 558 b 432 501 422 531 431 517 b 403 458 435 478 419 465 b 392 460 400 457 394 457 b 376 468 386 461 381 464 b 364 468 369 475 369 475 b 338 432 354 457 344 446 b 297 333 321 401 304 369 b 311 321 294 319 296 318 b 354 343 326 326 340 333 b 374 356 361 347 367 351 b 393 358 379 360 386 361 b 426 335 407 356 418 347 b 421 308 432 325 431 317 b 368 272 404 294 388 282 b 318 260 351 264 335 260 z "},"":{"ha":271,"x_min":0,"x_max":0,"o":"m 126 768 b 118 761 122 767 121 764 b 93 739 110 753 103 744 b 29 739 72 725 50 725 b 4 794 10 751 0 771 b 72 939 11 850 36 897 b 101 961 79 949 90 957 b 174 946 129 971 153 963 b 178 942 175 944 176 943 b 182 938 179 940 181 939 b 189 949 186 940 188 944 b 217 958 196 960 204 963 b 250 896 242 950 257 921 b 226 833 243 874 233 854 b 192 733 214 800 201 767 b 185 700 189 722 186 711 b 167 685 183 689 178 685 b 122 731 143 683 119 707 b 126 758 122 740 124 750 b 126 768 126 763 128 765 z m 147 890 b 99 835 125 876 111 857 b 147 890 115 853 131 872 z "},"":{"ha":563,"x_min":0,"x_max":0,"o":"m 3 425 b 15 485 0 446 7 465 b 35 515 21 496 28 506 b 122 613 61 551 90 583 b 225 707 156 646 189 676 b 264 735 236 718 249 728 b 311 729 281 743 296 740 b 336 700 322 722 331 713 b 329 660 343 686 340 672 b 314 646 324 656 319 650 b 199 531 275 608 238 569 b 138 469 179 510 158 490 b 106 422 124 456 113 440 b 114 388 100 408 103 397 b 157 357 128 375 142 367 b 261 293 190 335 225 313 b 304 274 275 286 289 278 b 326 261 313 271 321 267 b 336 249 331 257 335 254 b 329 228 340 240 338 232 b 306 224 322 224 314 222 b 265 233 292 225 279 228 b 208 257 246 239 226 247 b 79 328 164 279 122 303 b 25 375 58 342 39 356 b 3 425 13 390 4 406 z m 208 425 b 221 485 206 446 213 465 b 240 515 226 496 233 506 b 328 613 267 551 296 583 b 431 707 361 646 394 676 b 469 735 442 718 454 728 b 517 729 486 743 501 740 b 542 700 528 722 536 713 b 535 660 549 686 546 672 b 519 646 529 656 525 650 b 404 531 481 608 443 569 b 343 469 385 510 364 490 b 311 422 329 456 318 440 b 319 388 306 408 308 397 b 363 357 333 375 347 367 b 467 293 396 335 431 313 b 510 274 481 286 494 278 b 532 261 518 271 526 267 b 542 249 536 257 540 254 b 535 228 546 240 543 232 b 511 224 528 224 519 222 b 471 233 497 225 485 228 b 414 257 451 239 432 247 b 285 328 369 279 328 303 b 231 375 264 342 244 356 b 208 425 218 390 210 406 z "},"":{"ha":499,"x_min":0,"x_max":0,"o":"m 100 486 b 217 489 135 485 176 488 b 406 490 279 492 343 489 b 422 490 411 490 417 490 b 475 451 447 488 464 474 b 478 389 485 431 485 410 b 442 281 465 353 453 317 b 428 238 436 267 432 253 b 425 229 428 235 426 232 b 407 222 421 222 414 221 b 393 233 401 225 396 228 b 381 276 383 246 378 260 b 401 367 386 307 394 336 b 411 401 404 378 408 390 b 404 411 413 410 413 410 b 308 411 372 413 340 413 b 303 411 307 411 306 411 b 83 407 231 411 157 408 b 57 407 75 406 67 407 b 4 446 32 407 14 419 b 1 465 1 453 0 458 b 24 486 3 479 10 486 b 49 486 32 486 40 486 b 100 486 64 486 79 486 z "},"":{"ha":540,"x_min":0,"x_max":0,"o":"m 242 488 b 26 625 143 493 71 538 b 3 742 8 663 0 701 b 46 869 6 789 21 832 b 153 968 74 913 110 943 b 233 999 178 983 204 993 b 311 992 260 1004 286 1003 b 322 992 315 990 318 990 b 369 993 338 1000 354 999 b 421 953 390 983 407 969 b 515 769 465 899 496 838 b 507 661 526 733 522 696 b 392 533 483 606 443 564 b 279 492 357 513 319 499 b 242 488 267 489 254 488 z m 217 560 b 233 560 222 560 228 560 b 244 561 236 561 240 561 b 408 650 310 571 364 601 b 442 758 436 681 447 717 b 381 917 435 817 413 869 b 375 924 379 919 376 921 b 369 926 374 925 372 928 b 368 921 367 925 368 922 b 368 910 369 917 369 914 b 349 899 365 900 358 896 b 339 903 346 900 342 901 b 319 910 333 908 328 910 b 282 901 307 910 294 907 b 119 768 214 875 158 831 b 93 647 96 732 85 692 b 163 567 100 607 122 579 b 217 560 181 561 199 560 z m 288 710 b 342 693 306 703 324 696 b 376 665 358 690 369 681 b 379 658 378 663 378 660 b 367 640 381 647 376 642 b 343 640 358 638 351 639 b 240 676 307 649 274 660 b 221 689 233 679 226 683 b 215 688 218 692 215 692 b 200 635 210 669 203 653 b 199 626 200 632 200 629 b 165 614 192 610 182 606 b 146 657 149 624 142 638 b 178 793 157 703 168 747 b 183 814 179 801 181 808 b 203 826 186 824 193 828 b 219 831 208 826 214 828 b 272 846 236 840 253 846 b 340 786 304 844 335 818 b 324 740 343 768 336 753 b 299 719 317 732 307 725 b 288 710 296 717 292 715 z "},"":{"ha":472,"x_min":0,"x_max":0,"o":"m 221 1058 b 310 1057 250 1058 281 1058 b 415 1060 346 1057 381 1060 b 449 1042 431 1060 442 1054 b 457 1013 454 1033 458 1024 b 440 993 457 1001 451 996 b 394 988 425 992 410 989 b 249 981 346 985 297 982 b 86 976 194 979 140 978 b 46 978 74 976 60 976 b 28 982 40 978 33 979 b 0 1031 11 994 1 1010 b 19 1054 0 1046 6 1051 b 33 1056 24 1054 29 1056 b 183 1057 83 1058 133 1058 b 221 1057 196 1057 208 1057 b 221 1058 221 1057 221 1058 z "},"":{"ha":222,"x_min":0,"x_max":0,"o":"m 96 904 b 3 982 60 903 10 931 b 4 1017 0 993 1 1006 b 89 1101 13 1057 49 1093 b 135 1096 104 1106 119 1104 b 147 1094 139 1093 142 1092 b 161 1093 151 1096 157 1096 b 203 1028 185 1086 208 1061 b 178 956 199 1001 192 978 b 125 910 167 933 147 918 b 96 904 115 906 106 904 z m 67 968 b 78 958 67 956 68 954 b 86 961 81 958 83 960 b 142 1029 115 975 131 1000 b 139 1038 143 1033 142 1035 b 118 1039 132 1043 125 1043 b 69 982 96 1025 79 1006 b 67 968 68 976 67 971 z "},"":{"ha":513,"x_min":0,"x_max":0,"o":"m 163 485 b 211 485 181 485 196 485 b 225 496 222 485 222 485 b 257 604 236 532 246 568 b 267 635 260 614 264 625 b 292 651 271 646 279 651 b 350 606 315 651 344 629 b 349 581 353 597 351 589 b 324 513 340 558 332 536 b 315 492 321 506 318 499 b 321 485 314 486 315 485 b 329 485 324 485 326 485 b 457 486 372 483 414 486 b 490 468 472 488 483 481 b 499 440 496 460 499 450 b 482 421 499 429 494 422 b 436 415 467 418 451 417 b 296 408 390 413 343 408 b 283 399 286 408 286 408 b 238 276 268 357 254 317 b 225 246 235 265 229 256 b 168 226 213 217 188 218 b 153 238 163 228 157 232 b 150 254 149 243 147 247 b 183 354 164 286 172 321 b 196 396 188 368 192 382 b 189 404 199 403 197 404 b 114 403 164 404 139 406 b 82 404 104 403 93 404 b 72 408 79 406 75 407 b 42 458 53 419 43 436 b 61 481 42 472 47 479 b 71 482 65 482 68 482 b 163 485 103 482 135 486 z m 231 185 b 296 185 251 185 274 185 b 401 182 331 185 365 181 b 444 126 431 182 449 146 b 426 110 442 117 438 111 b 401 108 418 110 410 108 b 292 106 365 108 328 107 b 156 100 246 104 200 103 b 74 96 128 99 101 97 b 46 99 65 96 56 97 b 0 153 17 103 1 132 b 19 176 0 167 6 174 b 74 182 38 181 56 181 b 151 183 99 183 125 183 b 231 183 178 185 204 183 b 231 185 231 185 231 185 z "},"":{"ha":221,"x_min":0,"x_max":0,"o":"m 114 906 b 82 886 100 901 92 894 b 79 876 79 883 78 881 b 57 857 82 864 71 854 b 11 899 33 861 18 876 b 14 926 7 908 10 917 b 39 956 19 938 28 947 b 114 982 61 971 86 982 b 154 969 129 982 142 978 b 192 907 175 954 189 933 b 182 863 193 892 189 876 b 143 800 172 840 158 819 b 104 756 132 785 118 769 b 101 750 103 754 101 753 b 108 749 103 747 107 749 b 158 749 125 749 142 749 b 196 731 174 749 186 742 b 186 703 207 718 203 707 b 156 700 176 701 165 700 b 93 697 135 699 114 699 b 75 696 88 697 81 697 b 17 715 53 694 32 700 b 13 760 1 731 0 743 b 78 846 35 788 57 817 b 107 890 89 860 99 875 b 114 906 110 894 113 899 z "},"":{"ha":229,"x_min":0,"x_max":0,"o":"m 121 789 b 115 792 119 792 117 792 b 74 814 97 792 83 800 b 76 850 65 826 63 839 b 61 853 69 851 65 851 b 36 946 29 863 0 908 b 132 983 63 971 94 985 b 214 911 168 982 208 954 b 203 868 215 896 211 881 b 181 840 196 858 189 850 b 181 829 175 835 175 835 b 203 783 193 817 203 801 b 182 739 203 765 196 750 b 113 693 160 722 138 707 b 93 683 107 689 100 686 b 43 713 74 678 47 692 b 50 729 40 719 43 725 b 72 744 57 735 64 739 b 114 781 86 756 101 767 b 121 789 117 783 121 785 z m 142 915 b 139 917 140 915 139 917 b 94 890 121 913 107 903 b 92 869 88 883 88 876 b 142 915 103 875 136 907 z "},"":{"ha":243,"x_min":0,"x_max":0,"o":"m 229 1071 b 222 1047 229 1063 226 1056 b 204 1026 217 1040 211 1032 b 69 919 163 986 119 950 b 49 908 63 915 56 913 b 25 910 40 904 33 906 b 1 946 13 918 4 929 b 13 968 0 956 4 963 b 85 1024 38 986 61 1004 b 154 1092 110 1044 132 1068 b 167 1110 160 1097 164 1103 b 197 1122 172 1125 183 1128 b 229 1071 214 1114 229 1090 z "},"":{"ha":526,"x_min":0,"x_max":0,"o":"m -139 1 b -85 189 -122 64 -104 126 b -22 378 -65 251 -44 314 b 3 439 -15 399 -7 419 b 6 443 4 440 4 442 b 31 469 13 456 21 465 b 69 468 40 474 53 474 b 115 436 89 463 104 451 b 125 394 125 424 128 410 b 115 360 122 382 119 371 b 94 293 108 338 101 315 l 58 182 b 28 71 46 146 36 108 b 26 60 26 67 26 64 b 25 54 25 58 25 56 b 36 60 29 56 33 57 b 38 61 36 61 36 61 b 128 153 69 89 100 119 b 146 175 133 160 139 168 b 158 192 150 181 154 186 b 169 213 164 197 168 204 b 247 442 188 292 214 368 b 261 468 251 451 257 460 b 299 486 269 483 282 489 b 367 443 328 482 350 467 b 372 397 376 429 379 414 b 351 339 365 378 358 358 b 328 274 344 317 336 294 b 308 222 322 256 315 239 b 272 118 296 188 283 153 b 258 72 267 103 263 88 l 258 69 b 260 67 258 68 258 68 b 285 96 268 76 276 86 b 290 103 286 97 289 100 b 408 257 331 154 371 206 l 461 328 b 543 433 488 363 515 399 b 568 449 550 442 558 447 b 594 447 578 450 586 450 b 604 414 614 440 617 429 b 542 331 583 386 563 358 l 531 314 b 479 243 513 290 496 267 b 376 100 446 194 411 147 l 375 99 b 304 7 351 67 328 36 b 271 -22 294 -4 283 -14 b 190 -29 244 -39 218 -42 b 158 8 174 -22 163 -10 b 153 51 156 22 154 36 l 153 69 b 149 67 151 68 150 68 b 144 64 147 65 146 65 b 143 63 144 63 144 63 b 83 7 125 43 104 25 b 44 -21 71 -3 58 -12 b -6 -32 28 -29 11 -33 l -14 -60 b -25 -93 -17 -71 -21 -82 b -56 -122 -31 -107 -40 -117 b -112 -124 -74 -129 -93 -131 b -146 -103 -129 -119 -140 -112 b -151 -68 -151 -93 -153 -82 l -151 -62 b -139 1 -149 -42 -144 -19 z "},"":{"ha":503,"x_min":0,"x_max":0,"o":"m 385 636 b 325 628 364 636 344 632 b 313 617 318 626 314 624 b 282 514 303 582 294 547 b 229 372 264 467 247 419 b 168 210 208 318 189 264 b 156 182 164 200 160 190 b 128 167 149 172 140 167 b 85 182 111 167 96 171 b 78 207 78 189 75 197 b 131 374 94 263 111 318 b 122 389 136 389 132 386 b 35 436 88 394 58 410 b 0 518 13 458 0 486 b 15 567 0 536 6 551 b 65 617 28 588 46 603 b 225 694 114 650 168 675 b 342 725 263 708 301 718 b 397 728 361 728 379 731 b 467 676 429 724 451 704 b 485 614 478 657 483 636 b 476 519 489 582 483 550 b 440 410 468 482 454 446 b 353 181 411 333 382 257 b 338 143 347 168 343 156 b 311 129 332 132 322 128 b 268 158 292 132 278 142 b 267 181 264 165 264 172 b 289 256 274 206 281 231 b 361 479 314 331 338 404 b 406 622 376 526 393 574 b 394 636 408 636 408 636 b 385 636 390 636 388 636 z "},"":{"ha":117,"x_min":0,"x_max":0,"o":"m 44 368 b 4 393 28 369 14 378 b 1 410 1 399 0 404 b 19 464 6 429 11 447 b 46 481 24 476 33 482 b 93 454 65 479 81 471 b 92 419 103 442 101 432 b 67 381 81 408 74 394 b 44 368 63 371 56 367 z "},"":{"ha":254,"x_min":0,"x_max":0,"o":"m 143 -237 b 68 -217 115 -236 90 -231 b 32 -192 56 -208 43 -200 b 8 -167 24 -183 15 -176 b 1 -144 3 -160 0 -153 b 44 -107 4 -126 26 -107 b 61 -115 51 -107 58 -108 b 69 -125 63 -119 65 -122 b 149 -172 93 -144 121 -160 b 157 -175 151 -174 154 -174 b 167 -165 167 -178 168 -176 b 161 -149 165 -160 164 -154 b 136 -103 156 -132 146 -118 b 79 -15 118 -74 97 -46 b 63 18 74 -6 67 6 b 61 43 60 26 58 35 b 101 85 68 64 81 78 b 132 72 117 90 126 86 b 168 13 143 51 154 31 b 189 -18 175 3 182 -8 b 232 -108 207 -46 222 -76 b 229 -181 239 -133 240 -158 b 143 -237 213 -218 181 -235 z "},"":{"ha":154,"x_min":0,"x_max":0,"o":"m 40 704 b 3 728 24 706 11 713 b 1 746 0 733 0 739 b 21 807 7 767 14 786 b 44 871 29 828 36 850 b 42 886 47 876 46 881 b 32 903 36 890 33 896 b 40 926 29 914 31 921 b 60 947 49 932 54 939 b 71 965 64 953 67 960 b 103 974 79 976 90 979 b 132 913 119 965 140 939 b 104 835 124 886 114 861 b 64 725 92 799 78 763 b 58 715 63 722 60 718 b 40 704 56 707 49 703 z "},"":{"ha":221,"x_min":0,"x_max":0,"o":"m 1 785 b 31 897 3 825 13 863 b 44 922 35 906 40 914 b 89 961 56 939 71 951 b 149 961 108 972 129 972 b 201 879 181 943 197 915 b 181 776 207 843 197 808 b 124 713 167 751 147 729 b 43 706 97 694 71 692 b 1 774 15 719 3 744 b 1 785 0 778 1 782 z m 143 883 b 143 892 143 886 143 889 b 139 900 143 894 143 899 b 131 897 136 900 133 899 b 121 883 126 893 122 889 b 117 835 114 868 113 851 b 122 828 117 831 119 829 b 129 829 125 825 128 825 b 143 883 136 847 143 864 z m 76 811 b 74 808 75 810 74 810 b 68 757 68 792 67 775 b 75 754 68 753 71 751 b 106 785 86 763 96 772 b 103 792 107 788 107 790 b 76 811 93 797 85 803 z "},"":{"ha":563,"x_min":0,"x_max":0,"o":"m 546 538 b 533 479 549 517 542 497 b 514 447 528 468 521 457 b 426 350 488 413 458 381 b 324 256 393 317 360 286 b 285 228 313 244 299 235 b 238 233 268 219 251 222 b 213 263 226 240 218 250 b 219 303 206 278 208 290 b 235 317 224 307 229 313 b 349 432 274 354 311 393 b 411 493 369 453 390 472 b 443 542 424 507 435 522 b 433 576 447 556 444 567 b 392 606 421 588 406 597 b 288 669 357 628 324 650 b 244 689 274 678 260 685 b 221 701 236 692 228 696 b 213 714 217 706 214 708 b 219 735 208 722 211 731 b 242 739 226 739 235 740 b 283 731 256 738 269 735 b 340 706 303 724 322 715 b 468 635 385 683 426 660 b 524 588 490 622 508 607 b 546 538 536 572 544 557 z m 340 538 b 328 479 343 517 336 497 b 308 447 322 468 315 457 b 221 350 282 413 253 381 b 118 256 188 317 154 286 b 79 228 107 244 93 235 b 32 233 63 219 46 222 b 7 263 21 240 13 250 b 14 303 0 278 3 290 b 29 317 18 307 24 313 b 143 432 68 354 106 393 b 206 493 164 453 185 472 b 238 542 218 507 229 522 b 228 576 242 556 239 567 b 186 606 215 588 200 597 b 82 669 151 628 118 650 b 39 689 68 678 54 685 b 15 701 31 692 22 696 b 7 714 11 706 8 708 b 14 735 3 722 6 731 b 36 739 21 739 29 740 b 78 731 50 738 64 735 b 135 706 97 724 117 715 b 263 635 179 683 221 660 b 318 588 285 622 303 607 b 340 538 331 572 339 557 z "},"":{"ha":518,"x_min":0,"x_max":0,"o":"m 47 108 b 6 132 29 110 15 118 b 7 158 0 142 0 149 b 63 229 25 182 43 206 b 286 497 136 318 211 408 b 389 621 321 539 353 581 b 426 660 400 635 414 647 b 468 664 440 672 451 674 b 496 633 481 657 490 647 b 490 601 500 621 499 611 b 389 486 456 563 422 524 b 292 374 357 449 325 411 b 208 278 264 342 236 310 b 76 129 164 228 121 179 b 65 117 74 125 69 121 b 47 108 61 111 54 108 z m 432 344 b 442 364 436 350 439 357 b 478 375 450 381 461 385 b 494 360 485 371 490 365 b 497 324 503 349 504 336 b 467 264 488 304 476 283 b 392 117 442 215 415 167 b 354 104 383 97 372 94 b 342 115 350 107 346 111 b 338 139 335 122 333 129 b 353 176 342 151 347 164 b 347 186 356 183 356 183 b 304 213 331 190 317 200 b 296 221 301 215 299 218 b 294 279 281 243 281 257 b 326 319 304 294 315 307 b 371 372 342 338 358 353 b 392 381 376 379 383 382 b 428 351 408 376 419 367 b 432 344 429 349 429 346 z m 350 232 b 363 232 354 231 358 231 b 372 235 365 233 369 235 b 385 244 379 235 382 239 b 419 317 396 268 408 292 b 421 322 421 318 422 321 b 350 232 411 315 353 240 z m 139 518 b 140 526 140 521 140 524 b 183 668 151 575 165 622 b 210 681 189 682 197 685 b 238 657 222 676 232 668 b 239 635 242 650 242 642 b 219 588 232 619 226 603 b 193 501 210 560 201 531 b 193 499 193 500 193 500 b 163 485 189 482 179 476 b 139 518 150 492 140 501 z "},"":{"ha":553,"x_min":0,"x_max":0,"o":"m 44 119 b 6 142 26 121 14 128 b 7 165 0 150 1 158 b 46 217 18 183 32 200 b 157 339 81 258 119 299 b 321 514 211 397 267 456 b 451 656 365 561 408 608 b 474 676 458 663 465 671 b 506 681 483 685 494 686 b 538 640 522 671 532 657 b 532 618 539 632 538 624 b 489 571 517 603 504 586 b 431 511 471 550 451 531 b 358 439 407 488 382 464 b 210 289 308 389 260 339 b 117 193 179 257 149 225 b 63 129 97 172 79 151 b 44 119 58 122 51 118 z m 354 183 b 383 183 364 182 374 183 b 426 164 403 185 415 178 b 415 136 436 150 431 139 b 354 131 394 132 375 132 b 311 131 340 129 325 129 b 265 154 292 131 276 139 b 264 188 256 165 256 175 b 296 225 274 201 285 213 b 344 288 313 246 329 267 b 350 299 347 290 350 293 b 333 285 343 294 338 290 b 310 278 326 276 321 274 b 279 306 296 282 286 292 b 286 339 275 318 276 331 b 361 376 308 357 332 372 b 435 317 396 382 432 351 b 431 293 435 308 433 301 b 418 269 426 285 422 276 b 360 193 400 242 381 217 b 354 183 357 190 354 189 z m 208 446 b 169 478 193 446 174 463 b 171 490 169 482 169 486 b 218 640 185 542 201 590 b 246 654 222 656 232 660 b 275 629 258 650 268 642 b 276 603 279 621 281 613 b 258 554 271 588 264 571 b 228 467 249 525 238 496 b 224 457 226 463 225 460 b 208 446 221 449 215 446 z "},"":{"ha":560,"x_min":0,"x_max":0,"o":"m 49 113 b 7 138 31 114 17 122 b 8 165 0 147 1 156 b 63 231 25 189 43 210 b 182 360 103 274 143 317 b 322 510 229 410 275 460 b 450 643 364 556 406 600 b 471 663 457 650 464 657 b 528 658 492 681 510 679 b 536 647 531 654 533 651 b 533 601 546 632 544 617 b 482 540 518 581 500 560 b 415 471 461 517 438 494 b 126 182 319 375 224 279 b 69 121 107 163 88 143 b 49 113 64 115 57 113 z m 422 340 b 435 367 426 350 431 358 b 457 375 439 376 447 379 b 489 342 474 369 483 358 b 486 322 490 336 489 329 b 467 269 479 304 472 288 b 406 114 446 218 426 167 b 399 99 404 110 401 104 b 375 90 393 89 386 86 b 351 110 364 94 357 101 b 349 135 346 118 344 126 b 368 188 356 151 361 169 b 361 196 371 196 371 196 b 328 203 350 197 339 199 b 297 221 317 206 306 211 b 288 271 283 235 279 251 b 313 310 293 285 303 297 b 360 364 328 328 344 346 b 401 368 374 379 388 376 b 422 340 411 361 417 353 z m 413 313 b 354 244 396 300 358 254 b 368 243 358 243 364 243 b 396 264 388 244 389 246 b 413 313 401 281 407 296 z m 185 665 b 210 661 192 665 201 664 b 246 579 242 651 263 611 b 218 540 239 564 228 553 b 207 529 214 536 211 532 b 207 515 201 522 201 522 b 219 488 213 507 217 497 b 203 444 222 469 217 454 b 132 407 181 429 157 417 b 122 404 129 406 126 406 b 75 439 99 399 76 414 b 85 457 74 447 76 454 b 146 490 107 464 126 478 b 147 501 153 496 153 496 b 138 517 143 507 140 511 b 142 556 129 531 131 543 b 150 567 144 558 151 561 b 138 575 150 572 142 572 b 115 608 126 583 119 594 b 144 657 111 628 124 649 b 185 665 157 663 169 665 z "},"":{"ha":479,"x_min":0,"x_max":0,"o":"m 417 778 b 464 743 438 778 458 761 b 463 726 465 738 464 732 b 451 690 460 714 456 703 b 433 644 444 675 439 660 b 408 628 428 632 421 628 b 354 668 386 629 361 649 b 356 693 351 676 351 685 b 400 767 371 717 385 742 b 417 778 404 774 410 778 z m 149 -18 b 318 69 217 -12 276 11 b 340 117 329 83 335 100 b 338 128 342 121 342 125 b 329 143 333 132 331 138 b 343 168 325 156 331 164 b 368 168 351 171 360 171 b 425 96 397 160 425 136 b 369 -28 426 46 406 6 b 197 -100 321 -72 263 -94 b 67 -62 149 -104 104 -93 b 1 63 26 -31 3 11 b 19 142 0 90 7 117 b 65 211 31 168 47 190 b 167 317 94 250 131 285 b 238 389 192 340 217 363 b 288 468 257 414 272 440 b 333 553 304 496 318 525 b 342 569 336 558 339 564 b 363 585 344 579 353 585 b 410 565 382 586 397 579 b 418 533 418 556 419 544 b 411 510 417 525 414 517 b 353 376 394 464 374 419 b 315 325 343 358 329 340 b 260 268 297 306 279 286 b 154 154 222 232 186 196 b 103 69 133 128 115 100 b 93 7 94 49 92 29 b 107 -11 93 -4 96 -7 b 121 -15 111 -12 117 -14 b 149 -18 129 -17 139 -18 z "},"":{"ha":1139,"x_min":0,"x_max":0,"o":"m 799 874 l 796 872 b 788 865 792 869 789 868 b 593 772 726 826 663 796 b 497 757 563 761 531 756 b 364 808 446 757 401 774 b 326 885 343 829 331 856 b 326 911 324 893 324 903 b 361 943 331 931 343 940 b 396 939 374 944 386 943 b 442 910 414 932 429 922 b 463 864 453 897 460 882 b 464 857 463 863 463 860 b 468 849 464 853 465 850 b 478 844 469 847 474 846 b 522 849 493 844 508 846 b 611 885 554 856 583 868 b 803 1000 676 922 740 961 l 814 1007 b 882 1050 838 1021 860 1035 b 974 1110 914 1069 944 1089 l 1014 1135 b 1049 1139 1024 1143 1036 1146 b 1081 1118 1061 1136 1072 1129 b 1085 1114 1082 1117 1083 1115 b 1103 1092 1090 1107 1097 1100 b 1129 993 1121 1063 1131 1029 b 1118 881 1128 956 1124 918 b 1085 711 1108 824 1097 768 l 1043 532 b 1003 369 1031 478 1017 424 l 982 286 b 972 249 978 274 975 261 b 954 186 965 228 960 206 b 942 133 950 168 946 150 b 935 106 939 124 936 115 b 907 -4 924 69 915 33 b 882 -89 899 -33 890 -61 l 871 -126 b 840 -214 863 -157 853 -186 b 801 -247 832 -231 818 -242 b 751 -253 785 -251 768 -254 b 717 -237 738 -251 726 -247 b 704 -212 708 -232 704 -222 b 718 -131 707 -185 711 -157 l 721 -112 b 763 86 735 -46 749 21 b 789 197 772 124 781 160 l 790 200 b 790 207 790 203 790 204 l 789 208 b 754 218 775 207 764 210 b 738 250 744 225 739 236 b 742 264 736 256 738 260 b 753 276 746 268 750 272 b 771 300 761 283 767 292 b 771 311 772 306 772 308 b 764 317 771 313 768 315 b 681 340 738 329 710 338 b 600 349 654 344 628 347 l 599 350 b 596 349 597 349 596 349 b 576 342 589 350 582 347 b 526 285 560 322 543 303 b 514 271 522 281 518 276 l 447 204 l 443 200 b 393 154 426 185 410 168 l 378 140 b 340 107 367 129 354 118 b 238 24 307 78 272 50 b 226 13 233 21 229 17 b 172 -26 208 0 190 -14 b 97 -69 149 -43 124 -57 b 19 -86 72 -81 46 -86 b -82 -44 -18 -85 -53 -71 b -111 13 -99 -29 -108 -10 b -103 103 -117 43 -114 74 b -68 174 -94 128 -83 151 b -57 190 -65 181 -61 186 b -53 197 -57 192 -56 194 b 8 264 -36 221 -15 243 b 88 322 32 286 58 306 b 161 360 111 335 136 347 b 222 383 181 368 201 376 b 285 404 243 392 264 399 b 301 407 290 404 296 406 b 317 411 307 408 311 410 b 393 424 342 417 367 421 b 439 426 408 425 424 426 b 456 433 446 426 451 428 b 475 458 461 442 468 450 b 513 504 488 474 500 489 b 522 515 517 508 519 513 b 528 524 525 518 526 521 b 540 539 532 529 536 535 b 574 581 551 553 563 567 b 575 582 574 581 574 582 b 638 665 597 610 618 638 b 738 793 671 708 704 751 b 781 849 753 811 767 829 l 800 872 l 799 872 z m 938 801 l 935 801 b 933 800 935 801 935 800 b 931 796 933 799 932 797 b 910 765 924 786 917 776 l 860 696 b 858 694 860 696 860 694 b 796 607 838 664 818 635 b 736 533 776 583 757 558 b 715 507 731 525 722 515 b 711 500 714 504 713 503 b 706 493 708 499 707 496 b 675 456 696 481 686 468 b 658 436 669 450 664 443 l 654 431 b 644 418 649 428 646 422 l 696 406 b 767 376 721 400 744 390 b 815 335 786 367 803 353 b 817 333 815 335 817 335 b 819 333 818 333 819 333 b 824 342 822 336 822 339 l 839 413 b 865 524 847 449 856 486 b 917 728 882 592 899 660 l 919 740 b 926 763 922 747 924 754 b 938 801 929 775 933 789 z m 351 321 b 325 314 342 319 333 317 b 250 288 299 307 275 297 b 194 261 232 279 213 271 l 186 256 b 157 239 176 251 167 246 b 104 203 139 228 122 215 b 39 139 81 185 58 163 b 8 89 26 124 17 107 b -8 6 -6 63 -11 35 b -6 -3 -7 3 -7 0 b 1 -7 -4 -7 -3 -8 b 10 -1 4 -6 7 -3 b 13 0 10 -1 11 -1 b 44 22 24 7 33 14 l 64 38 b 96 65 75 47 86 56 b 133 97 110 75 122 86 l 138 103 b 188 149 154 117 171 132 l 235 194 l 279 242 b 322 286 293 257 308 271 b 332 297 325 289 328 293 l 336 301 b 351 321 342 307 347 313 z m 1004 1363 b 1036 1414 1004 1382 1018 1406 b 1065 1401 1050 1419 1060 1417 b 1078 1383 1068 1394 1072 1389 b 1147 1315 1100 1360 1124 1336 b 1221 1260 1171 1296 1196 1278 b 1232 1238 1229 1254 1233 1247 b 1207 1201 1229 1221 1221 1210 b 1183 1200 1200 1197 1192 1196 b 1163 1211 1176 1204 1169 1207 b 1028 1318 1114 1242 1069 1278 b 1011 1339 1021 1324 1015 1332 b 1004 1363 1006 1347 1004 1354 z "},"":{"ha":1139,"x_min":0,"x_max":0,"o":"m 799 874 l 796 872 b 788 865 792 869 789 868 b 593 772 726 826 663 796 b 497 757 563 761 531 756 b 364 808 446 757 401 774 b 326 885 343 829 331 856 b 326 911 324 893 324 903 b 361 943 331 931 343 940 b 396 939 374 944 386 943 b 442 910 414 932 429 922 b 463 864 453 897 460 882 b 464 857 463 863 463 860 b 468 849 464 853 465 850 b 478 844 469 847 474 846 b 522 849 493 844 508 846 b 611 885 554 856 583 868 b 803 1000 676 922 740 961 l 814 1007 b 882 1050 838 1021 860 1035 b 974 1110 914 1069 944 1089 l 1014 1135 b 1049 1139 1024 1143 1036 1146 b 1081 1118 1061 1136 1072 1129 b 1085 1114 1082 1117 1083 1115 b 1103 1092 1090 1107 1097 1100 b 1129 993 1121 1063 1131 1029 b 1118 881 1128 956 1124 918 b 1085 711 1108 824 1097 768 l 1043 532 b 1003 369 1031 478 1017 424 l 982 286 b 972 249 978 274 975 261 b 954 186 965 228 960 206 b 942 133 950 168 946 150 b 935 106 939 124 936 115 b 907 -4 924 69 915 33 b 882 -89 899 -33 890 -61 l 871 -126 b 840 -214 863 -157 853 -186 b 801 -247 832 -231 818 -242 b 751 -253 785 -251 768 -254 b 717 -237 738 -251 726 -247 b 704 -212 708 -232 704 -222 b 718 -131 707 -185 711 -157 l 721 -112 b 763 86 735 -46 749 21 b 789 197 772 124 781 160 l 790 200 b 790 207 790 203 790 204 l 789 208 b 754 218 775 207 764 210 b 738 250 744 225 739 236 b 742 264 736 256 738 260 b 753 276 746 268 750 272 b 771 300 761 283 767 292 b 771 311 772 306 772 308 b 764 317 771 313 768 315 b 681 340 738 329 710 338 b 600 349 654 344 628 347 l 599 350 b 596 349 597 349 596 349 b 576 342 589 350 582 347 b 526 285 560 322 543 303 b 514 271 522 281 518 276 l 447 204 l 443 200 b 393 154 426 185 410 168 l 378 140 b 340 107 367 129 354 118 b 238 24 307 78 272 50 b 226 13 233 21 229 17 b 172 -26 208 0 190 -14 b 97 -69 149 -43 124 -57 b 19 -86 72 -81 46 -86 b -82 -44 -18 -85 -53 -71 b -111 13 -99 -29 -108 -10 b -103 103 -117 43 -114 74 b -68 174 -94 128 -83 151 b -57 190 -65 181 -61 186 b -53 197 -57 192 -56 194 b 8 264 -36 221 -15 243 b 88 322 32 286 58 306 b 161 360 111 335 136 347 b 222 383 181 368 201 376 b 285 404 243 392 264 399 b 301 407 290 404 296 406 b 317 411 307 408 311 410 b 393 424 342 417 367 421 b 439 426 408 425 424 426 b 456 433 446 426 451 428 b 475 458 461 442 468 450 b 513 504 488 474 500 489 b 522 515 517 508 519 513 b 528 524 525 518 526 521 b 540 539 532 529 536 535 b 574 581 551 553 563 567 b 575 582 574 581 574 582 b 638 665 597 610 618 638 b 738 793 671 708 704 751 b 781 849 753 811 767 829 l 800 872 l 799 872 z m 938 801 l 935 801 b 933 800 935 801 935 800 b 931 796 933 799 932 797 b 910 765 924 786 917 776 l 860 696 b 858 694 860 696 860 694 b 796 607 838 664 818 635 b 736 533 776 583 757 558 b 715 507 731 525 722 515 b 711 500 714 504 713 503 b 706 493 708 499 707 496 b 675 456 696 481 686 468 b 658 436 669 450 664 443 l 654 431 b 644 418 649 428 646 422 l 696 406 b 767 376 721 400 744 390 b 815 335 786 367 803 353 b 817 333 815 335 817 335 b 819 333 818 333 819 333 b 824 342 822 336 822 339 l 839 413 b 865 524 847 449 856 486 b 917 728 882 592 899 660 l 919 740 b 926 763 922 747 924 754 b 938 801 929 775 933 789 z m 351 321 b 325 314 342 319 333 317 b 250 288 299 307 275 297 b 194 261 232 279 213 271 l 186 256 b 157 239 176 251 167 246 b 104 203 139 228 122 215 b 39 139 81 185 58 163 b 8 89 26 124 17 107 b -8 6 -6 63 -11 35 b -6 -3 -7 3 -7 0 b 1 -7 -4 -7 -3 -8 b 10 -1 4 -6 7 -3 b 13 0 10 -1 11 -1 b 44 22 24 7 33 14 l 64 38 b 96 65 75 47 86 56 b 133 97 110 75 122 86 l 138 103 b 188 149 154 117 171 132 l 235 194 l 279 242 b 322 286 293 257 308 271 b 332 297 325 289 328 293 l 336 301 b 351 321 342 307 347 313 z m 1304 1365 b 1297 1342 1304 1357 1301 1350 b 1279 1321 1292 1335 1286 1326 b 1144 1214 1238 1281 1194 1244 b 1124 1203 1138 1210 1131 1207 b 1100 1204 1115 1199 1108 1200 b 1076 1240 1088 1213 1079 1224 b 1088 1263 1075 1250 1079 1257 b 1160 1318 1113 1281 1136 1299 b 1229 1386 1185 1339 1207 1363 b 1242 1404 1235 1392 1239 1397 b 1272 1417 1247 1419 1258 1422 b 1304 1365 1289 1408 1304 1385 z "},"":{"ha":1139,"x_min":0,"x_max":0,"o":"m 799 874 l 796 872 b 788 865 792 869 789 868 b 593 772 726 826 663 796 b 497 757 563 761 531 756 b 364 808 446 757 401 774 b 326 885 343 829 331 856 b 326 911 324 893 324 903 b 361 943 331 931 343 940 b 396 939 374 944 386 943 b 442 910 414 932 429 922 b 463 864 453 897 460 882 b 464 857 463 863 463 860 b 468 849 464 853 465 850 b 478 844 469 847 474 846 b 522 849 493 844 508 846 b 611 885 554 856 583 868 b 803 1000 676 922 740 961 l 814 1007 b 882 1050 838 1021 860 1035 b 974 1110 914 1069 944 1089 l 1014 1135 b 1049 1139 1024 1143 1036 1146 b 1081 1118 1061 1136 1072 1129 b 1085 1114 1082 1117 1083 1115 b 1103 1092 1090 1107 1097 1100 b 1129 993 1121 1063 1131 1029 b 1118 881 1128 956 1124 918 b 1085 711 1108 824 1097 768 l 1043 532 b 1003 369 1031 478 1017 424 l 982 286 b 972 249 978 274 975 261 b 954 186 965 228 960 206 b 942 133 950 168 946 150 b 935 106 939 124 936 115 b 907 -4 924 69 915 33 b 882 -89 899 -33 890 -61 l 871 -126 b 840 -214 863 -157 853 -186 b 801 -247 832 -231 818 -242 b 751 -253 785 -251 768 -254 b 717 -237 738 -251 726 -247 b 704 -212 708 -232 704 -222 b 718 -131 707 -185 711 -157 l 721 -112 b 763 86 735 -46 749 21 b 789 197 772 124 781 160 l 790 200 b 790 207 790 203 790 204 l 789 208 b 754 218 775 207 764 210 b 738 250 744 225 739 236 b 742 264 736 256 738 260 b 753 276 746 268 750 272 b 771 300 761 283 767 292 b 771 311 772 306 772 308 b 764 317 771 313 768 315 b 681 340 738 329 710 338 b 600 349 654 344 628 347 l 599 350 b 596 349 597 349 596 349 b 576 342 589 350 582 347 b 526 285 560 322 543 303 b 514 271 522 281 518 276 l 447 204 l 443 200 b 393 154 426 185 410 168 l 378 140 b 340 107 367 129 354 118 b 238 24 307 78 272 50 b 226 13 233 21 229 17 b 172 -26 208 0 190 -14 b 97 -69 149 -43 124 -57 b 19 -86 72 -81 46 -86 b -82 -44 -18 -85 -53 -71 b -111 13 -99 -29 -108 -10 b -103 103 -117 43 -114 74 b -68 174 -94 128 -83 151 b -57 190 -65 181 -61 186 b -53 197 -57 192 -56 194 b 8 264 -36 221 -15 243 b 88 322 32 286 58 306 b 161 360 111 335 136 347 b 222 383 181 368 201 376 b 285 404 243 392 264 399 b 301 407 290 404 296 406 b 317 411 307 408 311 410 b 393 424 342 417 367 421 b 439 426 408 425 424 426 b 456 433 446 426 451 428 b 475 458 461 442 468 450 b 513 504 488 474 500 489 b 522 515 517 508 519 513 b 528 524 525 518 526 521 b 540 539 532 529 536 535 b 574 581 551 553 563 567 b 575 582 574 581 574 582 b 638 665 597 610 618 638 b 738 793 671 708 704 751 b 781 849 753 811 767 829 l 800 872 l 799 872 z m 938 801 l 935 801 b 933 800 935 801 935 800 b 931 796 933 799 932 797 b 910 765 924 786 917 776 l 860 696 b 858 694 860 696 860 694 b 796 607 838 664 818 635 b 736 533 776 583 757 558 b 715 507 731 525 722 515 b 711 500 714 504 713 503 b 706 493 708 499 707 496 b 675 456 696 481 686 468 b 658 436 669 450 664 443 l 654 431 b 644 418 649 428 646 422 l 696 406 b 767 376 721 400 744 390 b 815 335 786 367 803 353 b 817 333 815 335 817 335 b 819 333 818 333 819 333 b 824 342 822 336 822 339 l 839 413 b 865 524 847 449 856 486 b 917 728 882 592 899 660 l 919 740 b 926 763 922 747 924 754 b 938 801 929 775 933 789 z m 351 321 b 325 314 342 319 333 317 b 250 288 299 307 275 297 b 194 261 232 279 213 271 l 186 256 b 157 239 176 251 167 246 b 104 203 139 228 122 215 b 39 139 81 185 58 163 b 8 89 26 124 17 107 b -8 6 -6 63 -11 35 b -6 -3 -7 3 -7 0 b 1 -7 -4 -7 -3 -8 b 10 -1 4 -6 7 -3 b 13 0 10 -1 11 -1 b 44 22 24 7 33 14 l 64 38 b 96 65 75 47 86 56 b 133 97 110 75 122 86 l 138 103 b 188 149 154 117 171 132 l 235 194 l 279 242 b 322 286 293 257 308 271 b 332 297 325 289 328 293 l 336 301 b 351 321 342 307 347 313 z m 1136 1283 b 1129 1278 1133 1283 1131 1281 b 1046 1200 1101 1251 1074 1226 b 997 1197 1031 1185 1015 1183 b 985 1211 992 1201 988 1206 b 985 1240 978 1222 978 1231 b 1054 1317 1007 1267 1031 1292 b 1099 1360 1068 1332 1083 1347 b 1149 1371 1114 1372 1131 1375 b 1199 1332 1171 1364 1188 1351 b 1232 1233 1218 1301 1226 1268 b 1233 1193 1233 1219 1233 1207 b 1207 1169 1233 1176 1225 1168 b 1160 1194 1188 1171 1172 1181 b 1142 1242 1147 1207 1142 1224 b 1139 1276 1142 1253 1140 1265 b 1136 1283 1139 1279 1139 1282 z "},"":{"ha":1139,"x_min":0,"x_max":0,"o":"m 799 874 l 796 872 b 788 865 792 869 789 868 b 593 772 726 826 663 796 b 497 757 563 761 531 756 b 364 808 446 757 401 774 b 326 885 343 829 331 856 b 326 911 324 893 324 903 b 361 943 331 931 343 940 b 396 939 374 944 386 943 b 442 910 414 932 429 922 b 463 864 453 897 460 882 b 464 857 463 863 463 860 b 468 849 464 853 465 850 b 478 844 469 847 474 846 b 522 849 493 844 508 846 b 611 885 554 856 583 868 b 803 1000 676 922 740 961 l 814 1007 b 882 1050 838 1021 860 1035 b 974 1110 914 1069 944 1089 l 1014 1135 b 1049 1139 1024 1143 1036 1146 b 1081 1118 1061 1136 1072 1129 b 1085 1114 1082 1117 1083 1115 b 1103 1092 1090 1107 1097 1100 b 1129 993 1121 1063 1131 1029 b 1118 881 1128 956 1124 918 b 1085 711 1108 824 1097 768 l 1043 532 b 1003 369 1031 478 1017 424 l 982 286 b 972 249 978 274 975 261 b 954 186 965 228 960 206 b 942 133 950 168 946 150 b 935 106 939 124 936 115 b 907 -4 924 69 915 33 b 882 -89 899 -33 890 -61 l 871 -126 b 840 -214 863 -157 853 -186 b 801 -247 832 -231 818 -242 b 751 -253 785 -251 768 -254 b 717 -237 738 -251 726 -247 b 704 -212 708 -232 704 -222 b 718 -131 707 -185 711 -157 l 721 -112 b 763 86 735 -46 749 21 b 789 197 772 124 781 160 l 790 200 b 790 207 790 203 790 204 l 789 208 b 754 218 775 207 764 210 b 738 250 744 225 739 236 b 742 264 736 256 738 260 b 753 276 746 268 750 272 b 771 300 761 283 767 292 b 771 311 772 306 772 308 b 764 317 771 313 768 315 b 681 340 738 329 710 338 b 600 349 654 344 628 347 l 599 350 b 596 349 597 349 596 349 b 576 342 589 350 582 347 b 526 285 560 322 543 303 b 514 271 522 281 518 276 l 447 204 l 443 200 b 393 154 426 185 410 168 l 378 140 b 340 107 367 129 354 118 b 238 24 307 78 272 50 b 226 13 233 21 229 17 b 172 -26 208 0 190 -14 b 97 -69 149 -43 124 -57 b 19 -86 72 -81 46 -86 b -82 -44 -18 -85 -53 -71 b -111 13 -99 -29 -108 -10 b -103 103 -117 43 -114 74 b -68 174 -94 128 -83 151 b -57 190 -65 181 -61 186 b -53 197 -57 192 -56 194 b 8 264 -36 221 -15 243 b 88 322 32 286 58 306 b 161 360 111 335 136 347 b 222 383 181 368 201 376 b 285 404 243 392 264 399 b 301 407 290 404 296 406 b 317 411 307 408 311 410 b 393 424 342 417 367 421 b 439 426 408 425 424 426 b 456 433 446 426 451 428 b 475 458 461 442 468 450 b 513 504 488 474 500 489 b 522 515 517 508 519 513 b 528 524 525 518 526 521 b 540 539 532 529 536 535 b 574 581 551 553 563 567 b 575 582 574 581 574 582 b 638 665 597 610 618 638 b 738 793 671 708 704 751 b 781 849 753 811 767 829 l 800 872 l 799 872 z m 938 801 l 935 801 b 933 800 935 801 935 800 b 931 796 933 799 932 797 b 910 765 924 786 917 776 l 860 696 b 858 694 860 696 860 694 b 796 607 838 664 818 635 b 736 533 776 583 757 558 b 715 507 731 525 722 515 b 711 500 714 504 713 503 b 706 493 708 499 707 496 b 675 456 696 481 686 468 b 658 436 669 450 664 443 l 654 431 b 644 418 649 428 646 422 l 696 406 b 767 376 721 400 744 390 b 815 335 786 367 803 353 b 817 333 815 335 817 335 b 819 333 818 333 819 333 b 824 342 822 336 822 339 l 839 413 b 865 524 847 449 856 486 b 917 728 882 592 899 660 l 919 740 b 926 763 922 747 924 754 b 938 801 929 775 933 789 z m 351 321 b 325 314 342 319 333 317 b 250 288 299 307 275 297 b 194 261 232 279 213 271 l 186 256 b 157 239 176 251 167 246 b 104 203 139 228 122 215 b 39 139 81 185 58 163 b 8 89 26 124 17 107 b -8 6 -6 63 -11 35 b -6 -3 -7 3 -7 0 b 1 -7 -4 -7 -3 -8 b 10 -1 4 -6 7 -3 b 13 0 10 -1 11 -1 b 44 22 24 7 33 14 l 64 38 b 96 65 75 47 86 56 b 133 97 110 75 122 86 l 138 103 b 188 149 154 117 171 132 l 235 194 l 279 242 b 322 286 293 257 308 271 b 332 297 325 289 328 293 l 336 301 b 351 321 342 307 347 313 z m 1204 1201 b 1126 1221 1174 1200 1150 1208 b 1103 1236 1118 1225 1110 1231 b 1096 1240 1100 1238 1097 1239 b 1007 1221 1058 1264 1024 1243 b 1003 1208 1004 1217 1004 1213 b 982 1193 1001 1196 994 1190 b 961 1204 974 1194 967 1199 b 971 1311 919 1243 940 1292 b 1085 1317 1008 1335 1046 1336 b 1115 1296 1096 1311 1106 1304 b 1149 1276 1126 1289 1136 1282 b 1182 1276 1160 1272 1171 1272 b 1244 1308 1204 1285 1226 1294 b 1267 1310 1251 1315 1260 1314 b 1290 1278 1279 1303 1286 1290 b 1282 1242 1294 1264 1292 1251 b 1238 1208 1268 1228 1254 1217 b 1204 1201 1226 1203 1214 1200 z "},"":{"ha":1139,"x_min":0,"x_max":0,"o":"m 799 874 l 796 872 b 788 865 792 869 789 868 b 593 772 726 826 663 796 b 497 757 563 761 531 756 b 364 808 446 757 401 774 b 326 885 343 829 331 856 b 326 911 324 893 324 903 b 361 943 331 931 343 940 b 396 939 374 944 386 943 b 442 910 414 932 429 922 b 463 864 453 897 460 882 b 464 857 463 863 463 860 b 468 849 464 853 465 850 b 478 844 469 847 474 846 b 522 849 493 844 508 846 b 611 885 554 856 583 868 b 803 1000 676 922 740 961 l 814 1007 b 882 1050 838 1021 860 1035 b 974 1110 914 1069 944 1089 l 1014 1135 b 1049 1139 1024 1143 1036 1146 b 1081 1118 1061 1136 1072 1129 b 1085 1114 1082 1117 1083 1115 b 1103 1092 1090 1107 1097 1100 b 1129 993 1121 1063 1131 1029 b 1118 881 1128 956 1124 918 b 1085 711 1108 824 1097 768 l 1043 532 b 1003 369 1031 478 1017 424 l 982 286 b 972 249 978 274 975 261 b 954 186 965 228 960 206 b 942 133 950 168 946 150 b 935 106 939 124 936 115 b 907 -4 924 69 915 33 b 882 -89 899 -33 890 -61 l 871 -126 b 840 -214 863 -157 853 -186 b 801 -247 832 -231 818 -242 b 751 -253 785 -251 768 -254 b 717 -237 738 -251 726 -247 b 704 -212 708 -232 704 -222 b 718 -131 707 -185 711 -157 l 721 -112 b 763 86 735 -46 749 21 b 789 197 772 124 781 160 l 790 200 b 790 207 790 203 790 204 l 789 208 b 754 218 775 207 764 210 b 738 250 744 225 739 236 b 742 264 736 256 738 260 b 753 276 746 268 750 272 b 771 300 761 283 767 292 b 771 311 772 306 772 308 b 764 317 771 313 768 315 b 681 340 738 329 710 338 b 600 349 654 344 628 347 l 599 350 b 596 349 597 349 596 349 b 576 342 589 350 582 347 b 526 285 560 322 543 303 b 514 271 522 281 518 276 l 447 204 l 443 200 b 393 154 426 185 410 168 l 378 140 b 340 107 367 129 354 118 b 238 24 307 78 272 50 b 226 13 233 21 229 17 b 172 -26 208 0 190 -14 b 97 -69 149 -43 124 -57 b 19 -86 72 -81 46 -86 b -82 -44 -18 -85 -53 -71 b -111 13 -99 -29 -108 -10 b -103 103 -117 43 -114 74 b -68 174 -94 128 -83 151 b -57 190 -65 181 -61 186 b -53 197 -57 192 -56 194 b 8 264 -36 221 -15 243 b 88 322 32 286 58 306 b 161 360 111 335 136 347 b 222 383 181 368 201 376 b 285 404 243 392 264 399 b 301 407 290 404 296 406 b 317 411 307 408 311 410 b 393 424 342 417 367 421 b 439 426 408 425 424 426 b 456 433 446 426 451 428 b 475 458 461 442 468 450 b 513 504 488 474 500 489 b 522 515 517 508 519 513 b 528 524 525 518 526 521 b 540 539 532 529 536 535 b 574 581 551 553 563 567 b 575 582 574 581 574 582 b 638 665 597 610 618 638 b 738 793 671 708 704 751 b 781 849 753 811 767 829 l 800 872 l 799 872 z m 938 801 l 935 801 b 933 800 935 801 935 800 b 931 796 933 799 932 797 b 910 765 924 786 917 776 l 860 696 b 858 694 860 696 860 694 b 796 607 838 664 818 635 b 736 533 776 583 757 558 b 715 507 731 525 722 515 b 711 500 714 504 713 503 b 706 493 708 499 707 496 b 675 456 696 481 686 468 b 658 436 669 450 664 443 l 654 431 b 644 418 649 428 646 422 l 696 406 b 767 376 721 400 744 390 b 815 335 786 367 803 353 b 817 333 815 335 817 335 b 819 333 818 333 819 333 b 824 342 822 336 822 339 l 839 413 b 865 524 847 449 856 486 b 917 728 882 592 899 660 l 919 740 b 926 763 922 747 924 754 b 938 801 929 775 933 789 z m 351 321 b 325 314 342 319 333 317 b 250 288 299 307 275 297 b 194 261 232 279 213 271 l 186 256 b 157 239 176 251 167 246 b 104 203 139 228 122 215 b 39 139 81 185 58 163 b 8 89 26 124 17 107 b -8 6 -6 63 -11 35 b -6 -3 -7 3 -7 0 b 1 -7 -4 -7 -3 -8 b 10 -1 4 -6 7 -3 b 13 0 10 -1 11 -1 b 44 22 24 7 33 14 l 64 38 b 96 65 75 47 86 56 b 133 97 110 75 122 86 l 138 103 b 188 149 154 117 171 132 l 235 194 l 279 242 b 322 286 293 257 308 271 b 332 297 325 289 328 293 l 336 301 b 351 321 342 307 347 313 z m 1290 1257 b 1288 1243 1289 1253 1289 1249 b 1240 1192 1285 1214 1268 1199 b 1153 1264 1192 1182 1153 1226 b 1156 1279 1153 1269 1154 1275 b 1210 1331 1165 1306 1182 1322 b 1236 1328 1218 1333 1228 1332 b 1260 1315 1244 1325 1253 1321 b 1290 1257 1281 1303 1289 1282 z m 1083 1257 b 1081 1243 1082 1253 1082 1249 b 1033 1192 1078 1214 1061 1199 b 946 1264 985 1182 946 1226 b 949 1279 946 1269 947 1275 b 1003 1331 958 1306 975 1322 b 1029 1328 1011 1333 1021 1332 b 1053 1315 1038 1325 1046 1321 b 1083 1257 1074 1303 1082 1282 z "},"":{"ha":1139,"x_min":0,"x_max":0,"o":"m 799 874 l 796 872 b 788 865 792 869 789 868 b 593 772 726 826 663 796 b 497 757 563 761 531 756 b 364 808 446 757 401 774 b 326 885 343 829 331 856 b 326 911 324 893 324 903 b 361 943 331 931 343 940 b 396 939 374 944 386 943 b 442 910 414 932 429 922 b 463 864 453 897 460 882 b 464 857 463 863 463 860 b 468 849 464 853 465 850 b 478 844 469 847 474 846 b 522 849 493 844 508 846 b 611 885 554 856 583 868 b 803 1000 676 922 740 961 l 814 1007 b 882 1050 838 1021 860 1035 b 974 1110 914 1069 944 1089 l 1014 1135 b 1049 1139 1024 1143 1036 1146 b 1081 1118 1061 1136 1072 1129 b 1085 1114 1082 1117 1083 1115 b 1103 1092 1090 1107 1097 1100 b 1129 993 1121 1063 1131 1029 b 1118 881 1128 956 1124 918 b 1085 711 1108 824 1097 768 l 1043 532 b 1003 369 1031 478 1017 424 l 982 286 b 972 249 978 274 975 261 b 954 186 965 228 960 206 b 942 133 950 168 946 150 b 935 106 939 124 936 115 b 907 -4 924 69 915 33 b 882 -89 899 -33 890 -61 l 871 -126 b 840 -214 863 -157 853 -186 b 801 -247 832 -231 818 -242 b 751 -253 785 -251 768 -254 b 717 -237 738 -251 726 -247 b 704 -212 708 -232 704 -222 b 718 -131 707 -185 711 -157 l 721 -112 b 763 86 735 -46 749 21 b 789 197 772 124 781 160 l 790 200 b 790 207 790 203 790 204 l 789 208 b 754 218 775 207 764 210 b 738 250 744 225 739 236 b 742 264 736 256 738 260 b 753 276 746 268 750 272 b 771 300 761 283 767 292 b 771 311 772 306 772 308 b 764 317 771 313 768 315 b 681 340 738 329 710 338 b 600 349 654 344 628 347 l 599 350 b 596 349 597 349 596 349 b 576 342 589 350 582 347 b 526 285 560 322 543 303 b 514 271 522 281 518 276 l 447 204 l 443 200 b 393 154 426 185 410 168 l 378 140 b 340 107 367 129 354 118 b 238 24 307 78 272 50 b 226 13 233 21 229 17 b 172 -26 208 0 190 -14 b 97 -69 149 -43 124 -57 b 19 -86 72 -81 46 -86 b -82 -44 -18 -85 -53 -71 b -111 13 -99 -29 -108 -10 b -103 103 -117 43 -114 74 b -68 174 -94 128 -83 151 b -57 190 -65 181 -61 186 b -53 197 -57 192 -56 194 b 8 264 -36 221 -15 243 b 88 322 32 286 58 306 b 161 360 111 335 136 347 b 222 383 181 368 201 376 b 285 404 243 392 264 399 b 301 407 290 404 296 406 b 317 411 307 408 311 410 b 393 424 342 417 367 421 b 439 426 408 425 424 426 b 456 433 446 426 451 428 b 475 458 461 442 468 450 b 513 504 488 474 500 489 b 522 515 517 508 519 513 b 528 524 525 518 526 521 b 540 539 532 529 536 535 b 574 581 551 553 563 567 b 575 582 574 581 574 582 b 638 665 597 610 618 638 b 738 793 671 708 704 751 b 781 849 753 811 767 829 l 800 872 l 799 872 z m 938 801 l 935 801 b 933 800 935 801 935 800 b 931 796 933 799 932 797 b 910 765 924 786 917 776 l 860 696 b 858 694 860 696 860 694 b 796 607 838 664 818 635 b 736 533 776 583 757 558 b 715 507 731 525 722 515 b 711 500 714 504 713 503 b 706 493 708 499 707 496 b 675 456 696 481 686 468 b 658 436 669 450 664 443 l 654 431 b 644 418 649 428 646 422 l 696 406 b 767 376 721 400 744 390 b 815 335 786 367 803 353 b 817 333 815 335 817 335 b 819 333 818 333 819 333 b 824 342 822 336 822 339 l 839 413 b 865 524 847 449 856 486 b 917 728 882 592 899 660 l 919 740 b 926 763 922 747 924 754 b 938 801 929 775 933 789 z m 351 321 b 325 314 342 319 333 317 b 250 288 299 307 275 297 b 194 261 232 279 213 271 l 186 256 b 157 239 176 251 167 246 b 104 203 139 228 122 215 b 39 139 81 185 58 163 b 8 89 26 124 17 107 b -8 6 -6 63 -11 35 b -6 -3 -7 3 -7 0 b 1 -7 -4 -7 -3 -8 b 10 -1 4 -6 7 -3 b 13 0 10 -1 11 -1 b 44 22 24 7 33 14 l 64 38 b 96 65 75 47 86 56 b 133 97 110 75 122 86 l 138 103 b 188 149 154 117 171 132 l 235 194 l 279 242 b 322 286 293 257 308 271 b 332 297 325 289 328 293 l 336 301 b 351 321 342 307 347 313 z m 1139 1193 b 1046 1271 1103 1192 1053 1219 b 1047 1306 1043 1282 1044 1294 b 1132 1390 1056 1346 1092 1382 b 1178 1385 1147 1394 1163 1393 b 1190 1383 1182 1382 1185 1381 b 1204 1382 1194 1385 1200 1385 b 1246 1317 1228 1375 1251 1350 b 1221 1244 1242 1290 1235 1267 b 1168 1199 1210 1222 1190 1207 b 1139 1193 1158 1194 1149 1193 z m 1110 1257 b 1121 1247 1110 1244 1111 1243 b 1129 1250 1124 1247 1126 1249 b 1185 1318 1158 1264 1174 1289 b 1182 1326 1186 1322 1185 1324 b 1161 1328 1175 1332 1168 1332 b 1113 1271 1139 1314 1122 1294 b 1110 1257 1111 1265 1110 1260 z "}}}
